<?xml version="1.0" encoding="utf-8"?>
<!DOCTYPE svg PUBLIC "-//W3C//DTD SVG 1.0//EN" "http://www.w3.org/TR/2001/REC-SVG-20010904/DTD/svg10.dtd">
<svg version="1.0" xmlns="http://www.w3.org/2000/svg" width="260px" height="223px" viewBox="0 0 260 223" preserveAspectRatio="xMidYMid meet">
 <g fill="#fdfbf2">
  <path d="M125.94 213.34 c-19.64 -1.97 -36.24 -8.75 -51.42 -20.99 -19.48 -15.74 -31.83 -38.88 -34.24 -64.19 -0.46 -4.71 -0.46 -14.21 0 -18.85 2.07 -20.96 10.38 -39.74 24.40 -55.11 14.11 -15.46 33.47 -25.95 53.95 -29.20 6.04 -0.98 9.22 -1.21 16.02 -1.18 13.05 0.02 23.66 2.07 35.75 6.85 16.97 6.71 32.85 19.78 43.02 35.40 7.29 11.24 12.14 23.66 14.21 36.31 0.93 5.85 1.07 7.22 1.21 13.95 0.26 12.47 -1.21 22.45 -4.90 33.31 -4.92 14.51 -12.44 26.42 -23.38 37.12 -7.57 7.41 -15 12.63 -24.47 17.29 -9.70 4.76 -19.27 7.57 -30.29 8.94 -3.62 0.46 -16.48 0.67 -19.85 0.35z m12.33 -3.25 c18.46 -1.02 35.26 -7.10 50.24 -18.18 20.48 -15.14 34.06 -39.14 36.54 -64.58 0.74 -7.47 0.67 -12.44 -0.23 -19.50 -2.51 -19.59 -11.14 -37.82 -24.72 -52.16 -7.34 -7.78 -15.88 -14.07 -25.63 -18.87 -9.94 -4.90 -18.41 -7.45 -29.71 -8.96 -5.18 -0.70 -14.86 -0.77 -20.08 -0.12 -17.55 2.11 -33.57 8.87 -47.47 20.06 -3.37 2.72 -9.70 8.98 -12.54 12.42 -13.16 15.90 -20.64 35.56 -21.38 56.32 -0.30 8.08 0.98 17.88 3.41 26.51 8.75 30.99 33.64 55.62 64.68 64.03 6.06 1.65 12.16 2.65 18.36 3.02 4.18 0.26 4.39 0.26 8.54 0.02z"/>
  <path d="M125.47 206.24 c-7.08 -0.77 -12.74 -2 -19.04 -4.11 -4.71 -1.60 -5.50 -1.93 -9.87 -4.02 -6.06 -2.92 -12.16 -6.80 -17.64 -11.21 -3.25 -2.60 -9.98 -9.43 -12.86 -13.02 -10.56 -13.26 -16.62 -27.74 -18.76 -45.04 -0.39 -3.25 -0.39 -16.67 0 -19.96 2.07 -16.81 7.50 -30.46 17.41 -43.76 4.62 -6.18 10.86 -12.37 17.29 -17.16 12.47 -9.26 26.72 -14.93 42.41 -16.85 3.27 -0.39 13.23 -0.56 16.83 -0.26 11.58 0.95 21.61 3.71 31.80 8.73 8.98 4.41 16.02 9.45 23.21 16.69 9.08 9.12 16.16 20.31 20.43 32.27 1.56 4.41 2.46 7.54 3.25 11.42 2.76 13.46 2.55 27.65 -0.63 40.32 -3.09 12.42 -8.45 23.26 -16.67 33.75 -2.53 3.23 -10.05 10.77 -13.35 13.39 -10.12 8.01 -21.89 13.81 -34.33 16.85 -3.16 0.79 -9.03 1.72 -12.91 2.09 -3.69 0.32 -12.95 0.26 -16.60 -0.14z m10.75 -7.68 l-1.56 -0.09 0 -2.69 c0 -1.46 -0.07 -2.74 -0.14 -2.81 -0.07 -0.07 -0.12 1.21 -0.12 2.81 l0 2.95 1.69 -0.05 1.67 -0.05 -1.56 -0.07z m-7.08 -5.62 c-0.19 -0.28 -0.26 0.32 -0.37 2.65 l-0.14 2.55 0.28 -2.55 c0.16 -1.39 0.26 -2.60 0.23 -2.65z m16.41 3.95 c0 -0.81 -0.05 -0.88 -0.56 -0.79 l-0.58 0.12 0.51 0.79 c0.28 0.44 0.53 0.79 0.58 0.79 0.02 0 0.05 -0.39 0.05 -0.91z m-3.34 -1.88 c0.30 0 0.56 -0.05 0.56 -0.12 0 -0.19 -1.49 -2.21 -1.56 -2.11 -0.05 0.05 0 0.84 0.09 1.79 0.09 0.95 0.21 1.44 0.26 1.09 0.07 -0.51 0.21 -0.65 0.65 -0.65z m-30.78 -5.43 c-0.19 -0.19 -0.39 -0.09 -0.74 0.32 l-0.46 0.58 0.60 0.07 c0.58 0.07 0.60 0.14 0.60 1.58 0 1 -0.09 1.49 -0.28 1.49 -0.21 0 -0.21 0.07 0 0.28 0.16 0.16 0.30 0.49 0.32 0.77 0.02 0.26 0.09 -0.72 0.12 -2.18 0.07 -1.72 0 -2.74 -0.16 -2.90z m46.13 4.22 c-0.05 -0.30 -0.09 -0.12 -0.09 0.39 -0.02 0.51 0.02 0.74 0.09 0.53 0.05 -0.23 0.05 -0.65 0 -0.93z m-48.68 -1.02 c0 -0.32 -0.07 -0.32 -0.35 -0.09 -0.19 0.16 -0.35 0.32 -0.35 0.37 0 0.05 0.16 0.09 0.35 0.09 0.19 0 0.35 -0.16 0.35 -0.37z m49.54 -2.76 c-0.21 -0.32 -0.53 -0.58 -0.70 -0.58 -0.19 0 -0.32 0.23 -0.32 0.58 0 0.49 0.12 0.58 0.70 0.58 0.70 0 0.70 0 0.32 -0.58z m6.08 -0.74 c-0.26 -0.26 -0.39 0.09 -0.21 0.53 0.16 0.42 0.19 0.42 0.26 0.02 0.05 -0.23 0.02 -0.49 -0.05 -0.56z m-61.19 -0.07 c0 -0.63 -0.07 -0.70 -0.67 -0.70 -0.53 0 -0.70 -0.12 -0.77 -0.51 -0.07 -0.42 -0.12 -0.39 -0.44 0.30 l-0.37 0.79 1 -0.09 c0.91 -0.07 1.02 -0.02 1.02 0.42 0 0.28 0.05 0.49 0.12 0.49 0.07 0 0.12 -0.30 0.12 -0.70z m30.04 -3.30 c0.07 -0.30 0.14 -0.65 0.14 -0.79 0 -0.21 -5.01 -0.79 -6.82 -0.79 -0.39 0 -0.42 -0.19 -0.32 -2.44 0.07 -1.35 0.19 -2.51 0.26 -2.58 0.09 -0.09 1.21 -0.07 2.48 0.05 l2.32 0.21 0 -0.74 c0 -0.88 -0.07 -0.91 -2.83 -1.11 -2.07 -0.19 -1.93 0.09 -1.65 -3.02 l0.14 -1.81 3.23 0.16 c1.76 0.09 3.37 0.21 3.53 0.28 0.23 0.09 0.35 -0.14 0.42 -0.81 0.05 -0.53 0.02 -0.95 -0.05 -0.95 -0.07 0 -2.14 -0.16 -4.60 -0.37 -2.46 -0.21 -4.53 -0.32 -4.60 -0.28 -0.07 0.09 -1.04 10.35 -1.32 13.95 -0.05 0.79 0 0.86 0.53 0.88 0.32 0 1.95 0.14 3.60 0.32 4.78 0.46 5.39 0.44 5.55 -0.16z m14.63 -0.12 c1.69 -0.46 3.20 -1.81 3.62 -3.23 0.26 -0.84 0.16 -1.53 -0.70 -6.15 -0.51 -2.86 -1.02 -5.39 -1.07 -5.62 -0.12 -0.37 -0.28 -0.39 -1.09 -0.28 -0.53 0.09 -1.02 0.21 -1.07 0.26 -0.02 0.02 0.32 2.14 0.81 4.67 0.46 2.53 0.86 5.29 0.88 6.15 0.02 2.09 -0.39 2.55 -2.51 2.69 -1.37 0.09 -1.56 0.05 -2.09 -0.49 -0.32 -0.32 -0.65 -0.88 -0.72 -1.25 -0.28 -1.21 -0.28 -1.21 -1.21 -1.07 -1.18 0.19 -1.32 0.35 -1 1.32 0.49 1.51 1.74 2.65 3.48 3.18 0.88 0.26 1.14 0.23 2.65 -0.19z m-36.38 -2.97 c1.11 -0.46 1.65 -0.95 2.18 -2.02 0.56 -1.11 0.56 -2.21 -0.02 -3.16 -0.26 -0.42 -0.46 -1.09 -0.46 -1.51 0 -0.63 0.16 -0.84 0.91 -1.25 0.60 -0.35 1.07 -0.88 1.42 -1.58 0.60 -1.25 0.51 -2.14 -0.37 -3.30 -0.86 -1.14 -1.95 -1.63 -7.31 -3.32 l-0.60 -0.19 -1.23 4.11 c-0.67 2.25 -1.63 5.39 -2.11 6.99 -0.51 1.58 -0.91 2.99 -0.91 3.16 0 0.14 1.44 0.70 3.20 1.23 1.74 0.56 3.30 1.02 3.41 1.07 0.51 0.16 1.09 0.09 1.90 -0.23z m51.86 -1.79 c0.51 -0.14 0.91 -0.32 0.91 -0.39 0 -0.07 -1.04 -3.27 -2.30 -7.10 l-2.28 -6.96 -0.79 0.07 c-0.44 0.02 -0.88 0.16 -1 0.28 -0.19 0.19 4.20 14.39 4.46 14.39 0.07 0 0.51 -0.12 1 -0.28z m30.97 -10.17 c1.02 -0.51 2.41 -1.42 3.11 -2.04 l1.25 -1.11 -1.63 -0.63 c-2.76 -1.09 -4.64 -1.18 -7.27 -0.39 -0.44 0.12 -1.09 0.23 -1.44 0.23 -0.56 0 -0.65 -0.09 -0.65 -0.65 0 -0.60 -0.05 -0.63 -0.95 -0.56 l-0.98 0.09 0.16 -1.46 c0.46 -4.39 0.44 -4.55 -0.19 -6.55 -0.32 -1.04 -0.86 -2.30 -1.21 -2.81 l-0.60 -0.88 -0.56 0.65 c-0.98 1.18 -2.16 3.71 -2.55 5.34 -0.58 2.48 -0.09 4.83 1.51 7.17 0.39 0.60 0.72 1.37 0.72 1.76 0 0.63 0.07 0.67 0.84 0.67 0.46 0 1.11 0.19 1.44 0.44 1.79 1.25 4.04 1.93 5.85 1.76 0.84 -0.07 1.90 -0.42 3.13 -1.04z m-113.84 0.32 c0.70 -0.21 1.81 -0.67 2.46 -1.04 0.70 -0.39 1.58 -0.67 2.04 -0.67 0.74 0 0.81 -0.07 0.81 -0.67 0 -0.37 0.37 -1.28 0.81 -2.02 1.60 -2.65 1.88 -5.06 0.93 -7.87 -0.51 -1.56 -2.46 -4.99 -2.81 -4.99 -0.26 0 -1.74 3.51 -2.09 4.94 -0.35 1.39 -0.37 1.81 -0.12 3.25 0.63 3.55 0.65 3.41 -0.26 3.41 -0.44 0 -0.91 -0.12 -1.07 -0.28 -0.21 -0.21 -0.28 -0.12 -0.28 0.46 0 0.65 -0.07 0.74 -0.60 0.74 -0.32 0 -1.18 -0.16 -1.90 -0.37 -1.81 -0.53 -4.32 -0.32 -6.36 0.49 -0.88 0.35 -1.58 0.72 -1.58 0.81 0 0.37 2.41 2.30 3.74 2.99 2.23 1.21 4.11 1.44 6.27 0.81z m60.57 -4.13 c7.94 -1.46 14.95 -4.48 21.36 -9.17 2.58 -1.86 7.52 -6.96 9.24 -9.49 1.69 -2.48 3.64 -6.41 3.44 -6.94 -0.09 -0.21 -0.30 -0.30 -0.56 -0.21 -0.21 0.07 -1.32 0.46 -2.48 0.86 -1.76 0.60 -2.53 0.74 -4.88 0.84 -3.44 0.14 -4.83 -0.14 -8.89 -1.88 -3.53 -1.51 -5.01 -1.86 -7.94 -1.83 -2.60 0 -4.22 0.39 -7.75 1.86 -3.60 1.49 -5.55 1.93 -8.36 1.93 -2.86 0 -4.85 -0.42 -7.52 -1.53 -5.18 -2.16 -8.13 -2.69 -11.65 -2.09 -1.32 0.23 -2.95 0.72 -4.06 1.21 -4.13 1.83 -5.46 2.23 -7.89 2.34 -2.74 0.14 -5.55 -0.28 -7.80 -1.18 -2.55 -1.02 -2.67 -0.84 -1.28 2.07 1.60 3.39 3.62 6.15 6.99 9.54 7.73 7.82 16.78 12.30 28.09 13.91 2.90 0.42 9.17 0.30 11.96 -0.21z m59.20 -4.76 c1.58 -0.58 3.74 -2.30 4.92 -3.85 l0.88 -1.16 -1 -0.32 c-0.56 -0.19 -1.93 -0.35 -3.18 -0.35 -1.95 -0.02 -2.39 0.07 -3.71 0.65 -0.84 0.37 -1.90 0.72 -2.37 0.77 -0.86 0.12 -0.88 0.09 -0.88 -0.65 -0.02 -0.65 -0.05 -0.72 -0.26 -0.37 -0.14 0.26 -0.51 0.39 -1.02 0.39 l-0.81 0 0 -2.16 c0 -3.04 -0.93 -5.78 -2.65 -7.92 l-0.53 -0.65 -0.72 1.42 c-0.39 0.79 -0.88 2.23 -1.11 3.20 -0.32 1.51 -0.35 2.02 -0.12 3.25 0.35 1.88 1.21 3.81 2.23 5.08 0.44 0.53 0.81 1.23 0.81 1.53 0 0.49 0.09 0.53 0.91 0.46 0.56 -0.05 1.18 0.07 1.67 0.32 2.14 1.09 4.64 1.23 6.94 0.35z m-125.68 -0.37 c0.95 -0.32 2.09 -0.58 2.53 -0.58 0.67 0 0.81 -0.09 0.81 -0.49 0 -0.26 0.37 -0.91 0.81 -1.44 1.07 -1.23 1.86 -2.92 2.23 -4.76 0.28 -1.28 0.26 -1.72 -0.07 -3.32 -0.21 -1.04 -0.72 -2.55 -1.09 -3.39 -0.84 -1.76 -0.93 -1.74 -2.21 0.37 -1.28 2.11 -1.76 3.85 -1.76 6.41 l0 2.21 -0.81 0 c-0.51 0 -0.88 -0.14 -1.02 -0.39 -0.21 -0.35 -0.23 -0.28 -0.26 0.37 0 0.74 -0.02 0.77 -0.86 0.65 -0.49 -0.05 -1.60 -0.39 -2.51 -0.74 -1.21 -0.49 -2.07 -0.65 -3.37 -0.67 -1.95 -0.02 -4.18 0.44 -4.18 0.88 0 0.49 2.48 3.06 3.74 3.88 2.67 1.69 5.06 2 8.01 1.02z m131.14 -9.84 c0.77 -0.35 1.93 -1.14 2.60 -1.74 1.14 -1.02 3.32 -3.99 3.32 -4.50 0 -0.39 -2 -0.56 -3.51 -0.28 -1.86 0.35 -3.55 0.98 -4.85 1.86 -0.63 0.42 -1.35 0.70 -1.79 0.70 -0.67 0 -0.77 -0.07 -0.77 -0.63 l-0.02 -0.65 -0.35 0.65 c-0.28 0.49 -0.51 0.63 -1.14 0.63 l-0.81 0 0 -1.72 c0 -2.90 -0.98 -5.25 -3.32 -7.92 l-0.79 -0.91 -0.39 0.72 c-0.60 1.18 -1.07 3.30 -1.07 4.88 0 2.67 1.44 5.83 3.46 7.54 0.70 0.58 0.95 1 0.95 1.46 0 0.53 0.05 0.60 0.35 0.35 0.37 -0.30 1.65 -0.23 3.48 0.21 1.35 0.32 3.06 0.07 4.64 -0.65z m-132.88 -2.28 c0.67 -0.70 1.53 -2 2.02 -3.02 0.84 -1.74 0.86 -1.90 0.84 -4.25 0 -1.95 -0.12 -2.69 -0.53 -3.76 -0.28 -0.74 -0.60 -1.35 -0.72 -1.35 -0.44 0 -2.41 2.55 -3.20 4.18 -0.74 1.56 -0.86 1.97 -0.93 4.02 l-0.09 2.25 -0.81 0 c-0.67 0 -0.84 -0.12 -1.11 -0.74 l-0.32 -0.77 -0.02 0.65 c0 0.56 -0.09 0.63 -0.74 0.63 -0.46 0 -1.28 -0.32 -2.04 -0.84 -2.14 -1.35 -5.39 -2.14 -7.38 -1.79 l-0.98 0.19 0.86 1.49 c2.41 4.09 6.71 6.43 10.24 5.62 0.72 -0.19 1.76 -0.37 2.30 -0.42 0.84 -0.09 0.98 -0.05 1.14 0.44 0.19 0.46 0.21 0.42 0.28 -0.39 0.07 -0.74 0.32 -1.16 1.23 -2.14z m131.90 -8.10 c4.18 0.37 8.10 -2.04 10.01 -6.18 1.21 -2.58 1.23 -2.74 0.44 -2.74 -2.07 0 -5.53 1.46 -7.43 3.13 -0.86 0.77 -1.39 1.04 -1.90 1.04 -0.67 0 -0.72 -0.05 -0.74 -0.86 l-0.02 -0.88 -0.23 0.88 c-0.21 0.77 -0.30 0.86 -1.02 0.86 -0.67 0 -0.81 -0.09 -0.93 -0.63 -0.67 -3.09 -2.21 -5.78 -4.22 -7.43 -0.67 -0.56 -1.32 -1 -1.42 -1 -0.32 0 -0.72 1.97 -0.72 3.67 0 1.83 0.46 3.67 1.35 5.15 0.81 1.42 2.48 3.16 3.69 3.88 0.84 0.49 1 0.70 1.02 1.30 0 0.72 0.02 0.72 0.23 0.19 0.21 -0.53 0.28 -0.53 1.90 -0.39z m-137.15 -1.93 c1.63 -1.07 3.11 -2.95 3.85 -4.85 0.60 -1.60 0.86 -5.01 0.46 -6.50 -0.26 -0.91 -0.30 -0.95 -0.79 -0.72 -0.28 0.16 -1.14 0.93 -1.90 1.69 -1.88 1.93 -2.90 3.88 -3.48 6.71 -0.12 0.53 -0.23 0.63 -0.91 0.63 -0.72 0 -0.81 -0.09 -1.02 -0.86 l-0.23 -0.88 -0.02 0.77 c-0.02 0.67 -0.09 0.74 -0.79 0.74 -0.58 0 -0.98 -0.21 -1.58 -0.84 -1.18 -1.23 -2.79 -2.16 -4.74 -2.79 -1.90 -0.60 -3.60 -0.74 -3.60 -0.28 0 0.16 0.46 1.23 1.02 2.39 2.14 4.36 5.80 6.64 10.07 6.24 1.65 -0.14 1.69 -0.14 1.86 0.39 0.14 0.53 0.16 0.51 0.28 -0.19 0.09 -0.58 0.39 -0.93 1.51 -1.67z m118.46 -5.06 l0.07 -0.77 -2.21 0 -2.23 0 0 -6.85 0 -6.85 1.02 0 c0.77 0 1.42 0.23 2.67 0.95 0.91 0.51 1.74 0.88 1.88 0.79 0.35 -0.23 0.28 -0.67 -0.16 -0.95 -1.21 -0.74 -17.99 -10.12 -24.26 -13.53 l-1.79 -0.98 -1 0.51 c-0.56 0.28 -1.42 0.79 -1.93 1.11 -1.42 0.95 -2.60 1.42 -3.51 1.42 l-0.84 0 0.09 -0.98 c0.07 -0.56 0.39 -1.93 0.77 -3.09 0.58 -1.83 0.65 -2.46 0.65 -4.99 0 -3.53 -0.49 -5.55 -2.14 -8.94 -2.37 -4.81 -5.48 -7.94 -10.40 -10.40 -9.89 -4.99 -22.19 -0.32 -27.46 10.40 -2.60 5.27 -2.95 10.54 -1.02 15.34 0.30 0.77 0.56 1.74 0.56 2.14 0 1.25 -1.09 1.04 -4.64 -0.91 l-2.99 -1.65 -2.04 1.09 c-1.11 0.60 -6.15 3.44 -11.14 6.29 -5.01 2.86 -10.01 5.69 -11.10 6.27 -1.83 1 -2.30 1.49 -1.74 1.83 0.14 0.09 0.98 -0.28 1.88 -0.79 1.25 -0.72 1.90 -0.95 2.67 -0.95 l1.02 0 0 6.85 0 6.85 -2.21 0 -2.21 0 0 0.65 c0 0.37 0.07 0.74 0.16 0.81 0.07 0.09 23.40 0.14 51.81 0.12 l51.67 -0.07 0.07 -0.74z m20.13 -3.41 l0.16 -1.07 1 0 c1.44 0 3.71 -0.77 5.11 -1.74 2.34 -1.60 4.09 -4.55 4.71 -7.99 l0.21 -1.21 -0.72 0.14 c-2.30 0.49 -5.92 2.97 -7.10 4.90 -0.44 0.70 -0.63 0.79 -1.44 0.79 l-0.93 0 0.14 -1.44 c0.07 -0.81 0.21 -2.21 0.28 -3.13 0.14 -1.65 0.16 -1.67 0.88 -1.83 0.39 -0.07 1.30 -0.44 2 -0.79 3.67 -1.88 5.59 -5.13 5.62 -9.59 0 -1.14 -0.05 -2.11 -0.12 -2.18 -0.19 -0.19 -1.95 0.88 -3.25 1.95 -1.32 1.09 -3.06 3.30 -3.46 4.39 -0.23 0.67 -0.39 0.79 -1.02 0.79 -0.53 0 -0.79 -0.12 -0.86 -0.39 -0.07 -0.23 -0.12 0.07 -0.14 0.70 -0.02 1.07 -0.05 1.09 -0.77 1.09 -0.67 0 -0.86 -0.16 -1.46 -1.18 -0.91 -1.56 -2.53 -3.02 -4.20 -3.88 -1.67 -0.84 -3.06 -1.25 -3.25 -0.95 -0.21 0.37 0.58 2.99 1.37 4.48 1.42 2.69 4.43 4.97 7.13 5.43 l1.04 0.16 0.07 1.28 c0.02 0.70 -0.02 2.16 -0.12 3.25 l-0.19 1.97 -0.81 0.07 c-0.81 0.07 -0.84 0.05 -1.49 -1.49 -0.86 -1.95 -2.90 -4.09 -4.94 -5.15 l-1.44 -0.77 -0.16 0.86 c-0.23 1.28 0.32 3.88 1.21 5.64 1 2.02 3.02 3.97 5.11 4.94 l1.56 0.72 -0.14 1.65 c-0.14 1.74 0.14 1.49 0.42 -0.42z m-142.16 -2.21 c2.39 -0.91 4.39 -2.81 5.55 -5.25 0.98 -2.04 1.46 -5.11 0.93 -5.92 -0.35 -0.56 -2.11 0.51 -4.06 2.44 -1.23 1.23 -1.81 2.02 -2.32 3.20 -0.67 1.53 -0.72 1.56 -1.51 1.51 -0.81 -0.07 -0.81 -0.09 -0.98 -1.35 -0.07 -0.70 -0.14 -2.18 -0.16 -3.30 l-0.02 -2.04 0.65 -0.12 c0.35 -0.07 1.14 -0.30 1.76 -0.49 3.58 -1.16 6.41 -4.64 7.20 -8.89 l0.14 -0.79 -0.86 0.14 c-2.30 0.37 -5.73 2.92 -6.92 5.11 -0.37 0.72 -0.58 0.86 -1.21 0.86 l-0.77 0 -0.05 -1.79 c-0.02 -1.09 -0.07 -1.42 -0.12 -0.81 -0.09 0.93 -0.14 0.98 -0.86 0.98 -0.70 0 -0.86 -0.14 -1.67 -1.53 -1 -1.69 -3.13 -3.83 -4.83 -4.83 -1.39 -0.81 -1.53 -0.65 -1.53 1.60 0 5.08 2.88 9.03 7.43 10.21 l1.04 0.26 0.14 1.51 c0.09 0.81 0.16 2.25 0.19 3.18 l0.02 1.67 -0.74 0 c-0.60 0 -0.88 -0.16 -1.32 -0.84 -0.95 -1.39 -2.76 -2.83 -4.76 -3.78 -1.02 -0.51 -2.16 -0.98 -2.51 -1.04 -0.79 -0.19 -0.81 0.07 -0.30 2.07 1.25 4.78 4.34 7.87 8.61 8.52 0.88 0.14 1.72 0.28 1.88 0.32 0.14 0.02 0.35 0.51 0.44 1.07 l0.21 1 0.12 -1.25 c0.12 -1.23 0.12 -1.23 1.18 -1.63z m143.14 -18.64 c-0.05 -0.30 -0.09 -0.07 -0.09 0.51 0 0.58 0.05 0.81 0.09 0.53 0.05 -0.30 0.05 -0.77 0 -1.04z m-145.55 -1.16 c-0.05 -0.30 -0.09 -0.12 -0.09 0.39 -0.02 0.51 0.02 0.74 0.09 0.53 0.05 -0.23 0.05 -0.65 0 -0.93z m146.62 -2.69 c3.58 -2.02 5.85 -6.55 5.41 -10.75 -0.23 -2.23 -0.35 -2.30 -1.76 -1.25 -1.97 1.46 -4.06 4.48 -4.53 6.57 -0.14 0.65 -0.23 0.74 -0.93 0.74 -0.56 0 -0.81 -0.12 -0.88 -0.39 -0.07 -0.23 -0.12 0.02 -0.14 0.58 -0.02 0.95 -0.05 0.98 -0.84 0.98 -0.56 0 -0.86 -0.14 -1.04 -0.46 -0.32 -0.60 -2.37 -2.14 -3.83 -2.86 -1.18 -0.60 -3.46 -1.14 -3.97 -0.93 -0.63 0.23 1.07 3.78 2.62 5.43 1.90 2.04 4.02 3.11 6.82 3.41 l1.49 0.16 0.12 1.04 0.09 1.04 0.09 -1.32 0.07 -1.32 1.21 -0.67z m-144.67 0.56 c3.09 -0.28 5.90 -1.90 7.64 -4.41 0.60 -0.88 1.86 -3.67 1.86 -4.13 0 -0.32 -1.28 -0.21 -2.76 0.26 -1.79 0.56 -3.39 1.58 -4.76 3.04 -0.84 0.88 -1.25 1.16 -1.76 1.16 -0.65 0 -0.70 -0.07 -0.70 -0.81 0 -0.77 -0.05 -0.81 -0.79 -0.81 -0.74 0 -0.79 -0.07 -1.30 -1.44 -0.30 -0.81 -0.86 -1.97 -1.28 -2.62 -0.77 -1.18 -2.88 -3.32 -3.76 -3.78 -0.65 -0.37 -0.79 0 -0.93 2.65 -0.16 2.76 0.39 4.76 1.90 6.80 1 1.35 3.32 3.32 4.29 3.62 0.35 0.12 0.46 0.37 0.51 1.11 0.02 0.81 0.05 0.86 0.12 0.26 0.09 -0.72 0.12 -0.72 1.72 -0.88z m13.21 -2.83 l0 -1.74 0.98 0.07 0.95 0.07 0.65 1.86 c0.35 1.02 0.65 1.74 0.65 1.60 0.02 -0.14 -0.19 -0.86 -0.44 -1.60 -0.26 -0.74 -0.46 -1.74 -0.46 -2.25 l0 -0.88 -1.16 0 c-1.16 0 -1.16 0 -1.16 -0.74 0 -0.42 -0.07 -1.32 -0.14 -1.97 l-0.16 -1.23 1.37 0 c0.98 0 1.28 -0.07 1.02 -0.23 -0.19 -0.12 -0.91 -0.23 -1.56 -0.23 l-1.23 0 0 4.48 c0 2.48 0.07 4.57 0.14 4.64 0.37 0.37 0.56 -0.23 0.56 -1.83z m8.01 1.02 c0.09 -0.53 0.14 -2.51 0.09 -4.36 l-0.09 -3.37 0.88 -0.07 c1.65 -0.14 0.86 -0.51 -1.11 -0.51 -1.16 0 -1.97 0.09 -1.97 0.23 0 0.14 0.37 0.23 0.81 0.23 l0.81 0 0 4.41 c0 4.22 0.23 5.57 0.58 3.44z m3.78 0.56 c0.05 -0.16 -0.07 -0.28 -0.28 -0.28 -0.21 0 -0.37 0.16 -0.37 0.37 0 0.39 0.51 0.32 0.65 -0.09z m5.15 0.19 c0.26 -0.16 0.09 -0.23 -0.58 -0.23 -0.67 0 -0.84 0.07 -0.58 0.23 0.19 0.12 0.46 0.23 0.58 0.23 0.14 0 0.39 -0.12 0.58 -0.23z m6.04 -3.34 c0.51 -1.76 0.93 -3.25 0.88 -3.30 -0.05 -0.05 -0.51 1.25 -1.04 2.88 -1.25 3.85 -1.35 4.16 -1.04 3.88 0.14 -0.12 0.67 -1.67 1.21 -3.46z m67.55 1.58 l0 -1.74 0.98 0.07 0.98 0.07 0.58 1.86 c0.30 1.02 0.60 1.74 0.65 1.63 0.05 -0.14 -0.14 -0.86 -0.39 -1.63 -0.26 -0.74 -0.46 -1.74 -0.46 -2.23 l0 -0.88 -1.21 -0.07 -1.23 -0.07 -0.07 -1.90 -0.07 -1.93 1.23 0 c0.88 0 1.14 -0.07 0.88 -0.23 -0.19 -0.12 -0.84 -0.23 -1.44 -0.23 l-1.11 0 0 4.48 c0 2.48 0.07 4.57 0.14 4.64 0.37 0.37 0.56 -0.23 0.56 -1.83z m8.13 -2.55 l0 -4.27 0.81 0 c0.44 0 0.81 -0.09 0.81 -0.23 0 -0.14 -0.81 -0.23 -1.97 -0.23 -1.16 0 -1.97 0.09 -1.97 0.23 0 0.14 0.37 0.23 0.81 0.23 l0.81 0 0 3.69 c0 3.81 0.14 5.22 0.49 4.99 0.12 -0.07 0.21 -2.04 0.21 -4.41z m3.71 4.20 c0 -0.19 -0.09 -0.35 -0.23 -0.35 -0.12 0 -0.23 0.16 -0.23 0.35 0 0.19 0.12 0.35 0.23 0.35 0.14 0 0.23 -0.16 0.23 -0.35z m5.34 0.12 c0.26 -0.16 0.09 -0.23 -0.58 -0.23 -0.67 0 -0.84 0.07 -0.58 0.23 0.19 0.12 0.46 0.23 0.58 0.23 0.14 0 0.39 -0.12 0.58 -0.23z m6.50 0 c0.26 -0.16 0.09 -0.23 -0.58 -0.21 -0.72 0 -0.84 0.05 -0.46 0.21 0.60 0.26 0.65 0.26 1.04 0z m-1.81 -2.09 c-0.09 -1.67 -0.37 -1.97 -0.63 -0.60 -0.12 0.51 -0.02 1.02 0.21 1.51 0.21 0.39 0.42 0.72 0.44 0.72 0.02 0 0.02 -0.74 -0.02 -1.63z m-97.38 0.81 c-0.09 -0.19 -0.26 -0.35 -0.39 -0.35 -0.16 0 -0.16 0.14 0 0.49 0.30 0.53 0.60 0.44 0.39 -0.14z m90.51 -0.28 c-0.26 -0.26 -0.39 0.09 -0.21 0.53 0.16 0.42 0.19 0.42 0.26 0.02 0.05 -0.23 0.02 -0.49 -0.05 -0.56z m3.55 -0.65 c0 -0.26 -0.14 -0.72 -0.32 -1.04 -0.30 -0.53 -0.32 -0.49 -0.32 1.04 0 1.53 0.02 1.58 0.32 1.04 0.19 -0.32 0.32 -0.79 0.32 -1.04z m-90.70 0.19 c0.02 -0.37 -0.09 -0.88 -0.23 -1.14 -0.21 -0.37 -0.26 -0.19 -0.28 0.95 0 0.98 0.07 1.30 0.26 1.11 0.12 -0.12 0.26 -0.56 0.26 -0.93z m97.22 -0.19 c0 -0.37 -0.12 -0.86 -0.23 -1.04 -0.16 -0.26 -0.23 0.07 -0.23 1.04 0 0.98 0.07 1.30 0.23 1.04 0.12 -0.19 0.23 -0.65 0.23 -1.04z m-84.66 -4.57 c0.19 -5.87 1.42 -9.80 4.43 -14.32 4.02 -5.99 9.94 -9.98 16.81 -11.31 2.55 -0.49 8.45 -0.42 11.07 0.12 3.99 0.84 7.89 2.72 11.26 5.48 3.90 3.20 7.29 8.40 8.71 13.42 0.63 2.23 1.09 6.34 1.02 8.75 -0.05 1.37 -0.02 1.51 0.42 1.58 0.44 0.07 0.51 -0.07 0.65 -1.65 0.44 -4.71 -1.53 -11.42 -4.83 -16.46 -1.69 -2.60 -5.39 -6.36 -7.82 -8.01 -6.45 -4.32 -13.58 -5.80 -20.61 -4.27 -12.40 2.72 -21.73 13.88 -22.26 26.65 -0.14 3.32 -0.07 3.78 0.58 3.78 0.42 0 0.46 -0.28 0.58 -3.76z m83.97 2.11 c0 -0.12 -0.51 -0.21 -1.14 -0.21 -0.70 0 -1.18 -0.12 -1.25 -0.28 -0.07 -0.16 -0.14 -0.05 -0.14 0.28 -0.02 0.56 0.02 0.58 1.25 0.51 0.70 -0.05 1.28 -0.19 1.28 -0.30z m-97.50 -0.07 c0 -0.21 -0.19 -0.28 -0.58 -0.19 -0.32 0.05 -0.58 0.19 -0.58 0.30 0 0.12 0.26 0.21 0.58 0.21 0.32 0 0.58 -0.14 0.58 -0.32z m90.77 -0.02 c0 -0.37 -0.21 -0.44 -0.79 -0.21 -0.58 0.21 -0.44 0.56 0.21 0.56 0.37 0 0.58 -0.14 0.58 -0.35z m-104.93 -1.97 c0 -0.44 -0.12 -0.98 -0.23 -1.16 -0.16 -0.26 -0.23 0.09 -0.23 1.16 0 1.07 0.07 1.42 0.23 1.16 0.12 -0.19 0.23 -0.72 0.23 -1.16z m90.54 -0.05 c0 -0.46 -0.09 -0.93 -0.23 -1 -0.14 -0.09 -0.23 0.37 -0.23 1.21 0 0.95 0.07 1.25 0.23 1 0.12 -0.19 0.23 -0.74 0.23 -1.21z m-75.45 -0.32 c0 -0.26 -0.14 -0.65 -0.28 -0.86 -0.26 -0.35 -0.28 -0.21 -0.21 0.79 0.05 0.81 0.14 1.09 0.28 0.88 0.12 -0.19 0.21 -0.53 0.21 -0.81z m90.54 0.05 c0 -0.44 -0.19 -0.98 -0.39 -1.23 -0.23 -0.23 -0.35 -0.32 -0.23 -0.21 0.09 0.14 0.16 0.74 0.16 1.37 0 0.67 0.09 1.07 0.23 0.98 0.14 -0.07 0.23 -0.49 0.23 -0.91z m3.48 -0.05 c0 -0.63 -0.09 -1 -0.23 -0.91 -0.26 0.16 -0.30 1.04 -0.09 1.60 0.23 0.60 0.32 0.42 0.32 -0.70z m3.25 0.02 c0 -0.26 -0.12 -0.63 -0.23 -0.81 -0.16 -0.26 -0.23 -0.02 -0.23 0.81 0 0.84 0.07 1.07 0.23 0.81 0.12 -0.19 0.23 -0.56 0.23 -0.81z m-91.02 -1.67 c0.02 -0.23 -0.49 -0.30 -1.83 -0.30 -1.09 0 -1.86 0.09 -1.86 0.23 0 0.14 0.65 0.23 1.51 0.23 l1.51 0 0.02 0.88 0.02 0.86 0.30 -0.81 c0.16 -0.44 0.32 -0.95 0.32 -1.09z m-9.49 0.81 c0 -0.44 -0.05 -0.46 -0.23 -0.19 -0.30 0.44 -0.30 0.70 0 0.70 0.14 0 0.23 -0.23 0.23 -0.51z m114.28 -3.41 c1.60 -1.51 2.86 -3.85 3.20 -6.06 0.21 -1.21 0.19 -1.90 -0.09 -3.37 -0.19 -1.02 -0.46 -2.16 -0.63 -2.53 l-0.26 -0.67 -1 0.98 c-1.72 1.67 -3.09 4.36 -3.51 6.82 -0.12 0.77 -0.21 0.86 -0.81 0.86 -0.65 0 -0.70 0.05 -0.70 0.93 0 0.88 -0.02 0.93 -0.74 0.93 -0.49 0 -1.21 -0.32 -2.09 -0.95 -1.65 -1.14 -3.46 -1.81 -5.43 -2 -1.90 -0.19 -2.04 0.12 -1 1.95 2.07 3.60 5.66 5.64 9.40 5.29 1.69 -0.16 1.74 -0.16 1.90 0.37 0.14 0.49 0.19 0.42 0.28 -0.37 0.09 -0.77 0.35 -1.16 1.46 -2.18z m-112.19 2.44 c0 -0.21 -0.91 -0.30 -1.18 -0.12 -0.23 0.14 -0.09 0.21 0.44 0.21 0.39 0 0.74 -0.05 0.74 -0.09z m90.26 -0.16 c-0.28 -0.16 -0.56 -0.16 -0.81 0 -0.35 0.21 -0.28 0.23 0.39 0.23 0.67 0 0.74 -0.02 0.42 -0.23z m7.01 0.16 c0 -0.21 -0.91 -0.30 -1.18 -0.12 -0.23 0.14 -0.09 0.21 0.44 0.21 0.39 0 0.74 -0.05 0.74 -0.09z m-124.47 -0.77 c2.37 0.05 2.55 0.02 4.06 -0.72 0.86 -0.42 2.07 -1.25 2.72 -1.86 1.11 -1.04 2.79 -3.53 2.79 -4.13 0 -0.16 -0.30 -0.35 -0.67 -0.44 -1.63 -0.35 -5.34 0.93 -7.03 2.41 -0.56 0.46 -1.07 0.72 -1.56 0.72 -0.67 0 -0.72 -0.05 -0.72 -0.81 0 -0.77 -0.05 -0.81 -0.77 -0.81 -0.77 0 -0.77 0 -1.02 -1.56 -0.37 -2.07 -1.60 -4.53 -3.16 -6.22 l-1.28 -1.39 -0.37 1.30 c-1.39 4.78 -0.58 8.19 2.69 11.40 1.16 1.14 1.58 1.72 1.60 2.21 0.02 0.35 0.07 0.49 0.14 0.26 0.07 -0.32 0.44 -0.37 2.58 -0.35z m132.44 -9.73 c1.11 -0.12 1.32 -0.21 1.32 -0.60 0 -0.26 0.42 -0.95 0.93 -1.53 1.21 -1.35 2.21 -3.48 2.55 -5.36 0.21 -1.21 0.19 -1.79 -0.12 -3.37 -0.39 -1.93 -1.18 -4.09 -1.51 -4.09 -0.32 0 -1.63 1.63 -2.18 2.74 -0.81 1.63 -1.30 3.44 -1.30 4.97 0 1.32 -0.02 1.35 -0.65 1.35 -0.60 0 -0.63 0.05 -0.56 0.93 0.09 0.88 0.07 0.93 -0.53 0.93 -0.35 0 -1.46 -0.42 -2.46 -0.91 -1.04 -0.53 -2.32 -0.98 -3.04 -1.07 -1.14 -0.14 -4.04 0.16 -4.32 0.46 -0.23 0.23 0.53 1.37 1.90 2.74 0.93 0.95 1.86 1.60 3.02 2.14 2.37 1.09 2.60 1.11 6.94 0.67z m-123.04 -0.98 c0.86 -0.39 2.11 -1.25 2.81 -1.90 1.32 -1.25 2.62 -2.95 2.41 -3.16 -0.07 -0.07 -0.81 -0.23 -1.65 -0.35 -2 -0.30 -3.74 0 -5.85 1.07 -0.88 0.44 -1.90 0.81 -2.25 0.81 -0.58 0 -0.65 -0.07 -0.65 -0.81 0 -0.70 -0.07 -0.81 -0.53 -0.81 -0.49 0 -0.53 -0.16 -0.79 -2.02 -0.32 -2.39 -1.63 -5.27 -2.92 -6.52 l-0.79 -0.77 -0.60 1.63 c-0.91 2.41 -1.18 4.32 -0.88 5.97 0.35 1.79 1.35 3.90 2.53 5.27 0.53 0.63 0.98 1.35 0.98 1.63 0 0.46 0.09 0.51 1 0.44 0.53 -0.05 1.23 0.02 1.56 0.16 0.32 0.14 1.37 0.21 2.34 0.19 1.37 -0.07 2.09 -0.23 3.30 -0.81z m116.42 -8.40 c0.56 -0.26 1.32 -0.46 1.69 -0.46 0.51 0 0.67 -0.12 0.67 -0.46 0 -0.26 0.30 -0.91 0.70 -1.42 0.84 -1.16 1.56 -3.02 1.76 -4.55 0.26 -1.93 -0.74 -4.94 -2.48 -7.57 l-0.74 -1.11 -0.42 0.65 c-1.35 2.02 -1.95 4.94 -1.46 7.20 0.19 0.86 0.32 1.86 0.32 2.21 0 0.56 -0.09 0.65 -0.70 0.65 -0.46 0 -0.70 0.12 -0.70 0.35 0 0.49 -1.23 0.44 -2.83 -0.12 -2.02 -0.72 -3.60 -0.81 -5.62 -0.37 -0.98 0.23 -1.76 0.51 -1.76 0.67 0 0.51 2.76 2.92 4.20 3.67 2.81 1.44 5.15 1.65 7.36 0.67z m-111.01 -0.23 c0.74 -0.26 1.90 -0.84 2.53 -1.25 1.39 -0.93 3.67 -3.18 3.44 -3.41 -0.37 -0.32 -2.44 -0.67 -3.97 -0.67 -1.53 0 -3.88 0.51 -4.32 0.95 -0.14 0.12 -0.63 0.21 -1.11 0.21 -0.72 0 -0.88 -0.09 -0.88 -0.46 0 -0.37 -0.16 -0.46 -0.72 -0.46 -0.72 0 -0.74 0 -0.60 -0.98 0.07 -0.56 0.23 -1.58 0.37 -2.32 0.28 -1.65 -0.14 -3.88 -1.16 -5.97 l-0.74 -1.49 -1 1.58 c-1.79 2.79 -2.65 5.76 -2.21 7.80 0.32 1.46 0.79 2.60 1.65 3.95 0.39 0.58 0.70 1.28 0.70 1.56 0 0.44 0.14 0.51 0.88 0.51 0.46 0.02 1.44 0.21 2.14 0.46 1.65 0.58 3.30 0.58 5.01 0z m107.67 -8.29 c-0.23 -1.30 -0.93 -3.23 -1.56 -4.32 -0.93 -1.58 -3.20 -3.58 -5.08 -4.46 -1.79 -0.84 -3.60 -1.35 -3.78 -1.04 -0.19 0.30 0.56 2.86 1.30 4.34 1.60 3.32 5.62 6.29 8.52 6.34 0.77 0 0.77 0 0.60 -0.86z m-106 -0.58 c2.76 -1.37 5.18 -4.43 6.18 -7.82 0.63 -2.18 0.56 -2.23 -2.07 -1.30 -3.99 1.42 -7.01 4.57 -7.87 8.24 -0.21 0.84 -0.37 1.63 -0.37 1.76 0 0.44 2.53 -0.09 4.13 -0.88z m28.41 -2.46 l0.84 -0.39 -1.49 -3.37 c-1.07 -2.41 -1.49 -3.62 -1.49 -4.34 l0 -1 1.23 0 1.21 0 2.14 2.86 c1.18 1.56 2.34 3.09 2.58 3.39 l0.44 0.56 1.07 -0.42 1.09 -0.42 -0.77 -0.95 c-0.39 -0.51 -1.72 -2.11 -2.88 -3.58 -2.30 -2.79 -2.55 -3.41 -1.81 -4.69 0.49 -0.88 0.42 -1.67 -0.35 -3.62 -1.28 -3.20 -2.79 -4.74 -4.67 -4.74 -0.70 0 -5.87 1.90 -6.31 2.32 -0.12 0.09 1.44 4.04 3.46 8.73 2 4.71 3.78 8.91 3.97 9.33 0.35 0.84 0.53 0.88 1.74 0.32z m47.26 -1.14 c0.46 -0.37 1.14 -1.21 1.49 -1.83 0.77 -1.37 1.95 -4.41 2.16 -5.48 0.23 -1.16 -0.46 -2.65 -1.58 -3.46 -0.79 -0.58 -1.14 -0.67 -2.41 -0.67 l-1.46 0 0 -0.74 c0.02 -0.95 1.21 -3.78 1.88 -4.53 0.44 -0.44 0.77 -0.53 1.86 -0.53 1.60 0 1.83 0.26 1.83 2.09 0 1.07 0.07 1.18 0.63 1.42 1.32 0.49 1.56 0.39 1.83 -0.72 0.16 -0.72 0.19 -1.28 0.02 -1.74 -0.58 -1.79 -2.48 -3.27 -4.48 -3.51 -1.53 -0.19 -2.95 0.58 -3.97 2.07 -0.79 1.16 -2.88 6.31 -4.48 11.05 -1.11 3.27 -1.09 3.81 0.28 5.46 1.67 2.04 4.62 2.55 6.41 1.14z m-9.82 -12.35 c1.09 -5.43 1.90 -9.94 1.81 -10.03 -0.37 -0.35 -1.37 -0.30 -1.95 0.09 -0.81 0.56 -1.97 0.86 -3.13 0.86 -1 0 -1.25 0.23 -1.25 1.16 0 0.42 0.93 0.70 2.39 0.70 0.56 0 0.63 0.09 0.63 0.77 0 0.42 -0.63 3.88 -1.37 7.71 -1.81 9.17 -1.79 8.26 -0.37 8.59 0.65 0.14 1.18 0.19 1.21 0.12 0.02 -0.07 0.95 -4.55 2.04 -9.96z m-22.24 9.17 c0.02 -0.02 0.09 -1.39 0.19 -3.04 0.07 -1.67 0.19 -3.88 0.26 -4.92 l0.14 -1.93 0.79 0 c0.70 0 0.79 0.09 1 0.88 0.14 0.46 0.67 2.58 1.18 4.69 l0.98 3.83 1.35 -0.07 1.35 -0.09 0.14 -1.88 c0.19 -2.53 0.84 -19.06 0.77 -19.13 -0.05 -0.02 -0.65 0.02 -1.39 0.09 l-1.32 0.14 0 5.76 0 5.78 -0.81 0 c-0.65 0 -0.84 -0.09 -0.91 -0.51 -0.37 -1.67 -2.53 -10.54 -2.60 -10.61 -0.02 -0.05 -0.58 0.02 -1.18 0.12 l-1.11 0.21 -0.07 5.53 -0.05 5.50 -0.88 0 -0.86 0 -1.14 -5.22 -1.16 -5.22 -0.93 0 c-0.53 0 -1.09 0.09 -1.25 0.21 -0.32 0.21 -0.21 0.74 2.76 12.21 0.91 3.46 1.74 6.66 1.86 7.15 l0.23 0.86 1.32 -0.14 c0.72 -0.09 1.35 -0.16 1.37 -0.19z m13.77 -0.60 c0.26 -0.26 0.46 -0.67 0.46 -0.93 0 -0.60 -0.79 -1.39 -1.39 -1.39 -0.51 0 -1.63 0.95 -1.63 1.39 0 0.44 1.11 1.39 1.63 1.39 0.26 0 0.67 -0.21 0.93 -0.46z"/>
  <path d="M106.97 180.89 c-1.11 -0.35 -1.11 -0.37 -1.11 -1.39 0 -0.56 0.23 -1.74 0.49 -2.65 l0.51 -1.63 1.18 0.09 c0.65 0.07 1.72 0.35 2.39 0.63 1.44 0.63 1.81 1.32 1.65 3.09 -0.16 1.69 -0.88 2.28 -2.69 2.25 -0.72 0 -1.81 -0.19 -2.41 -0.39z"/>
  <path d="M108.88 174.01 c-0.72 -0.26 -0.81 -0.39 -0.88 -1.21 -0.02 -0.49 0.14 -1.53 0.39 -2.30 l0.44 -1.39 1.02 -0.07 c1.37 -0.09 3.23 0.60 3.62 1.35 0.39 0.77 0.21 2.92 -0.32 3.51 -0.32 0.35 -0.70 0.44 -1.93 0.42 -0.84 0 -1.90 -0.14 -2.34 -0.30z"/>
  <path d="M127.56 165.84 c-4.81 -0.74 -10.82 -2.62 -14.16 -4.46 -1.09 -0.58 -1.16 -0.70 -1.16 -1.53 l0 -0.91 1.63 -0.58 c1.30 -0.46 2.23 -0.60 4.69 -0.67 3.48 -0.14 4.55 0.09 8.77 1.90 4.78 2.04 7.92 2.23 12.09 0.74 1.25 -0.44 3.30 -1.21 4.50 -1.72 l2.21 -0.88 3.60 0 c3.23 0 3.76 0.07 5.22 0.58 1.58 0.56 1.63 0.60 1.69 1.42 l0.07 0.86 -2.16 1.04 c-4.25 2.04 -8.13 3.27 -13.02 4.11 -3.34 0.56 -10.63 0.60 -13.98 0.09z"/>
  <path d="M130.46 159.57 c-0.70 -0.19 -2.16 -0.72 -3.25 -1.16 -6.48 -2.72 -9.59 -2.83 -14.74 -0.56 -1.14 0.51 -2.41 0.93 -2.86 0.93 -0.84 0 -3.23 -1.49 -5.27 -3.30 -0.91 -0.79 -1.04 -1.04 -1.04 -1.83 0 -0.91 0 -0.91 0.91 -0.91 1.65 0 4.36 -0.65 6.55 -1.58 3.16 -1.35 4.46 -1.69 6.94 -1.83 3.11 -0.19 5.15 0.21 8.87 1.69 3.85 1.51 5.55 1.95 7.85 1.95 2.30 0 4.06 -0.44 7.87 -1.97 1.74 -0.67 3.83 -1.37 4.67 -1.49 3.60 -0.58 7.01 -0.14 10.45 1.37 2.72 1.18 4.13 1.58 6.29 1.76 l1.83 0.16 0 0.79 c0 0.91 -0.49 1.39 -3.67 3.74 -2.39 1.72 -2.76 1.76 -5.25 0.60 -4.99 -2.30 -8.50 -2.25 -14.42 0.26 -1.39 0.58 -3.18 1.23 -3.95 1.39 -1.81 0.44 -6.11 0.42 -7.78 -0.02z"/>
  <path d="M130.77 151.36 c-0.53 -0.12 -2.41 -0.77 -4.18 -1.46 -4.53 -1.76 -5.15 -1.90 -8.08 -1.88 -2.83 0.02 -3.41 0.19 -8.01 2.09 -2.60 1.09 -2.74 1.11 -5.46 1.21 -1.53 0.05 -3.37 0 -4.06 -0.12 -1.18 -0.19 -1.32 -0.28 -2.48 -1.69 -1.65 -2.07 -2.86 -4.27 -2.86 -5.29 l0 -0.81 1.11 0.14 c0.60 0.09 1.83 0.30 2.72 0.49 3.30 0.72 5.80 0.32 10.10 -1.60 3.25 -1.44 4.64 -1.74 8.13 -1.74 3.51 0 4.76 0.28 9.01 1.95 3.90 1.56 5.41 1.86 8.36 1.72 2.37 -0.12 3.76 -0.53 9.10 -2.65 2.11 -0.84 2.34 -0.88 5.53 -0.98 4.18 -0.12 5.39 0.09 9.19 1.74 4.46 1.90 7.17 2.32 10.24 1.58 0.77 -0.19 1.88 -0.32 2.51 -0.35 l1.09 0 0 0.88 c0 0.67 -0.30 1.35 -1.37 2.95 -0.74 1.16 -1.67 2.46 -2.07 2.90 l-0.70 0.81 -3.78 0 -3.81 0 -3.51 -1.44 c-6.27 -2.55 -8.61 -2.58 -14.74 -0.09 -1.60 0.65 -3.60 1.32 -4.41 1.53 -1.60 0.37 -5.90 0.44 -7.57 0.12z"/>
  <path d="M88.45 126.08 l0 -7.87 4.83 -2.74 c12.93 -7.34 13.26 -7.52 14.02 -7.52 0.53 0 1.60 0.49 3.32 1.49 2.51 1.44 2.55 1.49 2.62 2.37 l0.07 0.91 -2.92 1.74 c-1.60 0.95 -2.90 1.81 -2.90 1.88 0 0.09 0.14 0.28 0.32 0.42 0.26 0.21 0.70 0.05 2.09 -0.79 1.30 -0.77 2.02 -1.04 2.69 -1.04 l0.93 0 0 9.52 0 9.52 -1.37 0 -1.35 0 -0.12 -2.72 c-0.14 -3.06 -0.51 -4.16 -1.81 -5.25 -1.56 -1.32 -3.32 -1.32 -4.90 0 -1.30 1.09 -1.67 2.21 -1.79 5.25 l-0.09 2.72 -6.82 0 -6.82 0 0 -7.87z"/>
  <path d="M103.61 133.60 c-0.07 -0.21 -0.07 -1.63 -0.02 -3.18 l0.09 -2.81 0.74 -0.65 c0.63 -0.56 0.95 -0.67 1.93 -0.67 1.21 0 1.97 0.28 2.46 0.91 0.19 0.26 0.28 1.42 0.30 3.58 l0 3.18 -2.67 0 c-2.21 0 -2.72 -0.07 -2.83 -0.35z"/>
  <path d="M115.03 133.71 c-0.09 -0.14 -0.12 -4.85 -0.07 -10.47 0.05 -8.77 0.12 -10.26 0.42 -10.52 0.19 -0.19 4.29 -2.74 9.12 -5.69 7.41 -4.53 8.94 -5.36 9.68 -5.36 0.65 0 1.39 0.32 2.92 1.25 1.14 0.67 5.27 3.20 9.22 5.59 l7.13 4.34 -0.05 10.47 -0.07 10.49 -6.50 0 -6.50 0 -0.12 -3.71 c-0.14 -4.22 -0.42 -5.18 -1.97 -6.69 -3.11 -3.02 -7.57 -2.02 -9.49 2.14 -0.42 0.91 -0.51 1.65 -0.60 4.67 l-0.12 3.60 -6.43 0.07 c-4.22 0.02 -6.48 -0.02 -6.57 -0.19z"/>
  <path d="M129.70 133.81 c-0.23 -0.26 -0.19 -6.57 0.07 -7.61 0.23 -1.04 0.79 -1.88 1.72 -2.55 0.53 -0.42 0.98 -0.49 2.76 -0.49 1.86 0 2.23 0.07 2.90 0.53 1.42 1.02 1.56 1.56 1.56 6.08 l0 4.06 -4.43 0.07 c-2.41 0.02 -4.48 -0.02 -4.57 -0.09z"/>
  <path d="M154.98 133.74 c-0.09 -0.12 -0.14 -4.41 -0.12 -9.52 l0.05 -9.31 0.93 0 c0.67 0 1.37 0.28 2.67 1.07 1.60 0.98 1.76 1.02 2.11 0.67 0.44 -0.42 0.74 -0.19 -2.83 -2.34 l-2.51 -1.53 0.07 -0.95 c0.07 -0.95 0.09 -0.98 2.51 -2.41 1.49 -0.88 2.72 -1.46 3.11 -1.46 0.60 0 5.83 2.69 10.59 5.46 0.70 0.39 2.92 1.65 4.94 2.79 l3.64 2.07 0 7.85 0 7.85 -6.96 0 -6.96 0 0 -2.39 c0 -3.69 -0.60 -5.08 -2.72 -6.11 -1.46 -0.72 -2.34 -0.65 -3.71 0.35 -1.44 1.04 -1.79 2 -1.93 5.25 l-0.12 2.79 -1.32 0.07 c-0.72 0.05 -1.37 -0.02 -1.44 -0.16z"/>
  <path d="M159.25 130.81 l0 -3.18 0.67 -0.67 c0.58 -0.56 0.88 -0.67 1.86 -0.67 2.65 0 3.09 0.67 2.99 4.71 l-0.07 2.83 -2.72 0.07 -2.74 0.07 0 -3.16z"/>
  <path d="M107.74 54.11 c-0.86 -1.58 -1.88 -4.43 -1.88 -5.20 0 -0.79 0.09 -0.93 0.81 -1.23 0.95 -0.39 2.28 -0.42 2.92 -0.07 0.84 0.44 1.83 2.92 1.83 4.53 0 1.30 -0.05 1.46 -0.63 1.86 -0.35 0.21 -1.11 0.44 -1.72 0.51 -0.93 0.09 -1.14 0.02 -1.35 -0.39z"/>
  <path d="M154.61 62.68 c-0.67 -0.67 -0.60 -2.28 0.21 -4.60 1.07 -3.04 1.14 -3.09 3.11 -3.02 1.58 0.07 1.67 0.09 1.88 0.72 0.42 1.14 -0.91 5.71 -1.97 6.85 -0.63 0.70 -2.55 0.72 -3.23 0.05z"/>
 </g>
 <g fill="#010101">
  <path d="M128.49 215.03 c-5.97 -0.49 -8.84 -0.88 -14 -1.95 -18.94 -3.95 -37.10 -14.30 -50.54 -28.90 -14.04 -15.25 -22.42 -33.36 -25.12 -54.30 -0.65 -5.08 -0.58 -17.67 0.12 -22.87 2.55 -18.87 9.10 -34.40 20.61 -48.94 3.09 -3.92 10.54 -11.42 14.44 -14.53 12.51 -9.98 26.26 -16.46 41.48 -19.52 12.12 -2.44 23.89 -2.55 35.98 -0.35 21.54 3.92 40.49 14.65 54.99 31.11 5.71 6.48 9.77 12.51 13.72 20.38 5.20 10.42 8.26 20.64 9.77 32.55 0.49 3.97 0.70 14.25 0.35 18.41 -2.46 29.81 -18.01 56.41 -42.51 72.75 -14.28 9.52 -29.48 14.74 -46.87 16.09 -2.86 0.21 -10.19 0.26 -12.44 0.07z m16.60 -2.74 c17.94 -2.21 33.96 -8.94 48.12 -20.27 3.51 -2.79 9.73 -8.84 12.58 -12.23 13.09 -15.53 20.59 -33.89 22.19 -54.32 0.30 -3.83 0.16 -13.51 -0.26 -16.83 -1.93 -15.74 -6.73 -29.09 -15.02 -41.88 -10.17 -15.62 -26.05 -28.69 -43.02 -35.40 -11.84 -4.69 -22.70 -6.80 -35.05 -6.85 -6.06 -0.02 -9.45 0.23 -15.32 1.18 -20.48 3.25 -39.84 13.74 -53.95 29.20 -16.09 17.62 -24.75 39.97 -24.75 63.84 0 10.63 1.53 20.06 4.85 30.04 7.92 23.66 25.35 43.48 47.96 54.58 10.61 5.20 20.78 8.03 33.20 9.29 3.25 0.32 14.81 0.12 18.46 -0.35z"/>
  <path d="M129.02 210.76 c-16.02 -0.95 -31.73 -6.24 -44.99 -15.14 -7.10 -4.76 -13.07 -9.91 -18.18 -15.72 -18.94 -21.45 -26.86 -49.56 -21.84 -77.54 2.81 -15.67 9.73 -30.55 19.94 -42.88 2.83 -3.44 9.17 -9.70 12.54 -12.42 13.91 -11.19 29.88 -17.92 47.47 -20.06 5.29 -0.65 16.25 -0.60 21.47 0.12 11.31 1.51 19.78 4.06 29.71 8.96 22.24 10.98 38.79 30.27 46.61 54.32 7.41 22.75 5.57 47.64 -5.11 69.18 -13.70 27.69 -40.37 46.71 -70.97 50.61 -5.64 0.72 -11.10 0.91 -16.67 0.56z m12.35 -5.08 c3.88 -0.37 9.75 -1.30 12.91 -2.09 12.44 -3.04 24.21 -8.84 34.33 -16.85 3.30 -2.62 10.82 -10.17 13.35 -13.39 6.64 -8.50 11.19 -16.76 14.46 -26.33 5.18 -15.02 6.11 -30.46 2.83 -46.36 -4.27 -20.68 -16.85 -40.14 -34.10 -52.72 -11.38 -8.26 -24.86 -13.74 -38.91 -15.76 -6.20 -0.91 -15.27 -1.07 -21.01 -0.37 -15.62 1.86 -30.04 7.57 -42.53 16.85 -6.43 4.78 -12.68 10.98 -17.29 17.16 -9.91 13.30 -15.37 27 -17.41 43.76 -0.39 3.27 -0.39 15.37 0 18.57 1.35 10.91 4.06 20.08 8.66 29.27 4.36 8.73 9.45 15.74 16.69 22.96 5.71 5.71 10.33 9.33 17.06 13.35 3.09 1.86 8.94 4.81 11.72 5.92 5.18 2.09 12.88 4.25 18.11 5.11 6.89 1.09 15.11 1.46 21.13 0.93z"/>
  <path d="M133.71 195.81 l0 -3.62 2.39 0.07 c2.34 0.07 2.37 0.07 2.37 0.65 0 0.56 -0.07 0.58 -1.56 0.65 -1.58 0.07 -1.58 0.07 -1.58 0.74 0 0.70 0.02 0.70 1.28 0.70 1.25 0 1.28 0 1.28 0.67 0 0.67 -0.05 0.70 -1.21 0.77 -1.14 0.07 -1.23 0.12 -1.30 0.70 -0.07 0.63 -0.07 0.63 1.51 0.70 l1.58 0.07 0 0.70 0 0.70 -2.37 0.07 -2.39 0.07 0 -3.62z"/>
  <path d="M127.77 197.86 c0.07 -0.74 0.19 -2.04 0.26 -2.90 l0.16 -1.58 -0.98 0 c-0.98 0 -0.98 0 -0.84 -0.74 0.07 -0.39 0.16 -0.74 0.21 -0.77 0.02 -0.02 1.16 0.07 2.55 0.19 l2.48 0.23 0 0.77 c0 0.74 -0.02 0.77 -0.86 0.72 l-0.88 -0.05 -0.26 2.67 c-0.16 1.46 -0.28 2.69 -0.30 2.74 -0.02 0.02 -0.39 0.05 -0.86 0.05 l-0.84 0 0.14 -1.32z"/>
  <path d="M140.66 195.77 c-0.19 -1.76 -0.32 -3.30 -0.32 -3.44 0 -0.12 0.37 -0.26 0.81 -0.30 0.79 -0.07 0.88 0 2.07 1.69 0.67 0.98 1.28 1.72 1.32 1.67 0.07 -0.05 -0.02 -0.86 -0.16 -1.79 -0.30 -1.81 -0.19 -2.09 0.86 -2.09 0.42 0 0.49 0.26 0.88 3.39 0.21 1.86 0.35 3.44 0.30 3.48 -0.05 0.05 -0.39 0.14 -0.77 0.23 -0.63 0.12 -0.77 0.02 -1.72 -1.39 -1.39 -2.04 -1.72 -2.02 -1.51 0.09 l0.16 1.63 -0.79 0 -0.81 0 -0.32 -3.18z"/>
  <path d="M121.81 198.32 c-0.07 -0.09 0.12 -1.69 0.39 -3.55 l0.51 -3.37 0.67 0.07 c0.39 0.05 0.77 0.14 0.84 0.23 0.09 0.09 -0.07 1.63 -0.35 3.41 l-0.51 3.25 -0.72 0.07 c-0.39 0.05 -0.77 -0.02 -0.84 -0.12z"/>
  <path d="M117.19 197.55 c-2.28 -0.51 -2.51 -0.60 -2.51 -1.04 0 -0.21 0.32 -1.72 0.72 -3.37 0.65 -2.72 0.77 -3.02 1.21 -3.02 1.11 0 1.16 0.23 0.53 2.74 -0.32 1.28 -0.60 2.48 -0.60 2.69 0 0.23 0.42 0.44 1.39 0.63 1.30 0.26 1.39 0.30 1.39 0.93 0 0.35 -0.07 0.70 -0.16 0.74 -0.12 0.05 -1 -0.09 -1.97 -0.30z"/>
  <path d="M149.76 196.97 c-0.91 -0.79 -1.51 -2.58 -1.35 -4.13 0.14 -1.63 1.07 -2.48 2.69 -2.48 1.86 0 3.06 1.30 1.76 1.90 -0.49 0.21 -0.65 0.19 -1.04 -0.16 -0.37 -0.35 -0.60 -0.39 -1.11 -0.21 -0.79 0.28 -0.91 1.04 -0.42 2.74 0.42 1.39 0.84 1.69 1.86 1.32 0.84 -0.32 0.81 -1.14 -0.02 -1.23 -0.51 -0.05 -0.67 -0.21 -0.72 -0.67 -0.07 -0.58 0 -0.63 1.14 -0.77 1.39 -0.19 1.51 -0.09 1.74 1.39 0.16 1.16 -0.12 1.74 -1.16 2.39 -1.09 0.70 -2.46 0.65 -3.37 -0.09z"/>
  <path d="M110.99 195.91 c-0.37 -0.14 -0.51 -0.35 -0.42 -0.67 0.14 -0.53 -0.12 -0.77 -1.23 -1.14 -0.74 -0.26 -0.86 -0.23 -1.23 0.23 -0.35 0.44 -0.46 0.46 -1.09 0.21 -0.39 -0.16 -0.70 -0.35 -0.70 -0.42 0 -0.19 3.88 -5.27 4.22 -5.55 0.21 -0.16 0.53 -0.14 1.07 0.07 l0.74 0.32 0 3.23 c0 4.13 -0.05 4.25 -1.37 3.71z m-0.26 -3.81 c0 -0.91 -0.12 -0.98 -0.74 -0.42 -0.49 0.44 -0.53 0.91 -0.12 1.07 0.67 0.28 0.86 0.14 0.86 -0.65z"/>
  <path d="M156.70 192.47 l0 -3.69 0.67 -0.28 c0.39 -0.14 0.79 -0.21 0.93 -0.14 0.35 0.21 4.20 5.43 4.20 5.69 0 0.12 -0.32 0.30 -0.74 0.37 -0.53 0.14 -0.81 0.07 -1 -0.21 -0.32 -0.44 -0.72 -0.46 -1.72 -0.12 -0.58 0.21 -0.72 0.37 -0.72 0.93 0 0.51 -0.14 0.74 -0.60 0.91 -0.32 0.14 -0.70 0.23 -0.81 0.23 -0.12 0 -0.21 -1.56 -0.21 -3.69z m2.69 -0.07 c0.16 -0.28 -0.58 -1.11 -1 -1.11 -0.30 0 -0.44 1.18 -0.16 1.44 0.16 0.19 1 -0.05 1.16 -0.32z"/>
  <path d="M103.26 193 c-0.51 -0.26 -0.65 -0.51 -0.65 -1.11 0 -1.09 -0.26 -2.23 -0.49 -2.23 -0.12 0 -0.53 0.46 -0.95 1.02 -0.67 0.95 -0.74 1.02 -1.32 0.77 -0.32 -0.14 -0.63 -0.28 -0.67 -0.30 -0.14 -0.09 2.81 -6.13 2.99 -6.13 0.30 0 1.37 0.53 1.37 0.67 0 0.07 -0.21 0.49 -0.49 0.93 -0.26 0.42 -0.44 0.86 -0.39 1 0.05 0.12 0.70 -0.12 1.44 -0.51 1.23 -0.65 1.44 -0.67 2.14 -0.42 0.44 0.16 0.79 0.35 0.79 0.44 0 0.09 -0.67 0.51 -1.51 0.93 l-1.53 0.79 0.14 1.74 c0.07 0.95 0.19 1.97 0.26 2.28 0.12 0.60 -0.21 0.65 -1.11 0.14z"/>
  <path d="M164.40 192.17 c-0.23 -0.53 -0.88 -1.97 -1.42 -3.16 -0.56 -1.21 -0.95 -2.21 -0.91 -2.23 0.02 -0.02 0.35 -0.16 0.72 -0.32 0.63 -0.26 0.65 -0.23 1.14 0.84 0.30 0.60 0.56 1.14 0.58 1.18 0.07 0.09 1.93 -0.70 1.93 -0.81 0 -0.05 -0.23 -0.56 -0.51 -1.14 -0.56 -1.14 -0.44 -1.44 0.49 -1.56 0.49 -0.07 0.70 0.23 1.95 2.90 0.84 1.76 1.32 3.04 1.18 3.16 -0.12 0.12 -0.44 0.28 -0.72 0.35 -0.44 0.14 -0.60 0 -1.11 -1 -0.32 -0.65 -0.70 -1.18 -0.84 -1.18 -0.12 0 -0.56 0.16 -0.93 0.37 -0.51 0.26 -0.67 0.46 -0.56 0.74 0.60 1.46 0.88 2.37 0.81 2.46 -0.07 0.05 -0.39 0.16 -0.74 0.26 -0.56 0.14 -0.65 0.07 -1.07 -0.86z"/>
  <path d="M128.38 186.85 c-2.37 -0.21 -4.60 -0.42 -4.94 -0.42 l-0.67 -0.02 0.16 -1.67 c0.07 -0.93 0.39 -4.55 0.70 -8.01 0.32 -3.48 0.58 -6.38 0.58 -6.45 0 -0.07 0.49 -0.12 1.11 -0.12 1.32 0 9.63 0.70 9.75 0.81 0.05 0.05 0.02 0.79 -0.07 1.63 l-0.19 1.56 -1.42 -0.12 c-0.77 -0.09 -2.39 -0.21 -3.55 -0.30 l-2.16 -0.16 0 0.93 c0 0.51 -0.07 1.25 -0.14 1.65 l-0.14 0.70 1.81 0.16 c3.30 0.26 3.13 0.16 2.95 1.81 -0.07 0.79 -0.16 1.49 -0.21 1.51 -0.02 0.05 -1.09 -0.02 -2.32 -0.16 -1.25 -0.12 -2.32 -0.21 -2.37 -0.16 -0.05 0.05 -0.14 0.88 -0.21 1.86 -0.12 1.60 -0.09 1.76 0.30 1.76 0.23 0 1.86 0.12 3.62 0.28 l3.20 0.26 0 0.86 c0 0.49 -0.07 1.21 -0.14 1.60 -0.19 0.84 0.32 0.81 -5.66 0.23z"/>
  <path d="M144.30 186.53 c-1.86 -0.65 -2.92 -1.86 -3.39 -3.85 -0.37 -1.53 -0.14 -1.76 1.90 -1.97 1.69 -0.16 1.63 -0.21 1.93 1.14 0.07 0.37 0.39 0.93 0.72 1.25 0.49 0.49 0.74 0.56 1.44 0.46 1.23 -0.21 1.79 -0.88 1.72 -2.09 -0.02 -0.56 -0.42 -2.99 -0.88 -5.41 -0.46 -2.41 -0.88 -4.76 -0.95 -5.22 l-0.12 -0.81 1.81 -0.28 c0.98 -0.16 1.83 -0.26 1.88 -0.19 0.21 0.21 2.16 11.19 2.16 12.16 -0.02 2.30 -1.51 4.11 -3.92 4.78 -1.63 0.44 -3.09 0.46 -4.29 0.02z"/>
  <path d="M108.76 183.69 c-1.42 -0.37 -6.85 -2.21 -6.85 -2.32 0 -0.09 0.46 -1.63 1.02 -3.41 0.56 -1.81 1.63 -5.25 2.34 -7.68 0.72 -2.41 1.42 -4.50 1.51 -4.60 0.23 -0.26 5.92 1.51 7.47 2.30 1.58 0.79 2.34 1.90 2.46 3.58 0.14 1.76 -0.53 3.23 -1.76 3.97 -0.46 0.30 -0.88 0.53 -0.93 0.56 -0.05 0.05 0.16 0.46 0.46 0.95 0.95 1.63 0.51 4.43 -0.91 5.71 -1.02 0.93 -3.20 1.35 -4.83 0.95z m1.81 -3.55 c1.32 -1.04 0.98 -2.72 -0.72 -3.44 -2.28 -0.98 -2.25 -1 -2.81 0.84 -0.26 0.91 -0.49 1.76 -0.49 1.95 0 0.37 1.81 1.04 2.81 1.09 0.35 0.02 0.88 -0.19 1.21 -0.44z m1.88 -6.94 c0.49 -0.56 0.58 -1.93 0.16 -2.44 -0.42 -0.49 -2.76 -1.23 -2.99 -0.93 -0.32 0.35 -1.02 2.90 -0.86 3.06 0.30 0.32 1.65 0.70 2.46 0.72 0.56 0.02 0.98 -0.14 1.23 -0.42z"/>
  <path d="M159.60 175.57 c-1.23 -3.81 -2.39 -7.43 -2.60 -8.03 -0.19 -0.63 -0.30 -1.16 -0.28 -1.18 0.26 -0.21 3.34 -1.02 3.48 -0.93 0.16 0.09 2.97 8.54 4.76 14.18 l0.51 1.67 -1.53 0.51 c-0.86 0.28 -1.67 0.56 -1.83 0.60 -0.16 0.07 -1.07 -2.34 -2.51 -6.82z"/>
  <path d="M179.26 173.41 c-0.81 -0.74 -0.63 -1.23 0.91 -2.46 0.79 -0.63 1.63 -1.30 1.88 -1.51 0.44 -0.35 0.44 -0.37 -0.28 -1.46 -2.72 -3.99 -2.39 -9.22 0.84 -13.63 1.28 -1.74 1.72 -1.74 2.81 0.09 1.51 2.51 2.16 6.71 1.44 9.29 -0.14 0.49 -0.21 0.98 -0.16 1.11 0.05 0.12 0.84 -0.63 1.74 -1.67 l1.67 -1.88 -0.79 -0.98 c-1.46 -1.81 -2.44 -4.67 -2.44 -7.20 0 -2.32 1.21 -5.99 2.34 -7.13 0.63 -0.63 1.09 -0.32 2.25 1.42 1.51 2.25 1.95 3.69 2.11 6.71 l0.14 2.67 1.49 -2.25 1.49 -2.28 -1 -0.84 c-2.62 -2.25 -3.99 -6.20 -3.46 -10.03 0.28 -2 0.98 -3.97 1.56 -4.50 0.37 -0.35 0.46 -0.35 1.11 0.05 0.98 0.58 3.02 3.37 3.58 4.83 0.58 1.53 1 4.11 0.81 4.99 -0.35 1.53 0.46 0.21 1.88 -3.11 l0.77 -1.79 -0.98 -0.58 c-2.02 -1.16 -3.97 -3.74 -4.67 -6.15 -0.67 -2.32 -0.39 -7.45 0.46 -8.15 0.46 -0.39 1.81 0.35 3.34 1.83 1.51 1.51 2.58 3.27 3.13 5.25 0.72 2.51 0.70 2.51 1.37 -0.26 0.32 -1.42 0.60 -2.67 0.60 -2.81 0 -0.14 -0.67 -0.58 -1.51 -0.98 -3.85 -1.79 -6.38 -5.90 -6.38 -10.35 0 -2.07 0.16 -2.44 0.98 -2.44 2.07 0 5.73 3.06 7.03 5.85 0.49 1.04 0.84 1.56 0.91 1.35 0.07 -0.19 0.16 -1.39 0.19 -2.67 l0.07 -2.30 -1.04 -0.19 c-1.63 -0.28 -3.88 -1.51 -5.22 -2.86 -1.97 -1.97 -3.53 -5.64 -3.32 -7.82 0.07 -0.77 0.07 -0.77 1.28 -0.74 1.51 0.05 4.20 1.28 5.64 2.55 0.56 0.51 1.42 1.53 1.90 2.28 1 1.56 1 1.56 0.58 -1.95 l-0.28 -2.21 -1.49 -0.16 c-2.81 -0.30 -4.92 -1.37 -6.87 -3.46 -1.23 -1.32 -2.67 -4.18 -2.83 -5.64 -0.12 -0.91 -0.07 -1.04 0.39 -1.18 0.65 -0.21 2.83 0.05 4.18 0.51 1.37 0.46 4.02 2.23 4.76 3.16 0.56 0.74 0.58 0.74 0.56 0.16 0 -0.32 -0.23 -1.42 -0.51 -2.44 l-0.51 -1.86 -1.79 0.07 c-4.55 0.21 -8.52 -2.53 -10.21 -7.01 -0.44 -1.11 -0.44 -1.18 -0.02 -1.49 0.60 -0.46 4.22 -0.23 5.94 0.37 0.72 0.26 1.93 0.91 2.65 1.42 0.72 0.51 1.37 0.91 1.42 0.86 0.05 -0.05 -0.32 -1.07 -0.84 -2.28 -0.86 -2.09 -0.93 -2.16 -1.58 -2.09 -0.37 0.05 -1.81 0.09 -3.23 0.12 -2.48 0.02 -2.60 0 -4.29 -0.79 -1.07 -0.49 -2.21 -1.28 -2.95 -2 -1.32 -1.28 -2.62 -3.18 -2.62 -3.81 0 -0.67 1.49 -1 4.43 -1.02 2.67 0 2.69 0 4.55 0.93 1.04 0.51 1.86 0.88 1.83 0.81 -0.26 -0.49 -2.51 -4.18 -2.55 -4.18 -0.05 0 -0.56 0.21 -1.14 0.46 -3.53 1.56 -8.45 0.35 -11.70 -2.90 -1.49 -1.49 -2.02 -2.55 -1.44 -2.92 0.19 -0.12 1.09 -0.37 2.04 -0.58 2.14 -0.49 4.92 -0.35 6.85 0.35 0.77 0.26 1.42 0.44 1.46 0.39 0.05 -0.05 -0.30 -0.51 -0.79 -1 -0.74 -0.79 -1.07 -0.95 -2.11 -1.07 -2.99 -0.35 -6.64 -3.13 -8.13 -6.20 -1.30 -2.67 -1.83 -5.66 -1.07 -5.97 0.65 -0.26 3.13 0.35 4.90 1.21 3.53 1.67 5.97 4.88 6.62 8.73 0.26 1.49 0.44 1.90 1.21 2.79 0.49 0.56 0.84 0.84 0.77 0.63 -0.39 -1.09 -0.65 -3.46 -0.51 -4.60 0.30 -2.58 1.93 -6.27 2.76 -6.27 0.84 0 3.09 3.90 3.76 6.50 0.70 2.79 0.09 6.31 -1.49 8.50 l-0.65 0.91 1.04 1.79 c0.58 0.98 1.14 1.79 1.25 1.81 0.09 0 0.16 -0.60 0.16 -1.35 0 -1.63 0.49 -3.41 1.44 -5.22 0.81 -1.49 2.55 -3.25 3.06 -3.04 0.79 0.30 2.23 4.97 2.23 7.24 0 2.60 -1.11 5.64 -2.76 7.50 l-0.91 1.04 0.81 1.90 c0.46 1.07 0.86 1.88 0.91 1.83 0.05 -0.05 0.19 -0.65 0.32 -1.35 0.35 -1.93 1.72 -4.46 3.30 -6.15 1.72 -1.83 2.18 -1.88 2.79 -0.28 0.21 0.60 0.53 1.97 0.70 3.06 0.58 4.09 -0.60 7.71 -3.34 10.24 l-1.42 1.32 0.53 2.25 0.56 2.23 0.28 -0.98 c0.81 -2.76 3.39 -6.04 5.71 -7.27 1.30 -0.67 1.49 -0.58 1.81 1.14 0.53 2.88 0.12 6.31 -1.07 8.66 -0.79 1.58 -2.69 3.55 -4.22 4.43 l-1.23 0.70 0.14 1.53 c0.07 0.84 0.19 1.88 0.26 2.32 l0.14 0.81 0.44 -1 c1.23 -2.76 5.78 -6.71 7.47 -6.48 0.44 0.07 0.53 0.26 0.67 1.35 0.39 2.88 -0.35 6.62 -1.69 8.66 -1.25 1.90 -3.90 3.76 -5.94 4.22 -0.63 0.12 -0.77 0.28 -0.79 0.77 0 0.35 -0.09 1.44 -0.16 2.44 -0.09 0.98 -0.09 1.79 -0.02 1.79 0.09 0 0.39 -0.35 0.67 -0.79 1.28 -2.07 4.83 -4.41 7.52 -4.97 1.72 -0.35 1.83 -0.23 1.65 1.44 -0.28 2.65 -1.39 5.39 -2.99 7.38 -1.46 1.86 -4.67 3.44 -7.01 3.44 -0.84 0 -1.02 0.07 -1.02 0.42 0 0.35 -0.49 2.32 -1.11 4.57 -0.09 0.32 0.26 0.12 1.14 -0.65 2.18 -1.93 5.39 -3.18 8.15 -3.18 1.65 0 1.79 0.21 1.23 1.90 -1.86 5.64 -6.15 8.89 -11.21 8.47 -1.46 -0.12 -1.49 -0.12 -1.72 0.56 -0.14 0.37 -0.65 1.53 -1.14 2.55 l-0.91 1.88 0.74 -0.51 c2.37 -1.58 5.53 -2.44 8.19 -2.25 2.21 0.16 2.51 0.30 2.32 1.07 -0.28 1.09 -1.81 3.37 -3.27 4.85 -2.86 2.88 -6.27 3.67 -10.47 2.46 -0.44 -0.12 -0.70 0.14 -1.86 1.93 -1.69 2.58 -1.67 2.51 -0.63 1.97 1.60 -0.81 3.37 -1.21 5.36 -1.21 2.21 0 4.92 0.58 5.11 1.11 0.32 0.79 -1.58 3.27 -3.71 4.83 -2.97 2.21 -7.38 2.58 -10.59 0.93 l-0.79 -0.42 -1.42 1.58 c-2.25 2.48 -2.23 2.46 -0.79 2.02 1.69 -0.53 5.04 -0.51 6.69 0.02 1.76 0.56 3.32 1.35 3.44 1.74 0.19 0.56 -2.72 3.02 -4.81 4.04 -1.88 0.93 -2.04 0.98 -4.18 0.98 -2.48 0 -3.88 -0.37 -5.71 -1.53 l-1.09 -0.70 -1.28 1.11 c-0.72 0.60 -1.63 1.39 -2.02 1.74 -0.88 0.77 -0.86 0.77 -1.49 0.19z m14.07 -3.13 c1.42 -0.65 3.30 -1.90 3.30 -2.18 0 -0.12 -0.67 -0.39 -1.51 -0.60 -1.30 -0.37 -1.74 -0.37 -3.16 -0.14 -1.67 0.28 -4.94 1.49 -5.22 1.93 -0.21 0.35 0.14 0.60 1.56 1.11 1.76 0.63 3.53 0.60 5.04 -0.12z m-8.80 -5.39 c0.77 -1.95 1.02 -3.85 0.72 -5.36 -0.35 -1.65 -1.14 -3.58 -1.42 -3.39 -0.37 0.21 -1.42 2.46 -1.74 3.69 -0.60 2.18 -0.35 4.20 0.77 6.11 0.56 0.95 0.60 1 0.91 0.56 0.16 -0.23 0.51 -0.98 0.77 -1.60z m16.16 -3.90 c1.42 -0.67 3.74 -2.86 3.39 -3.20 -0.12 -0.12 -1.16 -0.19 -2.41 -0.12 -2.02 0.09 -2.37 0.16 -4.16 1.04 -1.04 0.53 -2.30 1.28 -2.74 1.67 l-0.81 0.67 0.67 0.26 c2 0.79 3.99 0.67 6.06 -0.32z m-9.31 -3.39 c0.60 -2.02 0.67 -3.23 0.28 -4.94 -0.37 -1.53 -1.42 -3.85 -1.76 -3.85 -0.28 0 -0.98 2.39 -1.09 3.85 -0.09 0.95 0 1.83 0.28 2.79 0.42 1.46 1.39 3.34 1.74 3.34 0.12 0 0.37 -0.53 0.56 -1.18z m14.02 -6.41 c1.42 -0.70 3.60 -2.69 4.32 -3.99 l0.44 -0.79 -1.37 0.16 c-2.74 0.30 -5.27 1.58 -7.45 3.78 -0.98 0.98 -1.04 1.09 -0.63 1.25 0.23 0.09 1.09 0.19 1.90 0.19 1.14 0.02 1.76 -0.12 2.79 -0.60z m-8.08 -3.06 c0.42 -2.21 0.14 -3.85 -0.93 -6.04 -0.51 -0.98 -1.11 -1.97 -1.37 -2.21 -0.42 -0.39 -0.44 -0.35 -0.74 0.84 -0.42 1.69 -0.37 3.55 0.12 5.01 0.42 1.23 2.11 3.99 2.46 3.99 0.09 0 0.32 -0.72 0.46 -1.60z m12.14 -8.29 c1.60 -0.84 3.06 -2.25 3.99 -3.92 0.44 -0.79 0.81 -1.56 0.81 -1.72 0 -0.37 -0.98 -0.12 -2.97 0.81 -2.53 1.16 -6.48 5.13 -5.64 5.66 0.44 0.26 2.53 -0.21 3.81 -0.84z m-7.57 -3.41 c-0.46 -2.25 -1.35 -4.04 -2.86 -5.69 l-1.21 -1.32 -0.16 1.11 c-0.39 2.51 0.81 5.71 2.90 7.80 l1.28 1.28 0.19 -0.72 c0.14 -0.49 0.09 -1.28 -0.14 -2.46z m8.29 -7.85 c1.51 -0.56 3.27 -2.07 4.29 -3.67 0.74 -1.16 1.79 -3.90 1.58 -4.13 -0.30 -0.28 -3.18 1.53 -4.48 2.83 -1.76 1.76 -3.74 5.46 -2.88 5.46 0.12 0 0.79 -0.21 1.49 -0.49z m-5.78 -2.48 c-0.21 -0.72 -0.67 -1.83 -1 -2.44 -0.58 -1.09 -2.81 -3.37 -3.81 -3.90 -0.46 -0.26 -0.49 -0.23 -0.35 0.86 0.32 2.76 1.93 5.43 4.18 6.94 1.11 0.77 1.21 0.79 1.28 0.35 0.05 -0.26 -0.09 -1.07 -0.30 -1.81z m7.13 -9.94 c1.35 -1 2.39 -2.46 3.02 -4.20 0.53 -1.51 0.84 -4.25 0.46 -4.25 -0.56 0 -3.71 3.27 -4.41 4.60 -0.74 1.37 -1.44 3.64 -1.44 4.62 0 0.46 0.07 0.51 0.63 0.28 0.32 -0.12 1.11 -0.60 1.74 -1.04z m-6.34 -0.14 c-0.91 -2.30 -2.86 -4.50 -4.90 -5.55 -1.65 -0.84 -1.72 -0.63 -0.53 1.76 0.93 1.88 2.46 3.51 4.16 4.39 1.69 0.91 1.83 0.81 1.28 -0.60z m-0.44 -9.68 c0 -0.46 -1.95 -3.09 -2.97 -3.99 -1.56 -1.39 -4.69 -2.81 -4.69 -2.11 0 0.44 1.46 2.62 2.39 3.58 1.07 1.11 2.39 1.90 3.99 2.41 1.16 0.37 1.28 0.37 1.28 0.12z m5.20 -2.34 c1.90 -2.04 3.04 -5.27 2.72 -7.68 l-0.14 -1.02 -1.21 1.23 c-0.65 0.67 -1.58 1.95 -2.04 2.86 -1.37 2.65 -1.95 6.62 -0.84 6.04 0.21 -0.12 0.88 -0.74 1.51 -1.42z m-7.99 -8.38 c0 -0.58 -2.95 -3.18 -4.41 -3.88 -1.60 -0.79 -3.48 -1.21 -3.48 -0.79 0 0.39 1.72 2.44 2.67 3.16 1.72 1.30 5.22 2.32 5.22 1.51z m4.32 -2.34 c0.35 -0.42 0.95 -1.44 1.35 -2.28 0.65 -1.37 0.72 -1.72 0.72 -3.83 0 -1.28 -0.12 -2.51 -0.26 -2.76 -0.23 -0.37 -0.37 -0.26 -1.23 1.04 -1.58 2.41 -2.23 5.36 -1.74 7.85 0.19 0.91 0.37 0.91 1.16 -0.02z m-8.54 -7.52 c0.05 -0.02 -0.05 -0.28 -0.19 -0.56 -0.39 -0.74 -2.86 -2.46 -4.32 -2.99 -1.30 -0.51 -3.90 -0.67 -4.13 -0.28 -0.21 0.32 2.25 2.46 3.51 3.06 1.76 0.86 4.53 1.28 5.13 0.77z m4.97 -5.53 c0.37 -1.23 0.44 -1.93 0.35 -3.13 -0.14 -1.67 -0.63 -3.32 -0.98 -3.30 -0.39 0 -1.46 2.16 -1.88 3.74 -0.42 1.67 -0.35 2.99 0.28 4.99 l0.42 1.28 0.65 -1 c0.37 -0.53 0.88 -1.69 1.16 -2.58z m-10.70 -3.76 c0.44 -0.26 -0.95 -1.44 -2.74 -2.32 -1.83 -0.91 -3.85 -1.23 -5.53 -0.93 l-0.88 0.16 0.79 0.81 c0.77 0.81 3.48 2.28 4.62 2.48 0.72 0.16 3.41 0 3.74 -0.21z m4.04 -4.60 c0.42 -1.37 0.44 -2.69 0.09 -3.97 -0.32 -1.21 -1.63 -4.06 -1.86 -4.06 -0.37 0 -1 2.48 -1 3.95 0 1.46 0.35 2.88 1.30 5.11 0.44 1 0.46 1.02 0.79 0.58 0.19 -0.26 0.49 -0.98 0.67 -1.60z m-8.10 -4.13 c-0.58 -2.95 -3.32 -5.92 -6.64 -7.17 l-1.21 -0.44 0.16 0.51 c0.46 1.58 1.83 4.02 2.83 5.01 0.98 0.98 4.11 2.83 4.78 2.83 0.12 0 0.16 -0.30 0.07 -0.74z"/>
  <path d="M87.01 171.88 l-2.02 -1.74 -1.23 0.70 c-2 1.11 -3.69 1.49 -6.06 1.35 -1.74 -0.09 -2.30 -0.23 -3.74 -0.93 -1.74 -0.88 -4.78 -3.41 -4.78 -4.04 0 -0.49 2.86 -1.69 4.88 -2.07 1.81 -0.30 4.32 -0.14 5.66 0.37 l0.65 0.23 -0.63 -0.74 c-0.35 -0.42 -1.09 -1.25 -1.65 -1.86 l-1.04 -1.11 -1.79 0.60 c-1.56 0.53 -2.09 0.60 -4.11 0.51 -2.11 -0.07 -2.51 -0.16 -3.97 -0.86 -1.79 -0.88 -4.64 -3.55 -5.18 -4.85 -0.44 -1.04 -0.09 -1.35 1.95 -1.79 2.83 -0.60 5.18 -0.39 7.80 0.67 l1.39 0.56 -0.39 -0.60 c-0.35 -0.53 -2.23 -3.55 -2.30 -3.69 0 -0.02 -0.53 0.09 -1.16 0.28 -3.37 1.02 -7.57 -0.12 -10.14 -2.76 -1.88 -1.93 -3.58 -4.97 -3.06 -5.48 0.14 -0.14 1.07 -0.30 2.09 -0.37 2.88 -0.21 5.94 0.60 8.38 2.23 l0.74 0.49 -1.14 -2.51 -1.14 -2.51 -1.69 0.07 c-4.46 0.16 -7.99 -2.04 -10.05 -6.34 -0.56 -1.14 -1.09 -2.48 -1.16 -2.95 -0.16 -0.79 -0.12 -0.91 0.44 -1.11 1.23 -0.46 5.36 0.49 7.31 1.67 0.46 0.28 1.32 0.98 1.95 1.56 0.60 0.56 1.09 0.93 1.09 0.81 0 -0.12 -0.30 -1.30 -0.67 -2.65 l-0.65 -2.44 -1.37 -0.16 c-2.74 -0.35 -4.69 -1.32 -6.43 -3.18 -1.79 -1.90 -3.18 -5.43 -3.18 -8.01 l0 -1.14 1.32 0.14 c0.88 0.09 1.97 0.46 3.20 1.07 2.16 1.09 3.27 1.95 4.57 3.60 l0.95 1.18 -0.19 -2.44 c-0.09 -1.35 -0.21 -2.51 -0.26 -2.58 -0.05 -0.09 -0.46 -0.23 -0.95 -0.32 -1.35 -0.26 -3.48 -1.44 -4.60 -2.55 -1.97 -1.95 -2.90 -4.64 -2.90 -8.31 0 -3.44 0.39 -3.78 2.72 -2.46 1.86 1.07 4.02 3.18 5.06 4.99 l0.93 1.58 0.28 -2.21 c0.19 -1.49 0.19 -2.21 0.02 -2.28 -0.88 -0.30 -3.27 -2.25 -4.20 -3.39 -1.60 -2 -2.09 -3.41 -2.21 -6.52 -0.05 -1.49 0.02 -3.13 0.19 -3.88 0.23 -1.14 0.35 -1.32 0.79 -1.32 1.14 0 4.04 2.46 5.29 4.53 0.32 0.51 0.84 1.60 1.14 2.41 l0.53 1.51 0.53 -2.16 0.53 -2.14 -1.58 -1.56 c-3.25 -3.16 -4.18 -6.99 -2.92 -12 0.21 -0.77 0.51 -1.63 0.70 -1.93 0.32 -0.49 0.37 -0.49 1 -0.16 1.83 0.93 4.20 4.74 4.76 7.66 0.28 1.46 0.32 1.56 0.56 1.04 1.18 -2.92 1.44 -3.58 1.44 -3.62 0 -0.05 -0.44 -0.56 -0.98 -1.18 -1.93 -2.25 -2.90 -5.29 -2.65 -8.38 0.21 -2.51 1.56 -6.31 2.23 -6.31 0.14 0 0.72 0.44 1.28 0.98 1.53 1.39 2.83 4.13 3.20 6.78 l0.30 2.09 1.07 -1.88 1.07 -1.88 -0.67 -1.02 c-2.60 -3.88 -2.34 -8.61 0.72 -13.32 0.86 -1.30 1.09 -1.51 1.60 -1.44 0.49 0.05 0.74 0.37 1.37 1.58 1.35 2.67 1.72 5.99 0.98 8.61 -0.28 0.93 0 0.84 0.81 -0.32 0.49 -0.70 0.79 -1.49 1 -2.72 0.53 -3.13 2.16 -5.69 4.88 -7.52 1.86 -1.28 4.36 -2.21 5.92 -2.23 l1.09 0 0 1 c0 2.37 -1.67 5.97 -3.74 8.03 -1.49 1.51 -3.76 2.74 -5.46 2.97 -1.39 0.19 -1.97 0.49 -2.76 1.42 -0.63 0.74 -0.65 1.30 -0.07 0.79 1.14 -0.93 5.71 -1.32 8.38 -0.74 2.25 0.51 2.32 1.21 0.35 3.23 -3.34 3.44 -7.38 4.57 -11.44 3.25 -0.84 -0.28 -1.56 -0.46 -1.60 -0.42 -0.39 0.51 -1.58 2.39 -1.95 3.13 l-0.49 0.98 1.56 -0.81 c2.07 -1.04 4.27 -1.39 6.80 -1.07 1.04 0.14 2.04 0.39 2.23 0.60 0.30 0.30 0.28 0.44 -0.14 1.28 -0.77 1.51 -3.09 3.83 -4.67 4.67 -2 1.07 -4.20 1.49 -6.20 1.16 -0.86 -0.14 -1.79 -0.26 -2.02 -0.28 -0.35 -0.05 -0.63 0.39 -1.32 2.04 -0.49 1.16 -0.91 2.23 -0.91 2.41 0 0.16 0.37 -0.02 0.86 -0.44 1.93 -1.69 5.76 -2.83 8.26 -2.46 1 0.16 1.09 0.23 1.09 0.81 0 1.07 -1.39 3.53 -2.76 4.92 -0.79 0.79 -1.93 1.60 -2.92 2.09 -1.53 0.74 -1.74 0.79 -4.11 0.79 -1.39 0 -2.51 0.05 -2.51 0.07 0 0.05 -0.26 1.07 -0.58 2.28 -0.32 1.21 -0.58 2.32 -0.58 2.53 0 0.19 0.49 -0.19 1.07 -0.81 1.90 -2.04 4.25 -3.20 7.22 -3.58 2 -0.26 2.23 0.53 1.02 3.55 -1.53 3.81 -4.83 6.29 -8.82 6.66 l-1.60 0.16 -0.26 2.02 c-0.14 1.09 -0.26 2.37 -0.26 2.81 l0 0.79 0.49 -0.81 c1.53 -2.48 3.81 -4.29 6.41 -5.11 1.83 -0.56 2.60 -0.58 2.79 -0.07 0.28 0.70 -0.39 3.62 -1.21 5.34 -1.56 3.23 -4.27 5.29 -7.87 5.99 l-0.67 0.14 0.16 2.46 c0.09 1.37 0.21 2.55 0.28 2.67 0.07 0.09 0.53 -0.65 1.04 -1.65 1.07 -2.14 3.06 -4.16 5.13 -5.20 2.28 -1.16 2.74 -0.88 2.74 1.72 0 2.95 -1 5.85 -2.72 7.85 -1 1.16 -3.23 2.69 -4.27 2.92 -0.39 0.09 -0.77 0.30 -0.84 0.49 -0.14 0.37 1.07 5.76 1.25 5.57 0.07 -0.07 0.21 -0.63 0.32 -1.23 0.46 -2.58 2.76 -5.99 5.01 -7.47 1.86 -1.23 2.25 -0.95 2.62 1.95 0.60 4.71 -1.21 9.15 -4.60 11.35 l-1.39 0.88 0.65 1.56 c1.69 4.02 2.34 5.13 2 3.48 -0.44 -2.25 1 -6.27 3.11 -8.61 1.83 -2.04 2.41 -2.02 3.23 0.14 0.70 1.88 1 4.55 0.72 6.36 -0.32 2.11 -1.58 4.67 -3.02 6.18 -0.63 0.67 -1.16 1.32 -1.16 1.46 0 0.14 0.60 1.16 1.35 2.30 l1.32 2.07 0.14 -2.67 c0.14 -2.92 0.53 -4.18 1.95 -6.38 0.98 -1.56 1.81 -2.16 2.34 -1.72 0.60 0.49 1.49 2.46 1.97 4.34 0.98 3.81 0.23 7.59 -1.97 10.17 l-0.79 0.93 1.83 1.97 c1.42 1.51 1.76 1.79 1.58 1.25 -0.46 -1.32 -0.53 -4.53 -0.12 -6.15 0.51 -1.97 1.83 -4.76 2.41 -5.08 0.37 -0.19 0.58 -0.14 1.04 0.30 1 0.93 2.21 3.02 2.86 4.94 0.53 1.60 0.60 2.07 0.49 4.02 -0.14 2.60 -0.35 3.39 -1.44 5.20 -0.44 0.74 -0.81 1.37 -0.81 1.42 0 0.02 0.84 0.70 1.86 1.51 1.14 0.88 1.86 1.63 1.86 1.88 0 0.44 -0.77 1.37 -1.09 1.37 -0.12 0 -1.09 -0.79 -2.21 -1.76z m-6.22 -1.86 c0.58 -0.19 1.28 -0.49 1.58 -0.65 0.53 -0.28 0.51 -0.30 -0.93 -1 -3.13 -1.53 -5.53 -1.86 -8.10 -1.09 l-1.25 0.37 0.70 0.56 c1.79 1.42 4.67 2.48 6.15 2.25 0.44 -0.05 1.28 -0.26 1.86 -0.44z m5.69 -5.06 c0.65 -1.56 0.84 -2.90 0.58 -4.29 -0.26 -1.42 -1.69 -4.67 -2.07 -4.67 -0.39 0 -1.23 2.60 -1.35 4.20 -0.14 1.69 0.28 3.48 1.25 5.39 0.56 1.11 0.58 1.14 0.91 0.65 0.19 -0.26 0.49 -0.84 0.67 -1.28z m-12.33 -3.92 l0.91 -0.30 -1.16 -0.86 c-0.65 -0.46 -1.97 -1.23 -2.97 -1.72 -1.46 -0.67 -2.14 -0.86 -3.58 -0.95 -0.98 -0.05 -2.02 0 -2.32 0.14 l-0.58 0.21 1.04 1.04 c2.60 2.60 5.71 3.46 8.66 2.44z m5.18 -4.55 c1 -2.11 0.95 -4.90 -0.09 -7.43 l-0.32 -0.79 -0.49 0.79 c-0.81 1.32 -1.39 3.27 -1.42 4.74 0 1.39 0.39 3.55 0.84 4.39 0.23 0.44 0.23 0.44 0.56 0 0.21 -0.23 0.63 -1 0.93 -1.69z m-11 -5.36 c0.28 -0.23 -2.60 -2.83 -4.06 -3.67 -1.42 -0.81 -3.55 -1.44 -4.90 -1.44 l-0.88 0 0.67 1 c0.91 1.30 2.55 2.79 3.81 3.44 1.76 0.93 4.69 1.30 5.36 0.67z m5.64 -4.55 c0.95 -1.95 1.16 -3.64 0.70 -5.73 l-0.39 -1.79 -0.58 0.67 c-0.91 1.07 -1.88 3.13 -2.21 4.60 -0.21 1.04 -0.21 1.72 0 2.95 0.14 0.88 0.32 1.69 0.42 1.83 0.21 0.32 1.35 -1.07 2.07 -2.53z m-10.59 -6.31 c0 -0.42 -1.58 -2.53 -2.74 -3.69 -1.35 -1.32 -3.97 -2.76 -5.46 -3.02 l-0.91 -0.14 0.74 1.46 c1 1.95 2.55 3.58 4.27 4.41 1.69 0.84 4.09 1.39 4.09 0.98z m5.34 -2.76 c1.18 -1.35 1.74 -2.41 2.21 -4.18 0.37 -1.44 0.46 -3.25 0.16 -3.71 -0.21 -0.32 -1.63 1.02 -2.58 2.41 -1.11 1.63 -2.14 5.41 -1.76 6.55 0.21 0.65 0.70 0.37 1.97 -1.07z m-8.36 -9.22 c0 -0.81 -1.74 -3.71 -3.02 -4.99 -1.21 -1.23 -3.69 -2.81 -4.43 -2.81 -0.65 0 0.72 3.46 2.02 5.04 1.02 1.25 2.28 2.11 3.88 2.65 1.46 0.51 1.56 0.53 1.56 0.12z m4.71 -0.81 c1.37 -0.95 2.99 -2.74 3.60 -4.02 0.56 -1.14 1.16 -3.81 0.91 -4.04 -0.26 -0.28 -2.67 1.72 -3.41 2.81 -1 1.46 -1.79 3.25 -2.04 4.71 -0.12 0.65 -0.16 1.21 -0.12 1.21 0.05 0 0.53 -0.30 1.07 -0.67z m0.30 -11.51 c1.28 -0.74 2.95 -2.65 3.64 -4.13 0.84 -1.76 0.95 -2.25 0.56 -2.25 -0.58 0 -3.04 1.76 -4.04 2.88 -0.98 1.09 -2.39 3.62 -2.39 4.22 0 0.37 0.79 0.12 2.23 -0.72z m-5.83 -0.16 c-0.51 -2.99 -2.53 -6.22 -4.92 -7.89 -0.58 -0.37 -1.09 -0.63 -1.16 -0.56 -0.28 0.26 0.42 3.76 1 5.04 0.91 2 3.55 4.34 4.92 4.39 0.26 0 0.28 -0.23 0.16 -0.98z m7.20 -10.54 c2.09 -0.98 3.67 -2.67 4.71 -5.04 0.28 -0.63 0.26 -0.65 -0.23 -0.51 -1.32 0.39 -3.41 1.53 -4.41 2.41 -0.93 0.81 -2.74 3.37 -2.74 3.83 0 0.26 1.51 -0.14 2.67 -0.70z m-6.24 -3.44 c-0.21 -0.84 -0.67 -2.14 -1.04 -2.88 -0.65 -1.30 -2.65 -3.76 -3.04 -3.76 -0.37 0 -0.53 1.67 -0.28 3.13 0.35 2.16 1.28 3.83 3.04 5.50 l1.53 1.46 0.07 -0.95 c0.05 -0.53 -0.09 -1.65 -0.28 -2.51z m7.99 -6.43 c2.28 -0.51 4.90 -2.39 6.04 -4.32 0.44 -0.74 0.44 -0.77 0.02 -0.77 -1 0 -3.51 0.98 -4.69 1.83 -1.11 0.79 -2.53 2.28 -3.09 3.23 -0.21 0.35 0.28 0.35 1.72 0.02z m-4.78 -3.04 c0.28 -2.34 -0.58 -5.41 -2.11 -7.47 -0.84 -1.16 -0.84 -1.16 -1.07 -0.58 -0.14 0.30 -0.26 1.44 -0.26 2.53 0 1.67 0.09 2.18 0.60 3.32 0.77 1.63 2.02 3.41 2.41 3.41 0.16 0 0.32 -0.49 0.42 -1.21z m11.91 -7.50 c1.51 -0.67 3.06 -1.88 3.81 -2.95 l0.51 -0.72 -1.95 0.16 c-2.41 0.21 -4.34 1.09 -6.08 2.76 -1.21 1.16 -1.21 1.16 -0.63 1.35 0.98 0.32 2.95 0.05 4.34 -0.60z m-7.22 -3.55 c0.32 -1.49 0.35 -2.04 0.14 -3.27 -0.26 -1.49 -1.58 -4.48 -2.04 -4.60 -0.28 -0.09 -1.02 2.90 -1.02 4.13 0 0.44 0.16 1.39 0.37 2.09 0.39 1.39 1.69 3.74 1.97 3.55 0.09 -0.05 0.35 -0.91 0.58 -1.90z m13.91 -5.71 c0.91 -0.42 2.09 -1.18 2.67 -1.69 l1.04 -0.95 -1.32 -0.16 c-2 -0.26 -4.71 0.51 -6.76 1.90 -1.74 1.18 -1.74 1.30 0.14 1.69 1.37 0.28 2.34 0.09 4.22 -0.79z m-7.61 -4.57 c0.77 -2.16 0.84 -4.39 0.21 -6.34 -0.42 -1.25 -0.49 -1.32 -0.79 -0.93 -0.65 0.86 -1.46 2.88 -1.72 4.25 -0.28 1.51 -0.09 2.86 0.63 4.60 0.32 0.77 0.39 0.81 0.72 0.51 0.19 -0.21 0.63 -1.14 0.95 -2.09z m7.68 -3.51 c2.23 -1.11 4.04 -2.90 5.01 -4.92 0.44 -0.91 0.86 -1.88 0.95 -2.16 0.14 -0.46 0.09 -0.49 -0.56 -0.30 -3.23 0.91 -6.57 4.34 -7.31 7.50 -0.19 0.81 0 0.81 1.90 -0.12z"/>
  <path d="M128.49 167.96 c-8.73 -1.23 -15.97 -4.16 -22.84 -9.22 -2.97 -2.18 -7.89 -7.17 -9.73 -9.89 -1.51 -2.21 -3.37 -5.87 -3.64 -7.15 -0.12 -0.65 -0.05 -0.81 0.58 -1.25 l0.72 -0.51 1.56 0.70 c2.48 1.16 4.27 1.53 7.13 1.53 2.76 0 3.46 -0.21 8.13 -2.28 4.83 -2.14 10.33 -1.95 16.16 0.51 3.16 1.35 4.46 1.69 6.94 1.83 2.72 0.14 4.36 -0.21 8.29 -1.79 4.16 -1.67 5.29 -1.93 8.66 -1.95 3.62 0 4.92 0.28 8.64 1.86 1.63 0.70 3.64 1.42 4.53 1.63 2.79 0.65 7.10 0.07 9.87 -1.32 1.11 -0.56 1.60 -0.56 2.34 0.05 l0.60 0.46 -0.53 1.44 c-1.58 4.20 -3.92 7.66 -7.92 11.68 -1.65 1.67 -3.81 3.60 -4.76 4.29 -6.41 4.69 -13.37 7.66 -21.36 9.17 -2.76 0.51 -10.33 0.63 -13.35 0.21z m12.44 -2.92 c4.90 -0.84 11.17 -2.90 14.18 -4.71 l0.98 -0.58 -0.86 -0.37 c-1.83 -0.77 -3.92 -1.09 -6.20 -0.98 -1.83 0.07 -2.58 0.23 -4.41 0.95 -5.78 2.28 -6.69 2.53 -9.45 2.65 -3.16 0.12 -5.22 -0.28 -8.54 -1.69 -4.06 -1.74 -5.39 -2.04 -8.08 -1.90 -2.34 0.12 -5.41 0.91 -5.55 1.44 -0.19 0.63 6.06 3.23 10.26 4.27 4.27 1.07 6.64 1.37 10.93 1.39 2.95 0.02 4.55 -0.09 6.73 -0.46z m-3.39 -6.13 c0.77 -0.16 2.55 -0.81 3.95 -1.39 6.11 -2.58 10.63 -2.65 15.81 -0.26 0.98 0.46 1.88 0.77 2.04 0.67 0.98 -0.58 5.48 -4.11 5.48 -4.32 0 -0.05 -0.81 -0.16 -1.83 -0.26 -2.16 -0.19 -3.58 -0.58 -6.29 -1.76 -4.90 -2.16 -8.08 -2.14 -13.72 0.12 -4.04 1.63 -5.55 1.97 -8.57 1.97 -2.99 0 -4.46 -0.35 -8.54 -1.95 -5.87 -2.34 -8.64 -2.32 -14.42 0.14 -2.18 0.93 -4.90 1.58 -6.55 1.58 -0.49 0 -0.91 0.09 -0.91 0.21 0 0.32 1.86 1.88 3.83 3.27 l1.76 1.21 2.14 -0.95 c3.16 -1.37 4.85 -1.72 8.06 -1.58 2.86 0.12 4.16 0.44 8.13 2.11 1.09 0.44 2.55 0.98 3.25 1.16 1.65 0.44 4.62 0.46 6.38 0.02z m0.09 -8.36 c0.81 -0.21 2.81 -0.88 4.41 -1.53 3.51 -1.42 5.27 -1.83 7.94 -1.83 2.86 0 4.25 0.32 8.19 1.93 l3.51 1.44 3.09 0 3.11 0 0.88 -1.04 c1.16 -1.37 3.37 -4.85 3.16 -5.04 -0.07 -0.07 -0.93 0.02 -1.88 0.23 -2.14 0.49 -5.27 0.51 -7.34 0.07 -0.86 -0.19 -2.90 -0.91 -4.53 -1.60 -3.69 -1.58 -5.13 -1.88 -8.50 -1.74 -2.34 0.09 -2.86 0.21 -4.83 0.98 -5.97 2.37 -6.64 2.53 -9.82 2.65 -3.71 0.12 -4.99 -0.12 -9.03 -1.72 -3.99 -1.58 -5.55 -1.95 -8.24 -1.95 -2.83 0 -4.04 0.28 -7.50 1.76 -3.99 1.69 -5.53 2.02 -8.71 1.88 -1.39 -0.07 -3.13 -0.28 -3.83 -0.46 -0.70 -0.21 -1.30 -0.32 -1.35 -0.30 -0.14 0.16 1.74 3.20 2.81 4.55 1.16 1.42 1.30 1.51 2.48 1.69 0.70 0.12 2.23 0.16 3.39 0.09 1.86 -0.09 2.39 -0.23 4.76 -1.18 4.83 -2.02 5.08 -2.07 8.68 -2.09 3.71 -0.02 4.11 0.07 8.77 1.88 1.76 0.70 3.64 1.35 4.18 1.46 1.60 0.30 4.60 0.26 6.18 -0.12z"/>
  <path d="M81.88 136.11 c-0.09 -0.07 -0.16 -0.77 -0.16 -1.51 l0 -1.35 2.21 0 2.21 0 0 -6.15 c0 -5.06 -0.05 -6.15 -0.32 -6.15 -0.16 0 -1.16 0.49 -2.18 1.07 -2.21 1.25 -2.76 1.25 -3.41 0.05 -0.58 -1.07 -0.44 -1.23 2.11 -2.62 1.07 -0.58 6.08 -3.39 11.12 -6.27 10.40 -5.94 13.37 -7.54 13.84 -7.54 0.19 0 1.79 0.79 3.55 1.76 1.76 0.95 3.25 1.69 3.32 1.63 0.07 -0.05 -0.02 -0.32 -0.16 -0.60 l-0.28 -0.51 0.93 0.51 0.93 0.51 7.61 -4.69 c10.01 -6.18 9.73 -6.04 11.07 -6.04 1.07 0 1.63 0.30 9.84 5.34 4.81 2.95 8.84 5.34 8.98 5.34 0.14 0 0.51 -0.21 0.84 -0.46 0.74 -0.58 1 -0.58 0.81 0 -0.07 0.26 -0.09 0.46 -0.02 0.46 0.26 0 2.32 -1.09 3.67 -1.90 2.46 -1.51 2.60 -1.53 4.22 -0.70 3.69 1.90 24.47 13.53 25.51 14.25 0.77 0.56 0.79 0.81 0.09 1.83 -0.67 0.98 -0.91 0.95 -3.27 -0.39 -1 -0.56 -1.97 -1.02 -2.14 -1.02 -0.28 0 -0.32 1.09 -0.32 6.15 l0 6.15 2.18 0 2.16 0 0.14 1.21 c0.09 0.74 0.05 1.32 -0.09 1.51 -0.23 0.26 -9.49 0.30 -52.56 0.30 -28.74 0 -52.35 -0.07 -52.42 -0.16z m19.62 -5.57 c0.12 -2.92 0.46 -4.02 1.63 -5.11 1.72 -1.63 4.92 -1.63 6.64 0 1.14 1.07 1.51 2.18 1.63 5.11 l0.12 2.72 0.65 0 0.67 0 0 -8.82 c0 -5.55 -0.09 -8.82 -0.23 -8.82 -0.12 0 -1.09 0.53 -2.18 1.16 -1.09 0.65 -2.16 1.16 -2.41 1.16 -0.58 0 -1.16 -0.67 -1.35 -1.56 -0.14 -0.70 -0.09 -0.74 2.90 -2.53 1.67 -1.02 3.02 -1.93 2.97 -2.04 -0.05 -0.12 -1.23 -0.88 -2.65 -1.69 l-2.58 -1.49 -4.25 2.41 c-2.34 1.32 -6.43 3.64 -9.08 5.13 l-4.83 2.74 0 7.17 0 7.17 6.13 0 6.13 0 0.09 -2.72z m6.92 0.23 c-0.02 -2.60 -0.14 -3.02 -1.09 -3.51 -0.79 -0.44 -1.39 -0.32 -2.18 0.37 -0.70 0.63 -0.74 0.74 -0.84 2.76 -0.07 1.16 -0.07 2.30 0 2.48 0.12 0.30 0.53 0.37 2.14 0.37 l1.97 0 0 -2.48z m19.04 -1.23 c0.14 -3.97 0.39 -4.90 1.83 -6.55 1.23 -1.39 2.81 -2.04 4.99 -2.04 2.14 0 3.27 0.44 4.67 1.79 1.56 1.51 1.83 2.46 1.97 6.69 l0.12 3.71 5.80 0 5.80 0 0.07 -9.80 0.05 -9.77 -7.13 -4.34 c-10.86 -6.62 -11.24 -6.85 -11.44 -6.85 -0.23 0 -17.64 10.61 -18.06 11.03 -0.23 0.21 -0.32 2.37 -0.44 9.73 -0.05 5.20 -0.05 9.59 0.02 9.80 0.12 0.28 0.98 0.32 5.87 0.28 l5.76 -0.07 0.12 -3.60z m10.56 0.23 c0 -3.76 -0.19 -4.39 -1.56 -5.39 -1.04 -0.72 -3.32 -0.77 -4.27 -0.05 -0.93 0.67 -1.49 1.51 -1.72 2.55 -0.26 1.07 -0.30 5.97 -0.07 6.22 0.09 0.07 1.83 0.12 3.88 0.09 l3.74 -0.07 0 -3.37z m19.15 0.58 c0.09 -2.23 0.21 -2.97 0.60 -3.71 1.93 -3.71 7.75 -3.02 8.91 1.07 0.14 0.44 0.23 1.86 0.23 3.16 l0 2.39 6.27 0 6.27 0 0 -7.15 0 -7.15 -1.46 -0.84 c-3.41 -1.97 -14.67 -8.22 -16.30 -9.08 -0.70 -0.35 -0.74 -0.35 -3.13 1.09 -1.35 0.79 -2.44 1.56 -2.44 1.72 0 0.16 1.25 1.07 2.79 2 3.13 1.93 3.39 2.30 2.32 3.58 -0.72 0.84 -0.72 0.84 -3.27 -0.67 -1.04 -0.63 -2 -1.14 -2.09 -1.14 -0.23 0 -0.37 17.13 -0.16 17.48 0.07 0.09 0.39 0.16 0.72 0.12 l0.63 -0.07 0.12 -2.79z m6.92 0.65 c0.07 -2.41 -0.26 -3.41 -1.25 -3.78 -0.98 -0.37 -1.49 -0.28 -2.21 0.44 -0.65 0.67 -0.67 0.74 -0.67 3.16 l0 2.46 2.04 -0.07 2.02 -0.07 0.07 -2.14z"/>
  <path d="M75.61 106.88 c-0.09 -0.09 -0.16 -2.51 -0.16 -5.36 l0 -5.18 1.95 0 c1.60 0 2.04 0.09 2.53 0.49 1.18 0.91 1.37 3.46 0.32 4.76 l-0.46 0.63 0.72 2.23 c0.42 1.23 0.74 2.32 0.74 2.41 0 0.09 -0.44 0.16 -1 0.16 l-1 0 -0.58 -1.79 c-0.77 -2.39 -1.09 -2.44 -1.18 -0.14 l-0.07 1.81 -0.81 0.07 c-0.46 0.05 -0.91 0 -1 -0.09z m3.20 -7.41 c0 -1.11 -0.02 -1.16 -0.70 -1.23 l-0.70 -0.07 0.07 1.30 c0.09 1.25 0.12 1.30 0.70 1.23 0.58 -0.07 0.63 -0.14 0.63 -1.23z"/>
  <path d="M83.57 102.61 l0 -4.41 -0.81 0 c-0.79 0 -0.81 -0.02 -0.81 -0.93 l0 -0.93 2.67 0 2.67 0 0 0.91 c0 0.91 -0.02 0.93 -0.86 1 l-0.86 0.07 0.07 3.51 c0.02 1.93 -0.02 3.88 -0.09 4.34 -0.16 0.81 -0.21 0.86 -1.07 0.86 l-0.91 0 0 -4.41z"/>
  <path d="M87.29 106 l0 -1.07 1.07 0 1.04 0 -0.07 1 c-0.07 0.98 -0.07 0.98 -1.04 1.04 l-1 0.07 0 -1.04z"/>
  <path d="M91.32 106.23 c-0.60 -0.60 -0.79 -0.98 -0.79 -1.65 l0 -0.84 1 0.07 c0.81 0.07 1 0.16 1.04 0.60 0.19 1.23 1.44 0.74 1.44 -0.53 0 -1.18 -0.21 -1.51 -0.95 -1.51 -0.63 0 -0.67 -0.07 -0.67 -0.93 0 -0.77 0.07 -0.93 0.46 -0.93 0.70 0 1.28 -1.04 1.02 -1.81 -0.30 -0.86 -1.11 -0.86 -1.21 0.02 -0.07 0.58 -0.16 0.63 -1.11 0.63 -0.95 0 -1.02 -0.05 -1.02 -0.58 0 -2.39 3.09 -3.55 4.71 -1.74 0.51 0.58 0.63 0.93 0.63 1.95 0 0.88 -0.14 1.42 -0.44 1.79 -0.42 0.53 -0.42 0.56 0.07 1.21 0.35 0.49 0.49 1 0.49 1.88 0 2.11 -0.95 3.16 -2.92 3.16 -0.77 0 -1.09 -0.14 -1.74 -0.79z"/>
  <path d="M97.50 106.58 c0 -0.35 1.93 -6.62 2.48 -8.08 0.09 -0.23 -0.23 -0.30 -1.42 -0.30 l-1.53 0 0 -0.93 0 -0.93 2.55 0 2.55 0 0 0.88 c0 0.46 -0.60 2.86 -1.35 5.27 l-1.32 4.41 -1 0.07 c-0.84 0.07 -0.98 0 -0.98 -0.39z"/>
  <path d="M166.14 106.88 c-0.09 -0.09 -0.16 -2.51 -0.16 -5.36 l0 -5.18 1.74 0 c2.81 0 3.71 0.79 3.69 3.16 0 0.93 -0.14 1.44 -0.53 1.97 l-0.56 0.74 0.72 2.23 c0.37 1.23 0.65 2.30 0.58 2.41 -0.05 0.09 -0.51 0.16 -1 0.16 l-0.91 0 -0.53 -1.79 c-0.72 -2.41 -1.07 -2.44 -1.16 -0.14 l-0.07 1.81 -0.81 0.07 c-0.46 0.05 -0.91 0 -1 -0.09z m3.20 -7.41 c0 -1.14 -0.02 -1.16 -0.74 -1.23 l-0.77 -0.07 0 1.14 c0 1.30 0.12 1.49 0.93 1.39 0.53 -0.07 0.58 -0.16 0.58 -1.23z"/>
  <path d="M174.25 106.30 c-0.07 -0.39 -0.14 -2.39 -0.14 -4.41 l0 -3.69 -0.81 0 c-0.79 0 -0.81 -0.02 -0.81 -0.93 l0 -0.93 2.67 0 2.67 0 0 0.93 c0 0.91 -0.02 0.93 -0.81 0.93 l-0.81 0 -0.05 4.36 -0.07 4.34 -0.84 0.07 c-0.79 0.07 -0.86 0.02 -1 -0.67z"/>
  <path d="M177.98 106.32 c-0.23 -1.09 0 -1.39 1.02 -1.39 l0.91 0 0 1.04 0 1.04 -0.91 0 c-0.81 0 -0.91 -0.07 -1.02 -0.70z"/>
  <path d="M182.30 106.58 c-0.72 -0.46 -0.84 -0.65 -1.11 -2.04 l-0.16 -0.77 1.07 0 c0.95 0 1.04 0.05 1.11 0.65 0.05 0.49 0.19 0.63 0.65 0.63 0.56 0 0.58 -0.07 0.58 -1.28 0 -1.23 -0.02 -1.28 -0.63 -1.35 -0.58 -0.07 -0.65 -0.16 -0.65 -0.98 0 -0.72 0.09 -0.93 0.53 -1.07 0.28 -0.09 0.58 -0.28 0.67 -0.42 0.30 -0.44 0.21 -1.46 -0.16 -1.76 -0.49 -0.42 -1.04 -0.12 -1.04 0.58 0 0.53 -0.07 0.58 -1.07 0.58 l-1.07 0 0.16 -0.84 c0.19 -1.09 0.67 -1.81 1.42 -2.14 1.49 -0.70 3.32 0 3.81 1.46 0.32 0.95 0.14 2.37 -0.37 2.92 -0.30 0.35 -0.30 0.49 0.12 1.16 0.91 1.46 0.53 3.85 -0.72 4.71 -0.72 0.51 -2.23 0.46 -3.13 -0.07z"/>
  <path d="M189.27 106.79 c-1.32 -0.53 -1.88 -3.09 -1.09 -4.78 0.30 -0.65 0.32 -0.93 0.12 -1.39 -0.14 -0.32 -0.26 -1.14 -0.26 -1.81 0 -1.02 0.09 -1.35 0.63 -1.86 1.14 -1.14 2.88 -1.09 3.88 0.12 0.49 0.56 0.60 0.95 0.60 1.93 0 0.70 -0.14 1.42 -0.35 1.72 -0.32 0.44 -0.32 0.58 0.02 1.25 0.46 0.91 0.51 2.65 0.09 3.64 -0.49 1.21 -2.21 1.76 -3.64 1.18z m1.76 -1.95 c0.16 -0.19 0.26 -0.79 0.21 -1.35 -0.07 -0.88 -0.14 -1 -0.65 -1 -0.49 0 -0.60 0.12 -0.65 0.79 -0.16 1.58 0.42 2.39 1.09 1.56z m0.12 -4.69 c0.21 -0.51 0.16 -1.56 -0.07 -1.90 -0.12 -0.19 -0.39 -0.28 -0.63 -0.23 -0.49 0.07 -0.70 1 -0.46 1.95 0.16 0.63 0.93 0.77 1.16 0.19z"/>
  <path d="M105.93 103.40 c-0.07 -0.19 -0.07 -2.04 0 -4.11 0.12 -4.13 0.60 -6.52 2.02 -10.05 2.39 -6.06 7.50 -11.72 13.19 -14.67 4.04 -2.11 7.36 -2.99 12 -3.20 7.73 -0.35 14.76 2.28 20.52 7.68 6.43 6.08 10.12 15.51 9.15 23.52 l-0.14 1.23 -1.18 -0.07 -1.18 -0.07 -0.02 -3.13 c-0.05 -4.81 -0.84 -8.03 -2.90 -12.09 -3.69 -7.22 -10.31 -12.35 -17.97 -13.93 -2.55 -0.53 -7.22 -0.58 -9.68 -0.12 -6.87 1.32 -12.79 5.32 -16.81 11.31 -3.02 4.53 -4.25 8.45 -4.43 14.32 l-0.14 3.76 -1.14 0 c-0.81 0 -1.16 -0.09 -1.28 -0.37z"/>
  <path d="M109.46 66.58 c-0.16 -0.42 -2.09 -4.94 -4.27 -10.05 -2.18 -5.11 -3.97 -9.38 -3.97 -9.52 0 -0.12 1.42 -0.79 3.11 -1.44 2.55 -1.02 3.37 -1.23 4.53 -1.23 2.65 0 3.92 1.14 5.39 4.78 0.84 2.09 0.95 3.76 0.35 4.92 l-0.37 0.74 2.04 2.48 c3.71 4.53 4.46 5.50 4.27 5.69 -0.09 0.09 -0.95 0.49 -1.90 0.88 l-1.74 0.72 -0.65 -0.77 c-0.37 -0.42 -1.63 -2.04 -2.79 -3.60 -1.63 -2.16 -2.28 -2.86 -2.65 -2.86 -0.30 0 -0.53 0.14 -0.53 0.30 0 0.16 0.70 1.86 1.53 3.76 0.84 1.93 1.63 3.71 1.74 3.99 0.16 0.44 0.02 0.56 -1.60 1.21 -0.98 0.39 -1.88 0.72 -1.97 0.72 -0.09 0 -0.32 -0.35 -0.51 -0.74z m0.77 -13.37 c0.72 -0.46 0.67 -1.46 -0.16 -3.23 -0.81 -1.72 -1.35 -2.07 -2.46 -1.69 -0.44 0.14 -0.86 0.37 -0.95 0.49 -0.12 0.21 0.91 2.95 1.69 4.46 0.35 0.70 0.79 0.70 1.88 -0.02z"/>
  <path d="M155.23 66.14 c-2.95 -0.70 -4.76 -2.90 -4.50 -5.55 0.12 -1.30 2.44 -8.01 4.11 -11.89 1.11 -2.58 1.79 -3.48 3.13 -4.13 0.91 -0.44 1.35 -0.51 2.79 -0.42 2.76 0.19 4.62 1.58 5.25 3.92 0.26 0.91 0.23 1.32 -0.09 2.65 -0.21 0.88 -0.44 1.63 -0.49 1.67 -0.12 0.14 -3.60 -1.11 -3.74 -1.32 -0.05 -0.09 0.02 -0.53 0.16 -1 0.37 -1.18 -0.02 -2.02 -0.93 -2.02 -0.98 0 -1.63 0.81 -2.58 3.18 l-0.44 1.16 1.35 0 c1.09 0 1.56 0.12 2.32 0.63 1.88 1.25 2.32 3.51 1.25 6.59 -1.44 4.16 -2.81 6.01 -4.88 6.52 -1.14 0.30 -1.49 0.30 -2.72 0z m1.90 -4.20 c0.46 -0.49 1.42 -2.74 1.86 -4.46 0.32 -1.28 0.02 -1.76 -1.14 -1.76 -1.11 0 -1.39 0.37 -2.34 3.06 -0.79 2.30 -0.81 2.60 -0.21 3.20 0.60 0.60 1.25 0.58 1.83 -0.05z"/>
  <path d="M145.72 62.91 c-1 -0.23 -1.86 -0.46 -1.90 -0.51 -0.07 -0.07 2.32 -12.68 3.02 -15.88 l0.16 -0.72 -1.65 -0.16 c-1.86 -0.19 -1.83 -0.16 -1.39 -2.23 l0.26 -1.18 0.88 0.14 c1.11 0.19 2.60 -0.21 3.41 -0.91 0.58 -0.51 0.67 -0.51 1.97 -0.26 0.77 0.16 1.44 0.35 1.51 0.42 0.14 0.14 -4.11 21.33 -4.32 21.54 -0.07 0.07 -0.95 -0.05 -1.95 -0.26z"/>
  <path d="M123.48 62.10 c-0.09 -0.26 -0.79 -2.76 -1.51 -5.57 -0.72 -2.81 -1.90 -7.45 -2.65 -10.33 -0.74 -2.88 -1.32 -5.25 -1.30 -5.27 0.14 -0.14 3.69 -0.56 3.95 -0.46 0.14 0.07 0.79 2.46 1.42 5.36 0.65 2.88 1.23 5.25 1.35 5.25 0.09 0 0.16 -2.46 0.16 -5.46 0 -4.16 0.07 -5.50 0.30 -5.57 0.51 -0.21 3.44 -0.51 3.51 -0.37 0.05 0.07 0.63 2.44 1.30 5.25 0.67 2.81 1.30 5.32 1.39 5.57 0.12 0.26 0.21 -2.04 0.21 -5.39 l0.02 -5.83 1.97 -0.16 c1.09 -0.09 2.04 -0.12 2.11 -0.05 0.12 0.12 -0.49 16.78 -0.74 20.54 l-0.14 1.90 -0.84 0 c-0.49 0 -1.39 0.07 -2.04 0.14 l-1.16 0.14 -1 -3.90 c-0.53 -2.16 -1.09 -4.34 -1.23 -4.85 l-0.28 -0.93 -0.16 1.16 c-0.09 0.65 -0.19 2.04 -0.19 3.13 -0.02 1.09 -0.09 2.81 -0.16 3.85 l-0.16 1.88 -1.97 0.21 c-1.86 0.21 -1.97 0.21 -2.16 -0.26z"/>
  <path d="M138.54 61.84 c-0.79 -0.42 -1.11 -1 -1.11 -1.95 0 -0.98 0.35 -1.56 1.16 -1.97 1.23 -0.63 2.58 -0.28 3.16 0.84 1.09 2.16 -1.07 4.25 -3.20 3.09z"/>
 </g>
 <g fill="#eeab1e">
  <path d="M187.64 171.09 c-1.46 -0.51 -2.67 -1.35 -2.55 -1.72 0.14 -0.44 2.41 -1.67 4.16 -2.25 2.37 -0.77 5.76 -0.77 7.68 -0.02 0.72 0.30 1.32 0.67 1.32 0.84 0 0.42 -2.41 2.16 -4.06 2.95 -1.21 0.58 -1.67 0.67 -3.37 0.67 -1.32 -0.02 -2.37 -0.16 -3.18 -0.46z"/>
  <path d="M76.17 170.97 c-1.60 -0.46 -3.32 -1.39 -4.53 -2.48 -0.84 -0.74 -0.91 -0.88 -0.60 -1.18 1.04 -1.04 6.24 -1.49 8.52 -0.72 1.58 0.53 3.92 1.69 4.36 2.18 0.35 0.37 0.32 0.44 -0.23 0.88 -1.67 1.32 -5.27 1.95 -7.52 1.32z"/>
  <path d="M182.46 167.14 c-1 -1.56 -1.39 -2.99 -1.39 -5.08 0 -2.55 0.70 -4.78 2.14 -6.80 0.65 -0.93 1.02 -0.81 1.69 0.51 1.42 2.79 1.58 6.15 0.49 9.31 -0.53 1.56 -1.58 3.23 -1.97 3.23 -0.12 0 -0.53 -0.51 -0.95 -1.16z"/>
  <path d="M85.06 167.56 c-2 -2.16 -2.81 -6.85 -1.74 -10.17 0.60 -1.88 1.04 -2.55 1.76 -2.55 0.46 0 0.72 0.30 1.51 1.93 1.07 2.18 1.51 4.13 1.30 5.99 -0.16 1.67 -0.88 3.60 -1.69 4.60 l-0.65 0.77 -0.49 -0.56z"/>
  <path d="M195.72 162.48 c-0.67 -0.12 -1.72 -0.44 -2.32 -0.70 l-1.07 -0.49 1.23 -1.11 c0.67 -0.63 2.14 -1.60 3.23 -2.14 l2 -1 3.32 0 c1.97 0 3.41 0.09 3.55 0.23 0.16 0.16 -0.05 0.58 -0.67 1.35 -2.62 3.20 -5.71 4.48 -9.26 3.85z"/>
  <path d="M69.99 162.15 c-0.12 -0.05 -0.67 -0.21 -1.21 -0.35 -1.37 -0.35 -3.60 -1.90 -4.71 -3.30 -0.51 -0.65 -0.93 -1.25 -0.93 -1.37 0 -0.42 2.07 -0.72 4.32 -0.63 2.28 0.07 2.44 0.12 4.53 1.16 2.30 1.14 4.57 2.92 4.32 3.37 -0.30 0.49 -2.37 1.04 -4.22 1.14 -1.02 0.05 -1.95 0.05 -2.09 -0.02z"/>
  <path d="M190.06 159.48 c-2.18 -2.58 -2.65 -7.38 -1.07 -11.07 0.60 -1.42 1.09 -1.32 2.14 0.44 1.09 1.86 1.67 4.34 1.49 6.55 -0.16 1.93 -0.70 3.83 -1.28 4.55 l-0.42 0.53 -0.86 -1z"/>
  <path d="M77.35 159.34 c-1.16 -2.32 -1.44 -6.55 -0.56 -8.94 0.95 -2.69 2.21 -3.95 2.81 -2.81 0.95 1.79 1.49 5.04 1.16 7.08 -0.26 1.72 -1.32 3.97 -2.28 4.90 l-0.67 0.65 -0.46 -0.88z"/>
  <path d="M199.69 152.26 l-0.74 -0.23 0.37 -0.70 c0.84 -1.65 3.78 -3.97 6.15 -4.88 1.39 -0.56 6.01 -0.93 6.01 -0.51 0 0.51 -2.30 3.71 -3.20 4.50 -0.53 0.46 -1.53 1.11 -2.23 1.44 -1.11 0.56 -1.53 0.63 -3.44 0.60 -1.18 0 -2.51 -0.12 -2.92 -0.23z"/>
  <path d="M64.54 151.98 c-2.55 -0.60 -4.69 -2.18 -6.31 -4.67 -1.11 -1.74 -0.98 -2 1.18 -2 1.95 0 3.92 0.51 5.57 1.44 1.28 0.72 4.90 4.11 4.90 4.60 0 0.67 -3.39 1.07 -5.34 0.63z"/>
  <path d="M195.98 150.17 c-2.09 -2.07 -3.13 -5.41 -2.65 -8.52 0.35 -2.41 0.70 -3.53 1.07 -3.53 0.56 0 2.02 1.88 2.90 3.69 0.81 1.74 0.84 1.81 0.81 4.55 0 2.76 -0.35 4.50 -0.93 4.69 -0.14 0.05 -0.70 -0.35 -1.21 -0.88z"/>
  <path d="M71.41 150.45 c-0.32 -0.51 -0.84 -3.30 -0.84 -4.55 0 -3.30 2.02 -7.50 3.64 -7.61 0.60 -0.05 0.67 0.05 1.04 1.46 0.98 3.74 0.14 7.29 -2.30 10.01 -0.81 0.88 -1.30 1.11 -1.56 0.70z"/>
  <path d="M204.80 141.44 c-0.46 -0.09 -0.53 -0.21 -0.39 -0.72 0.49 -2.04 3.53 -5.18 6.24 -6.45 2.16 -1.04 4.78 -1.39 4.78 -0.65 0 0.91 -1.88 4.25 -2.99 5.27 -2.14 2 -5.20 3.02 -7.64 2.55z"/>
  <path d="M61.10 140.89 c-3.46 -0.67 -6.22 -3.27 -7.59 -7.17 -0.30 -0.86 -0.30 -0.95 0.05 -1.09 1.09 -0.42 4.85 0.91 6.85 2.44 2.14 1.63 4.62 5.41 3.88 5.87 -0.39 0.26 -1.83 0.23 -3.18 -0.05z"/>
  <path d="M200.66 139.75 c-2.25 -1.72 -3.53 -4.32 -3.74 -7.54 -0.16 -2.41 0.12 -3.46 0.91 -3.55 0.46 -0.05 0.84 0.21 1.86 1.32 2.44 2.72 3.62 6.45 3.06 9.84 -0.19 1.11 -0.58 1.11 -2.09 -0.07z"/>
  <path d="M66.21 140.05 c-0.09 -0.23 -0.16 -1.42 -0.14 -2.62 0.05 -3.39 1.21 -6.06 3.67 -8.31 1.30 -1.18 1.88 -1.25 2.09 -0.26 0.42 2.14 -0.02 5.46 -1 7.36 -0.65 1.25 -2.34 3.09 -3.48 3.71 -0.91 0.51 -0.98 0.51 -1.14 0.12z"/>
  <path d="M207.42 129.28 c0.53 -2.48 2.14 -5.29 3.90 -6.85 1.37 -1.21 3.51 -2.34 4.78 -2.55 l1.02 -0.16 -0.16 1.09 c-0.74 4.97 -4.06 8.52 -8.50 9.10 l-1.21 0.16 0.16 -0.79z"/>
  <path d="M58.96 129.12 c-3.76 -1 -6.08 -3.60 -7.03 -8.01 -0.42 -1.83 -0.28 -2.02 1.16 -1.56 2.74 0.91 5.36 2.92 6.71 5.25 0.67 1.14 1.72 3.83 1.72 4.39 0 0.44 -0.65 0.42 -2.55 -0.07z"/>
  <path d="M203.91 128.96 c-2.46 -1.23 -4.16 -3.23 -4.97 -5.87 -0.58 -1.86 -0.63 -4.18 -0.09 -4.39 1.04 -0.39 4.34 2.41 5.43 4.64 1.09 2.25 1.79 6.20 1.09 6.20 -0.16 0 -0.84 -0.26 -1.46 -0.58z"/>
  <path d="M63.21 128.91 c-0.07 -0.19 -0.02 -1.16 0.12 -2.14 0.30 -1.93 1.42 -4.46 2.58 -5.85 0.81 -0.98 2.90 -2.41 3.81 -2.62 l0.63 -0.14 0 1.46 c0 1.72 -0.51 3.85 -1.21 5.01 -1.07 1.79 -3.41 3.83 -5.01 4.39 -0.65 0.23 -0.79 0.21 -0.91 -0.12z"/>
  <path d="M208.35 118.37 c-0.19 -0.28 0.30 -3.74 0.70 -4.83 1.07 -3.04 3.97 -6.27 5.99 -6.64 l0.86 -0.16 0 1.63 c0 3.27 -0.98 5.94 -2.81 7.73 -1.49 1.44 -4.41 2.83 -4.74 2.28z"/>
  <path d="M204.75 117.95 c-2.60 -0.84 -4.53 -2.58 -5.80 -5.22 -0.88 -1.86 -1.07 -3.67 -0.39 -3.81 0.23 -0.05 1.11 0.26 1.97 0.65 2.53 1.18 4.43 3.32 5.50 6.15 0.63 1.67 0.74 2.67 0.30 2.65 -0.16 0 -0.88 -0.19 -1.58 -0.42z"/>
  <path d="M58.43 117.42 c-1.83 -0.63 -3.83 -2.48 -4.64 -4.29 -0.65 -1.44 -1.09 -3.67 -1.09 -5.46 l0 -1.11 0.88 0 c2.16 0.02 5.48 3.90 6.41 7.52 0.30 1.09 0.46 2.65 0.39 3.58 -0.02 0.37 -0.32 0.32 -1.95 -0.23z"/>
  <path d="M61.98 117.74 c0 -0.12 0.21 -0.91 0.46 -1.72 0.58 -1.88 1.90 -3.97 3.37 -5.25 1.23 -1.07 3.69 -2.37 4.53 -2.37 0.49 0 0.51 0.07 0.35 1.09 -0.49 3.27 -2.74 6.34 -5.62 7.66 -1.39 0.65 -3.09 0.98 -3.09 0.58z"/>
  <path d="M114.77 109.62 c-0.70 -0.53 -1.60 -2.99 -2.07 -5.50 -1.72 -9.12 3.39 -19.13 11.96 -23.45 3.32 -1.67 6.80 -2.34 11.14 -2.14 3.06 0.14 5.25 0.70 7.73 1.95 4.92 2.46 8.03 5.59 10.40 10.40 1.76 3.60 2.14 5.34 2.14 9.63 0 3.30 -0.05 3.78 -0.63 5.69 -0.37 1.16 -0.67 2.25 -0.70 2.44 -0.02 0.46 -1.49 1.46 -1.88 1.30 -0.19 -0.07 -4.34 -2.58 -9.26 -5.59 -4.92 -2.99 -9.12 -5.46 -9.36 -5.46 -0.56 0 -1.46 0.53 -10.70 6.22 -4.39 2.72 -8.03 4.92 -8.13 4.92 -0.09 0 -0.39 -0.19 -0.65 -0.42z"/>
  <path d="M202.78 106.93 c-1.65 -0.53 -2.95 -1.32 -4.11 -2.53 -1.09 -1.14 -2.32 -3.32 -2.65 -4.67 l-0.16 -0.67 1.32 0.14 c3.60 0.37 7.54 3.81 8.61 7.54 0.14 0.49 0.09 0.51 -0.98 0.49 -0.60 0 -1.53 -0.14 -2.04 -0.30z"/>
  <path d="M207.19 105.51 c-0.42 -3.78 1.65 -8.68 4.48 -10.66 1.39 -0.95 1.58 -0.86 1.76 1.02 0.37 4.20 -1.46 8.43 -4.50 10.33 -1.56 0.95 -1.58 0.95 -1.74 -0.70z"/>
  <path d="M63.03 106.30 c0.70 -2.41 2.99 -5.22 5.18 -6.34 1.39 -0.70 3.88 -1.39 4.34 -1.21 0.72 0.28 -0.93 3.74 -2.55 5.39 -1.56 1.58 -3.32 2.39 -5.46 2.58 l-1.67 0.14 0.16 -0.56z"/>
  <path d="M60.10 105.88 c-2.41 -1.56 -4.16 -4.09 -4.64 -6.69 -0.26 -1.28 -0.14 -5.08 0.14 -5.36 0.26 -0.28 1.81 0.77 2.83 1.90 1.28 1.42 2.28 3.37 2.74 5.29 0.37 1.58 0.46 5.20 0.14 5.39 -0.09 0.07 -0.65 -0.16 -1.21 -0.53z"/>
  <path d="M200.20 96.57 c-2.74 -0.39 -5.62 -2.51 -6.92 -5.08 -0.74 -1.44 -0.65 -1.53 1.74 -1.37 2.92 0.21 6.29 2.41 7.73 5.06 0.35 0.65 0.60 1.23 0.56 1.25 -0.23 0.21 -2.09 0.28 -3.11 0.14z"/>
  <path d="M65.77 96.18 c-0.51 -0.19 -0.32 -0.67 0.79 -2.16 1.39 -1.86 3.41 -3.34 5.34 -3.95 1.65 -0.51 4.25 -0.63 4.25 -0.21 0 0.56 -1.42 2.69 -2.48 3.74 -1.23 1.18 -2.90 2.11 -4.48 2.48 -1.09 0.26 -2.92 0.30 -3.41 0.09z"/>
  <path d="M204.70 95.02 c-0.46 -1.16 -0.51 -5.41 -0.07 -6.94 0.70 -2.46 2.88 -5.66 3.64 -5.36 0.53 0.19 0.95 2.92 0.84 5.41 -0.07 1.69 -0.21 2.34 -0.79 3.58 -0.79 1.65 -1.63 2.74 -2.67 3.51 l-0.67 0.46 -0.28 -0.65z"/>
  <path d="M62.38 94.11 c-0.63 -0.60 -1.46 -1.81 -1.93 -2.76 -0.72 -1.49 -0.86 -2 -0.95 -3.76 -0.12 -2.48 0.32 -5.01 0.93 -5.13 0.74 -0.14 2.69 2.55 3.46 4.83 0.81 2.39 0.65 7.89 -0.23 7.89 -0.12 0 -0.70 -0.49 -1.28 -1.07z"/>
  <path d="M194.30 86.50 c-2.04 -0.44 -3.48 -1.28 -5.15 -2.97 -0.88 -0.86 -1.58 -1.69 -1.58 -1.81 0 -0.44 1.18 -0.70 3.20 -0.70 2.32 0.02 3.88 0.53 5.83 1.95 1.16 0.86 2.58 2.53 2.58 3.06 0 0.30 -1.93 0.81 -2.97 0.77 -0.35 0 -1.21 -0.14 -1.90 -0.30z"/>
  <path d="M70.39 86.15 c-0.42 -0.12 -0.84 -0.26 -0.91 -0.35 -0.26 -0.23 1.16 -2.04 2.30 -2.95 0.63 -0.49 1.72 -1.16 2.44 -1.51 1.21 -0.56 1.63 -0.63 4.04 -0.65 1.51 -0.02 2.79 0.05 2.88 0.14 0.26 0.23 -1.39 2.39 -2.53 3.32 -1.67 1.37 -3.48 2.04 -5.59 2.11 -1.02 0.05 -2.21 -0.02 -2.62 -0.12z"/>
  <path d="M200.22 84.38 c-1.60 -3.78 -1.30 -7.73 0.84 -11.05 0.53 -0.86 0.86 -1.14 1.21 -1.09 0.70 0.12 1.35 2.18 1.49 4.85 0.12 1.86 0.05 2.53 -0.35 3.85 -0.49 1.56 -1.95 3.99 -2.55 4.20 -0.16 0.05 -0.44 -0.28 -0.63 -0.77z"/>
  <path d="M67.23 84.24 c-2.30 -2.72 -3.02 -6.31 -2.02 -10.10 0.23 -0.93 0.51 -1.79 0.58 -1.93 0.56 -0.88 1.95 0.60 2.97 3.20 0.74 1.90 0.74 5.55 -0.02 7.87 -0.30 0.91 -0.63 1.67 -0.72 1.67 -0.12 0 -0.46 -0.32 -0.79 -0.72z"/>
  <path d="M187.57 77.37 c-1.42 -0.30 -3.58 -1.51 -4.88 -2.76 -1.28 -1.21 -1.37 -1.37 -1.04 -1.69 0.30 -0.30 0.95 -0.37 3.44 -0.37 l3.06 0 1.76 0.88 c1.02 0.51 2.21 1.35 2.86 2 l1.11 1.14 -0.77 0.42 c-0.79 0.39 -4.32 0.65 -5.55 0.39z"/>
  <path d="M77.77 77.16 c-1.02 -0.21 -2.79 -0.81 -2.79 -1 0 -0.42 0.81 -1.23 2.25 -2.18 2.55 -1.74 5.92 -2.39 8.89 -1.76 0.67 0.14 1.16 0.37 1.16 0.56 0 0.58 -2.67 2.74 -4.36 3.55 -1.67 0.79 -3.67 1.11 -5.15 0.84z"/>
  <path d="M194.54 74.75 c-0.86 -1.21 -1.90 -4.39 -2.02 -6.27 -0.14 -1.86 0.32 -4.25 1 -5.29 0.56 -0.86 1.28 -0.58 2.02 0.77 1.74 3.18 2.07 7.08 0.79 9.68 -0.91 1.83 -1.16 2 -1.79 1.11z"/>
  <path d="M72.89 74.29 c-1.88 -2.62 -1.81 -7.13 0.14 -10.63 0.95 -1.67 1.58 -1.86 2.16 -0.63 0.95 1.97 1.18 4.74 0.60 7.27 -0.37 1.63 -1.69 4.48 -2.14 4.62 -0.14 0.05 -0.49 -0.23 -0.77 -0.63z"/>
  <path d="M186.36 68.85 c-2.88 -1.18 -4.60 -2.69 -5.83 -5.13 -0.74 -1.51 -1.39 -3.74 -1.18 -4.09 0.49 -0.79 4.25 0.63 6.18 2.34 1.83 1.60 3.44 4.76 3.44 6.76 0 0.58 -0.09 0.67 -0.63 0.67 -0.37 0 -1.25 -0.26 -1.97 -0.56z"/>
  <path d="M79.69 67.69 c0.37 -3.55 3.69 -7.15 7.75 -8.38 1.58 -0.49 1.93 -0.44 1.93 0.19 0 0.77 -0.79 2.97 -1.56 4.36 -1.30 2.44 -5.11 5.08 -7.29 5.08 l-0.98 0 0.14 -1.25z"/>
 </g>
</svg>