<?xml version="1.0" encoding="UTF-8" standalone="no"?>
<!DOCTYPE svg PUBLIC "-//W3C//DTD SVG 1.1//EN" "http://www.w3.org/Graphics/SVG/1.1/DTD/svg11.dtd">
<svg width="100%" height="100%" viewBox="0 0 359 477" version="1.1" xmlns="http://www.w3.org/2000/svg" xmlns:xlink="http://www.w3.org/1999/xlink" xml:space="preserve" xmlns:serif="http://www.serif.com/" style="fill-rule:evenodd;clip-rule:evenodd;stroke-linejoin:round;stroke-miterlimit:2;">
    <g transform="matrix(1,0,0,1,-1829.973261,-7571.905267)">
        <g transform="matrix(1,0,0,1,1212.977448,294.117335)">
            <g transform="matrix(0.645574,0,0,0.645089,448.232807,7172.308619)">
                <g transform="matrix(0.960469,0,0,0.960469,6.870464,40.85898)">
                    <g>
                        <path d="M780.086,884.068L746.329,880.915C708.279,894.039 658.549,897.607 636.159,890.458C581.66,873.057 569.49,856.073 547.736,831.061C541.389,823.763 504.147,752.703 500.352,744.163C484.444,708.363 470.887,691.587 466.487,687.08C457.693,678.073 448.931,670.324 438.683,669.828C437.616,670.541 431.556,674.604 430.464,675.746C427.1,679.265 424.579,687.4 424.045,692.502C421.775,714.226 423.071,790.208 423.191,796.918C425.153,832.45 459.661,838.802 459.661,838.802C473.31,841.263 482.825,853.745 481.59,867.569C480.355,881.394 468.78,891.989 454.91,891.989L317.642,891.989C302.849,891.989 290.857,879.988 290.857,865.183L290.857,770.417C290.857,769.835 290.875,769.253 290.913,768.672C294.364,715.738 340.338,654.451 354.412,639.216C365.872,626.812 379.606,611.934 393.693,604.059C406.634,596.824 428.333,585.195 457.449,588.677C461.884,589.208 488.69,596.204 508.786,607.748C527.679,618.601 553.796,641.93 567.482,662.387C572.181,669.41 610.922,725.84 621.849,743.263C624.598,747.648 645.34,772.443 667.958,780.018C671.04,781.05 685.025,784.323 697.634,783.172C710.479,781.999 721.818,778.897 731.863,777.087C742.051,775.251 751.372,774.557 759.872,775.721C796.902,780.79 817.413,804.515 819.578,807.218C841.518,834.623 844.302,857.406 843.716,867.238C843.179,876.253 839.905,882.03 837.649,885.084L832.43,890.416L825.402,894.331L819.836,895.777L813.195,895.993C808.326,895.598 789.411,888.916 780.086,884.068ZM565.86,755.519C575.105,773.491 585.268,792.555 588.145,795.863C604.001,814.094 612.72,826.7 652.443,839.383C664.572,843.256 688.065,841.115 710.373,835.651C707.803,836.007 705.18,836.317 702.501,836.562C680.591,838.562 656.314,832.652 650.958,830.859C614.487,818.645 580.907,778.832 576.473,771.762C574.074,767.936 570.31,762.2 565.86,755.519ZM369.687,707.435C357.795,725.97 346.106,749.446 344.428,771.361L344.428,838.377L379.203,838.377C373.966,827.538 370.407,814.579 369.662,799.11C369.648,798.834 369.639,798.558 369.634,798.281C369.634,798.281 368.737,742.096 369.687,707.435Z" style="fill:white;"/>
                        <path d="M317.642,865.183L317.642,770.417C320.665,724.046 361.751,670.759 374.081,657.413C383.716,646.983 394.912,634.082 406.756,627.461C416.434,622.05 432.497,612.69 454.271,615.294C457.84,615.721 479.279,621.706 495.451,630.996C511.467,640.196 533.623,659.958 545.225,677.3C549.886,684.267 588.323,740.231 599.161,757.513C602.752,763.24 629.913,795.544 659.458,805.438C663.677,806.851 682.808,811.442 700.067,809.867C722.913,807.781 741.338,800.239 756.242,802.28C782.385,805.859 797.146,822.07 798.674,823.979C817.966,848.076 818.272,866.222 816.108,869.152C815.234,870.335 797.157,863.395 791.653,859.856C785.82,856.107 749.558,851.378 738.419,855.287C706.05,866.648 663.448,871.034 644.301,864.921C597.19,849.879 586.745,835.084 567.941,813.462C562.102,806.749 528.318,741.127 524.827,733.271C506.652,692.369 490.674,673.497 485.646,668.347C471.063,653.409 455.118,643.118 437.979,642.998C426.152,642.916 414.566,653.6 411.11,657.215C404.496,664.132 398.453,679.684 397.405,689.713C394.956,713.147 396.416,797.819 396.416,797.819C399.179,855.133 454.91,865.183 454.91,865.183L317.642,865.183Z" style="fill:white;"/>
                        <clipPath id="_clip1">
                            <path d="M317.642,865.183L317.642,770.417C320.665,724.046 361.751,670.759 374.081,657.413C383.716,646.983 394.912,634.082 406.756,627.461C416.434,622.05 432.497,612.69 454.271,615.294C457.84,615.721 479.279,621.706 495.451,630.996C511.467,640.196 533.623,659.958 545.225,677.3C549.886,684.267 588.323,740.231 599.161,757.513C602.752,763.24 629.913,795.544 659.458,805.438C663.677,806.851 682.808,811.442 700.067,809.867C722.913,807.781 741.338,800.239 756.242,802.28C782.385,805.859 797.146,822.07 798.674,823.979C817.966,848.076 818.272,866.222 816.108,869.152C815.234,870.335 797.157,863.395 791.653,859.856C785.82,856.107 749.558,851.378 738.419,855.287C706.05,866.648 663.448,871.034 644.301,864.921C597.19,849.879 586.745,835.084 567.941,813.462C562.102,806.749 528.318,741.127 524.827,733.271C506.652,692.369 490.674,673.497 485.646,668.347C471.063,653.409 455.118,643.118 437.979,642.998C426.152,642.916 414.566,653.6 411.11,657.215C404.496,664.132 398.453,679.684 397.405,689.713C394.956,713.147 396.416,797.819 396.416,797.819C399.179,855.133 454.91,865.183 454.91,865.183L317.642,865.183Z"/>
                        </clipPath>
                        <g clip-path="url(#_clip1)">
                            <path d="M364.019,864.312C364.019,864.312 360.556,725.341 371.993,685.787C380.641,655.879 409.005,629.201 432.643,626.987C456.282,624.773 502.014,655.881 511.187,674.227C514.747,681.346 571.323,799.842 593.28,820.528C605.495,832.035 641.714,853.892 667.397,858.172C693.948,862.597 696.216,854.059 721.721,845.558C794.35,821.349 800.808,844.98 817.011,869.286C820.739,874.877 827.594,890.63 814.398,893.269C798.909,896.367 713.446,900.089 685.2,896.83C673.232,895.449 596.986,883.025 577.365,867.328C530.118,829.53 503.214,710.473 479.704,679.126C476.81,675.267 447.913,636.738 426.295,651.15C425.311,651.806 483.081,796.908 465.059,859.491C457.16,886.923 364.019,864.312 364.019,864.312Z" style="fill-opacity:0.1;"/>
                        </g>
                        <path d="M409.481,611.525L409.073,603.458L410.72,596.469C411.982,593.151 417.613,582.498 433.15,578.15C447.442,574.15 485.751,569.355 501.823,571.571C527.343,575.088 556.208,584.34 580.226,600.024C609.344,619.04 641.961,654.468 669.789,698.022C681.238,715.94 689.654,729.799 710.122,747.734C713.272,750.495 718.374,750.446 722.162,750.99C729.658,752.066 735.83,752.821 738.525,753.657L748.669,759.124L755.705,768.121L758.5,778.865L757.178,789.075C755.623,793.901 751.823,800.879 742.998,806.259C731.723,813.133 697.539,821.323 681.209,819.695C663.592,817.937 645.324,813.243 622.167,794.502C603.79,779.63 584.337,757.256 578.263,747.271C563.034,722.239 543.865,691.846 511.646,659.579C506.375,654.3 483.921,641.477 479.335,639.538C477.293,638.675 469.598,635.56 458.191,633.889C448.616,632.486 433.108,633.339 429.885,632.546L422.769,629.745L417.355,625.748L411.984,618.611L409.481,611.525Z" style="fill:white;"/>
                        <path d="M435.732,606.198C436,607.52 452.38,605.946 462.07,607.366C477.019,609.556 487.083,613.714 489.76,614.846C495.585,617.308 523.899,633.927 530.593,640.631C564.674,674.764 585.032,706.852 601.142,733.331C606.353,741.896 623.244,760.9 639.01,773.659C656.634,787.922 670.458,791.683 683.866,793.021C698.785,794.509 734.15,785.042 731.629,779.87C730.469,777.489 705.393,779.219 692.476,767.901C669.595,747.852 660.021,732.494 647.222,712.462C621.754,672.603 592.236,639.876 565.588,622.474C544.946,608.994 520.101,601.149 498.168,598.126C481.249,595.794 435.115,603.153 435.732,606.198Z" style="fill:white;"/>
                        <clipPath id="_clip2">
                            <path d="M435.732,606.198C436,607.52 452.38,605.946 462.07,607.366C477.019,609.556 487.083,613.714 489.76,614.846C495.585,617.308 523.899,633.927 530.593,640.631C564.674,674.764 585.032,706.852 601.142,733.331C606.353,741.896 623.244,760.9 639.01,773.659C656.634,787.922 670.458,791.683 683.866,793.021C698.785,794.509 734.15,785.042 731.629,779.87C730.469,777.489 705.393,779.219 692.476,767.901C669.595,747.852 660.021,732.494 647.222,712.462C621.754,672.603 592.236,639.876 565.588,622.474C544.946,608.994 520.101,601.149 498.168,598.126C481.249,595.794 435.115,603.153 435.732,606.198Z"/>
                        </clipPath>
                        <g clip-path="url(#_clip2)">
                            <g transform="matrix(1,0,0,1,-39.293408,5.071305)">
                                <path d="M477.798,603.546C478.205,612.228 477.437,601.398 497.844,607.828C515.053,613.25 562.573,634.201 589.187,670.89C593.117,676.308 635.859,735.336 653.589,752.1C667.744,765.484 692.284,787.24 706.302,791.734C716.942,795.146 787.343,787.139 783.798,780.089C780.253,773.038 723.827,781.228 701.627,766.73C675.77,749.844 638.512,692.804 628.655,678.772C615.783,660.447 576.033,622.563 545.191,606.915C532.602,600.527 477.449,596.108 477.798,603.546Z" style="fill:rgb(1,4,6);fill-opacity:0.1;"/>
                            </g>
                        </g>
                        <path d="M761.504,810.385C760.896,810.627 760.454,810.883 760.454,810.883C750.192,816.503 737.472,814.809 729.036,806.698L722.914,797.785L720.858,789.031L721.133,783.179L723.432,775.732C724.615,773.183 731.485,760.896 735.376,755.981C740.789,749.144 756.448,737.158 764.83,735.045C772.763,733.046 782.327,733.678 790.033,736.452C797.417,739.109 803.169,743.64 806.73,748.263C811.645,754.644 814.98,766.013 813.733,776.031C812.535,785.648 807.669,793.442 802.144,797.981C799.34,800.284 788.837,808.186 779.084,809.615C774.103,810.345 764.44,810.389 761.504,810.385ZM760.957,767.346C760.79,768.009 760.66,768.694 760.572,769.4C760.042,773.661 762.211,778.281 764.301,780.994C765.433,782.464 767.374,784.173 769.646,785.437C768.185,777.33 766.505,768.377 766.153,768.039L760.957,767.346ZM767.995,756.673C768.063,756.617 768.118,756.572 768.156,756.54C768.103,756.584 768.049,756.628 767.995,756.673Z" style="fill:white;"/>
                        <path d="M747.595,787.368C747.595,787.368 751.998,784.957 756.637,783.913C760.215,783.107 768.84,784.024 775.204,783.092C779.557,782.454 783.899,778.288 785.15,777.26C787.914,774.99 787.876,767.692 785.516,764.629C783.156,761.565 776.409,759.77 771.372,761.039C766.975,762.147 759.21,769.041 756.371,772.628C753.224,776.602 747.456,787.235 747.595,787.368Z" style="fill:white;"/>
                        <clipPath id="_clip3">
                            <path d="M747.595,787.368C747.595,787.368 751.998,784.957 756.637,783.913C760.215,783.107 768.84,784.024 775.204,783.092C779.557,782.454 783.899,778.288 785.15,777.26C787.914,774.99 787.876,767.692 785.516,764.629C783.156,761.565 776.409,759.77 771.372,761.039C766.975,762.147 759.21,769.041 756.371,772.628C753.224,776.602 747.456,787.235 747.595,787.368Z"/>
                        </clipPath>
                        <g clip-path="url(#_clip3)">
                            <g transform="matrix(0.570816,-0.821078,-0.821078,-0.570816,969.319491,1846.062186)">
                                <path d="M742.705,786.375C745.123,787.193 750.229,786.285 755.371,780.556C764.477,770.412 776.644,767.69 783.124,770.541C787.462,772.45 789.035,752.784 783.512,752.784C776.614,752.784 757.477,762.228 751.308,768.202C746.321,773.031 740.287,785.557 742.705,786.375Z" style="fill:rgb(1,4,6);fill-opacity:0.1;"/>
                            </g>
                        </g>
                        <path d="M776.058,821.27C771.347,818.41 768.259,817.041 767.133,816.131L761.563,810.074L758.077,802.787L756.913,793.425L758.147,786.576L761.499,779.589L766.729,773.687C768.37,772.275 770.382,770.863 772.772,769.62C776.773,767.54 784.187,765.805 787.312,764.992C798.812,762.002 817.642,767.347 826.232,776.435C835.677,786.428 837.605,799.796 835.105,808.858C833.68,814.022 829.165,822.428 822.615,827.291C818.762,830.151 813.815,832.303 808.186,833.072C802.185,833.893 794.979,832.742 791.339,831.611C788.205,830.637 784.711,828.962 781.2,826.118C779.983,825.132 776.872,822.074 776.058,821.27ZM796.716,817.149C799.315,815.316 804.705,811.38 806.068,809.335C809.167,804.685 810.212,800.195 810.417,796.125C810.634,791.817 809.86,787.655 807.955,783.592C807.561,782.751 806.536,781.483 805.254,780.084C801.019,779.827 794.296,781.561 790.699,784.232C786.982,786.991 784.273,791.66 783.465,794.591C782.046,799.734 781.952,807.605 787.313,813.277C789.385,815.469 793.237,816.866 796.716,817.149Z" style="fill:white;"/>
                        <path d="M783.783,794.462C783.038,795.58 785.848,795.82 790.694,798.806C794.951,801.429 797.338,805.406 799.282,806.011C800.913,806.517 804.817,807.127 806.657,805.761C808.074,804.709 808.977,802.842 809.285,801.725C809.829,799.753 808.827,797.03 806.772,794.856C803.953,791.873 797.822,789.955 794.048,790.937C791.676,791.553 785.08,792.516 783.783,794.462Z" style="fill:white;"/>
                    </g>
                    <g>
                        <path d="M599.39,295.523C604.346,291.844 608.974,288.572 613.021,285.942C642.36,266.881 706.052,242.255 717.887,239.201C722.435,238.027 725.654,238.022 727.202,238.082L738.607,241.086L746.615,247.411L751.263,255.113L753.111,263.928L751.551,274.043C750.955,275.706 748.087,283.836 736.972,289.984C724.491,296.887 663.443,324.506 639.028,342.759C619.393,357.438 600.609,373.903 582.3,393.266C600.58,386.816 619.315,380.833 641.402,369.576C658.433,360.896 675.531,345.017 679.666,341.797C682.065,339.929 683.928,338.91 684.912,338.414L691.662,336.054L698.29,335.524L703.728,336.329L712.824,340.587L718.174,345.718L722.257,352.978L723.952,361.706L723.203,368.913C722.311,372.717 712.888,394.389 696.711,416.071C678.992,439.818 652.037,465.231 633.029,479.655C614.071,494.04 546.176,527.732 520.039,543.152C500.299,554.799 468.561,577.715 461.575,583.447C445.569,596.578 437.945,604.246 429.72,616.295L425.396,621.267L419.519,625.339L409.046,628.27L398.327,626.861L393.131,624.428L387.847,620.259C385.628,618.013 380.516,611.657 379.398,600.601C378.402,590.751 379.617,568.25 382.934,557.306C388.123,540.186 404.734,511.047 417.116,491.427C431.498,468.638 468.934,423.25 473.856,411.999C479.389,399.351 480.58,389.164 482.127,378.45C484.26,363.667 486.709,348.114 495.152,327.465C504.14,305.48 515.872,281.399 522.456,264.72C530.908,243.31 547.422,200.717 552.639,192.985C554.806,189.773 556.96,187.697 558.54,186.389L567.407,181.451L576.251,180.058L583.575,181.144L588.994,183.398L594.041,186.984L598.508,192.145L601.511,197.95C603.661,203.471 609.391,231.1 604.706,267.916C603.604,276.576 601.65,286.144 599.39,295.523Z" style="fill:white;"/>
                        <path d="M439.763,505.741C428.578,523.465 413.254,549.621 408.567,565.087C405.077,576.603 404.967,605.035 407.602,601.174C417.194,587.123 425.928,578.03 444.593,562.717C451.985,556.652 485.55,532.383 506.436,520.061C531.948,505.009 598.34,472.336 616.845,458.295C634.27,445.072 659.005,421.802 675.248,400.033C689.603,380.794 698.188,362.076 697.081,362.305C695.786,362.573 674.513,382.782 653.559,393.462C623.187,408.942 599.028,414.828 573.859,425.036C556.68,432.004 536.576,443.705 523.365,451.142C499.085,464.81 458.167,503.452 458.167,503.452C458.167,503.452 506.11,444.154 529.43,413.994C559.409,375.222 590.082,345.891 622.998,321.283C651.014,300.338 725.57,267.134 726.339,264.991C727.107,262.848 657.755,288.838 627.607,308.426C609.477,320.205 579.207,345.553 561.534,361.145C548.76,372.414 521.564,401.978 521.564,401.978C521.564,401.978 552.172,363.23 559.885,336.393C562.367,327.755 574.701,291.508 578.135,264.53C582.362,231.317 577.398,207.266 576.055,206.872C573.391,206.093 556.06,252.552 547.369,274.569C540.753,291.327 528.974,315.527 519.943,337.616C505.158,373.775 511.763,392.188 498.393,422.75C493.269,434.462 454.734,482.018 439.763,505.741Z" style="fill:white;"/>
                        <clipPath id="_clip4">
                            <path d="M439.763,505.741C428.578,523.465 413.254,549.621 408.567,565.087C405.077,576.603 404.967,605.035 407.602,601.174C417.194,587.123 425.928,578.03 444.593,562.717C451.985,556.652 485.55,532.383 506.436,520.061C531.948,505.009 598.34,472.336 616.845,458.295C634.27,445.072 659.005,421.802 675.248,400.033C689.603,380.794 698.188,362.076 697.081,362.305C695.786,362.573 674.513,382.782 653.559,393.462C623.187,408.942 599.028,414.828 573.859,425.036C556.68,432.004 536.576,443.705 523.365,451.142C499.085,464.81 458.167,503.452 458.167,503.452C458.167,503.452 506.11,444.154 529.43,413.994C559.409,375.222 590.082,345.891 622.998,321.283C651.014,300.338 725.57,267.134 726.339,264.991C727.107,262.848 657.755,288.838 627.607,308.426C609.477,320.205 579.207,345.553 561.534,361.145C548.76,372.414 521.564,401.978 521.564,401.978C521.564,401.978 552.172,363.23 559.885,336.393C562.367,327.755 574.701,291.508 578.135,264.53C582.362,231.317 577.398,207.266 576.055,206.872C573.391,206.093 556.06,252.552 547.369,274.569C540.753,291.327 528.974,315.527 519.943,337.616C505.158,373.775 511.763,392.188 498.393,422.75C493.269,434.462 454.734,482.018 439.763,505.741Z"/>
                        </clipPath>
                        <g clip-path="url(#_clip4)">
                            <path d="M405.77,610.291C405.77,610.291 409.951,574.787 426.276,561.496C451.171,541.228 503.944,509.803 530.304,493.337C547.858,482.372 569.916,472.163 584.43,462.705C605.052,449.268 693.573,362.689 708.573,356.535C723.335,350.478 665.728,422.363 653.228,432.838C602.76,475.131 405.77,610.291 405.77,610.291" style="fill-opacity:0.1;"/>
                            <path d="M576.067,206.863C576.067,206.863 571.641,240.541 570.246,247.202C561.421,289.331 539.617,326.299 535.872,356.173C534.374,368.119 522.496,394.924 519.533,403.446C518.651,405.981 525.545,396.92 525.545,396.92L554.7,358.84L582.87,257.009C582.87,257.009 588.098,211.092 576.067,206.863Z" style="fill-opacity:0.1;"/>
                            <path d="M492.204,447.248L521.7,402.057C521.7,402.057 528.139,395.783 533.361,388.764C550.246,368.73 545.57,364.33 593.509,327.044C595.79,325.27 621.348,305.392 621.768,304.553C622.232,303.625 635.677,294.588 641.952,293.019C659.679,288.587 685.681,269.048 707.12,264.761C723.13,261.558 729.404,257.604 731.389,273.94C705.319,300.01 658.462,294.386 625.228,327.621C621.303,331.546 569.573,376.213 564.674,383.561C563.37,385.518 562.007,384.3 545.067,405.476C537.938,414.386 538.812,414.819 531.226,423.353C514.32,442.372 490.844,472.834 487.248,474.633C485.085,475.714 475.349,487.885 473.612,488.454C471.48,489.153 458.702,503.44 458.472,503.901C457.374,506.096 492.204,447.248 492.204,447.248Z" style="fill-opacity:0.1;"/>
                        </g>
                        <g>
                            <path d="M529.123,408.947C527.304,402.925 526.537,391.523 535.942,379.924C544.379,369.517 569.744,351.776 586.019,347.584C601.586,343.576 632.885,345.405 645.852,349.587C659.919,354.124 665.591,363.838 667.407,369.367C669.633,376.145 670.501,388.734 658.955,400.525C650.248,409.417 624.412,424.199 608.801,428.219C593.516,432.156 564.278,432.581 552.218,429.498C537.068,425.624 531.048,415.321 529.123,408.947Z" style="fill:white;"/>
                            <path d="M554.763,401.19C556.228,406.042 587.509,406.023 602.125,402.259C616.741,398.495 643.532,382.522 641.96,377.736C640.389,372.95 607.311,369.781 592.695,373.545C578.079,377.309 553.297,396.338 554.763,401.19Z" style="fill:white;"/>
                            <clipPath id="_clip5">
                                <path d="M554.763,401.19C556.228,406.042 587.509,406.023 602.125,402.259C616.741,398.495 643.532,382.522 641.96,377.736C640.389,372.95 607.311,369.781 592.695,373.545C578.079,377.309 553.297,396.338 554.763,401.19Z"/>
                            </clipPath>
                            <g clip-path="url(#_clip5)">
                                <g transform="matrix(1,0,0,1,6.034056,-2.931595)">
                                    <path d="M616.802,387.279C608.058,390.479 596.559,396.21 581.275,401.037C568.177,405.173 546.944,396.759 547.635,407.128C547.781,409.319 558.411,410.035 563.435,411.166C566.586,411.874 568.639,409.706 599.566,407.128C611.058,406.171 607.219,405.099 624.663,398.557C641.238,392.342 643.459,384.264 639.539,379.69C638.897,378.941 637.365,379.593 635.073,379.944C632.782,380.294 622.369,385.242 616.802,387.279Z" style="fill-opacity:0.1;"/>
                                </g>
                            </g>
                            <g transform="matrix(0.979612,0.200897,-0.200897,0.979612,140.571778,-153.228593)">
                                <path d="M529.126,408.938C527.307,402.918 526.54,391.519 535.941,379.923C544.378,369.518 569.739,351.78 586.013,347.589C601.579,343.58 632.878,345.41 645.845,349.592C659.914,354.13 665.588,363.845 667.404,369.375C669.629,376.151 670.498,388.737 658.956,400.524C650.25,409.415 624.417,424.194 608.808,428.215C593.523,432.151 564.286,432.576 552.225,429.493C537.073,425.619 531.052,415.313 529.126,408.938Z" style="fill:white;"/>
                                <path d="M554.763,401.19C556.228,406.042 587.509,406.023 602.125,402.259C616.741,398.495 643.532,382.522 641.96,377.736C640.389,372.95 607.311,369.781 592.695,373.545C578.079,377.309 553.297,396.338 554.763,401.19Z" style="fill:white;"/>
                                <clipPath id="_clip6">
                                    <path d="M554.763,401.19C556.228,406.042 587.509,406.023 602.125,402.259C616.741,398.495 643.532,382.522 641.96,377.736C640.389,372.95 607.311,369.781 592.695,373.545C578.079,377.309 553.297,396.338 554.763,401.19Z"/>
                                </clipPath>
                                <g clip-path="url(#_clip6)">
                                    <g transform="matrix(0.979612,-0.200897,0.200897,0.979612,-108.917889,179.198723)">
                                        <path d="M614.725,354.835C617.528,354.772 640.873,359.752 663.072,355.313C664.229,355.081 690.45,347.089 681.316,337.955C680.397,337.036 696.243,336.82 698.268,344.919C698.286,344.99 699.587,346.011 696.851,350.116C673.741,363.321 671.96,357.645 645.828,362.871C636.379,364.761 617.95,365.464 616.726,364.852C614.721,363.85 595.316,350.926 614.725,354.835Z" style="fill-opacity:0.1;"/>
                                    </g>
                                </g>
                            </g>
                            <g transform="matrix(0.96866,0.248391,-0.248391,0.96866,218.916789,-214.043668)">
                                <path d="M529.126,408.936C527.308,402.917 526.541,391.518 535.941,379.924C544.377,369.519 569.738,351.781 586.011,347.59C601.577,343.581 632.876,345.412 645.844,349.594C659.913,354.131 665.587,363.847 667.404,369.377C669.629,376.153 670.497,388.738 658.957,400.523C650.251,409.414 624.419,424.193 608.809,428.213C593.525,432.15 564.287,432.575 552.227,429.491C537.074,425.617 531.052,415.312 529.126,408.936Z" style="fill:white;"/>
                                <path d="M554.763,401.19C556.228,406.042 587.509,406.023 602.125,402.259C616.741,398.495 643.532,382.522 641.96,377.736C640.389,372.95 607.311,369.781 592.695,373.545C578.079,377.309 553.297,396.338 554.763,401.19Z" style="fill:white;"/>
                                <clipPath id="_clip7">
                                    <path d="M554.763,401.19C556.228,406.042 587.509,406.023 602.125,402.259C616.741,398.495 643.532,382.522 641.96,377.736C640.389,372.95 607.311,369.781 592.695,373.545C578.079,377.309 553.297,396.338 554.763,401.19Z"/>
                                </clipPath>
                                <g clip-path="url(#_clip7)">
                                    <g transform="matrix(0.96866,-0.248391,0.248391,0.96866,-158.889329,261.712501)">
                                        <path d="M719.078,295.163C722.26,295.959 732.035,312.254 713.786,315.572C678.718,321.948 660.111,308.935 654.242,314.804C650.25,318.795 686.612,330.144 692.81,330.501C727.369,332.495 734.286,329.613 737.597,328.234C752.923,321.848 755.672,317.249 754.227,308.58C752.379,297.498 722.843,291.398 718.889,295.352" style="fill-opacity:0.1;"/>
                                    </g>
                                </g>
                            </g>
                            <g transform="matrix(0.86006,0.185367,-0.185367,0.86006,316.995161,-166.247235)">
                                <path d="M525.624,409.996C523.596,403.284 522.617,390.545 533.1,377.616C541.86,366.811 568.2,348.396 585.099,344.044C601.195,339.898 633.558,341.784 646.966,346.108C662.631,351.16 668.858,362.076 670.88,368.234C673.367,375.807 674.471,389.912 661.57,403.087C652.565,412.282 625.866,427.602 609.721,431.76C593.945,435.823 563.769,436.222 551.321,433.04C534.406,428.715 527.773,417.113 525.624,409.996Z" style="fill:white;"/>
                                <path d="M554.763,401.19C556.228,406.042 587.509,406.023 602.125,402.259C616.741,398.495 643.532,382.522 641.96,377.736C640.389,372.95 607.311,369.781 592.695,373.545C578.079,377.309 553.297,396.338 554.763,401.19Z" style="fill:white;"/>
                                <clipPath id="_clip8">
                                    <path d="M554.763,401.19C556.228,406.042 587.509,406.023 602.125,402.259C616.741,398.495 643.532,382.522 641.96,377.736C640.389,372.95 607.311,369.781 592.695,373.545C578.079,377.309 553.297,396.338 554.763,401.19Z"/>
                                </clipPath>
                                <g clip-path="url(#_clip8)">
                                    <g transform="matrix(1.111097,-0.239473,0.239473,1.111097,-312.400738,260.628517)">
                                        <path d="M715.429,281.734C730.598,279.666 730.571,282.679 749.822,282.679C761.271,282.679 761.228,282.777 772.499,281.167C781.749,279.846 792.492,272.285 792.492,272.285C792.492,272.285 794.679,267.864 802.583,266.427C807.941,265.453 802.973,289.302 781.947,290.616C773.234,291.16 773.41,292.695 758.703,292.695C753.721,292.695 735.571,293.979 723.176,287.781C719.168,285.777 719.511,283.775 715.429,281.734Z" style="fill-opacity:0.1;"/>
                                    </g>
                                </g>
                            </g>
                            <g transform="matrix(1.113802,-0.275971,0.275971,1.113802,-26.557336,-34.859231)">
                                <path d="M532.413,407.958C530.79,402.586 530.223,392.444 538.612,382.097C546.746,372.065 571.194,354.959 586.883,350.918C601.953,347.037 632.252,348.815 644.806,352.864C657.369,356.915 662.52,365.497 664.142,370.435C666.122,376.464 666.767,387.625 656.498,398.112C648.07,406.718 623.047,420.994 607.937,424.885C593.113,428.703 564.758,429.153 553.061,426.163C539.57,422.713 534.128,413.633 532.413,407.958Z" style="fill:white;"/>
                                <path d="M554.763,401.19C556.228,406.042 587.509,406.023 602.125,402.259C616.741,398.495 643.532,382.522 641.96,377.736C640.389,372.95 607.311,369.781 592.695,373.545C578.079,377.309 553.297,396.338 554.763,401.19Z" style="fill:white;"/>
                                <clipPath id="_clip9">
                                    <path d="M554.763,401.19C556.228,406.042 587.509,406.023 602.125,402.259C616.741,398.495 643.532,382.522 641.96,377.736C640.389,372.95 607.311,369.781 592.695,373.545C578.079,377.309 553.297,396.338 554.763,401.19Z"/>
                                </clipPath>
                                <g clip-path="url(#_clip9)">
                                    <g transform="matrix(0.845894,0.20959,-0.20959,0.845894,15.15854,35.053385)">
                                        <path d="M793.789,202.81C787.058,211.464 763.303,232.436 741.633,239.659C740.31,240.1 731.372,243.824 730.483,244.195C727.458,245.455 712.93,250.298 711.397,250.809C706.988,252.278 696.505,257.233 700.814,260.824C701.895,261.725 703.85,263.354 718.389,260.446C740.436,256.037 742.545,254.982 744.467,254.021C744.804,253.853 766.694,246.724 777.915,235.502C784.409,229.009 789.493,217.688 792.655,214.526C795.376,211.805 795.957,208.323 796.057,207.723C796.449,205.367 797.76,205.08 796.057,203.377C795.723,203.043 795.663,203.172 793.411,202.999" style="fill-opacity:0.1;"/>
                                    </g>
                                </g>
                            </g>
                            <g transform="matrix(0.845477,-0.67717,0.67717,0.845477,-95.927298,325.387301)">
                                <path d="M531.076,408.364C529.374,402.73 528.729,392.086 537.527,381.234C545.786,371.048 570.611,353.681 586.541,349.579C601.814,345.645 632.523,347.444 645.246,351.547C658.411,355.793 663.77,364.823 665.469,369.998C667.549,376.329 668.28,388.06 657.496,399.073C648.953,407.797 623.595,422.28 608.279,426.225C593.266,430.091 564.549,430.532 552.703,427.503C538.548,423.884 532.875,414.319 531.076,408.364Z" style="fill:white;"/>
                                <path d="M554.763,401.19C556.228,406.042 587.509,406.023 602.125,402.259C616.741,398.495 643.532,382.522 641.96,377.736C640.389,372.95 607.311,369.781 592.695,373.545C578.079,377.309 553.297,396.338 554.763,401.19Z" style="fill:white;"/>
                                <clipPath id="_clip10">
                                    <path d="M554.763,401.19C556.228,406.042 587.509,406.023 602.125,402.259C616.741,398.495 643.532,382.522 641.96,377.736C640.389,372.95 607.311,369.781 592.695,373.545C578.079,377.309 553.297,396.338 554.763,401.19Z"/>
                                </clipPath>
                                <g clip-path="url(#_clip10)">
                                    <g transform="matrix(0.720542,0.577106,-0.577106,0.720542,256.902489,-179.094872)">
                                        <path d="M700.599,211.342C696.091,220.334 689.362,237.495 673.566,256.45C668.378,262.676 637.418,279.057 643.359,290.937C645.15,294.521 653.577,288.622 654.319,288.103C659.851,284.23 659.767,284.095 666.413,282.433C666.793,282.338 673.773,278.287 677.752,274.308C677.991,274.068 696.494,253.02 699.295,246.717C700.103,244.899 707.409,216.359 707.798,214.025C707.977,212.953 709.474,203.974 700.617,202.498C698.09,202.077 702.256,208.037 700.599,211.342Z" style="fill-opacity:0.1;"/>
                                    </g>
                                </g>
                            </g>
                            <g transform="matrix(0.742488,-0.875371,0.875371,0.742488,-174.55413,514.006284)">
                                <path d="M532.405,407.957C530.783,402.588 530.22,392.457 538.604,382.116C546.739,372.082 571.193,354.973 586.886,350.931C601.958,347.05 632.264,348.827 644.82,352.876C657.38,356.927 662.528,365.499 664.15,370.436C666.129,376.462 666.77,387.611 656.506,398.093C648.076,406.702 623.048,420.98 607.935,424.872C593.107,428.691 564.746,429.141 553.047,426.15C539.56,422.702 534.119,413.631 532.405,407.957Z" style="fill:white;"/>
                                <path d="M554.763,401.19C556.228,406.042 587.509,406.023 602.125,402.259C616.741,398.495 643.532,382.522 641.96,377.736C640.389,372.95 607.311,369.781 592.695,373.545C578.079,377.309 553.297,396.338 554.763,401.19Z" style="fill:white;"/>
                                <clipPath id="_clip11">
                                    <path d="M554.763,401.19C556.228,406.042 587.509,406.023 602.125,402.259C616.741,398.495 643.532,382.522 641.96,377.736C640.389,372.95 607.311,369.781 592.695,373.545C578.079,377.309 553.297,396.338 554.763,401.19Z"/>
                                </clipPath>
                                <g clip-path="url(#_clip11)">
                                    <g transform="matrix(0.563532,0.664386,-0.664386,0.563532,439.865597,-173.687444)">
                                        <path d="M628.73,235.255C628.73,235.255 628.738,250.483 625.697,260.814C624.09,266.273 617.041,285.564 614.476,289.137C608.767,297.09 593.311,314.555 585.882,320.745C580.494,325.235 582.107,333.499 586.355,331.375C589.868,329.618 596.38,331.809 603.126,321.69C606.769,316.226 627.06,301.223 630.527,294.289C632.5,290.344 639.864,286.629 641.157,263.344C641.226,262.111 644.453,221.715 639.031,221.298C621.767,219.97 628.73,235.255 628.73,235.255Z" style="fill-opacity:0.1;"/>
                                    </g>
                                </g>
                            </g>
                        </g>
                    </g>
                    <g>
                        <g>
                            <path d="M330.449,313.131C337.758,309.174 349.194,304.412 360.905,305.174C379.104,306.36 384.445,309.039 390.262,313.145C392.567,312.991 395.083,312.881 396.691,312.979C403.139,313.373 409.459,316.141 413.64,317.601C423.801,321.148 435.86,332.814 439.927,340.097C441.876,343.586 442.896,346.794 443.409,349.308L443.868,357.669L440.671,368.227L437.236,373.215L431.872,378.021C430.283,379.115 425.88,380.482 421.733,381.606C421.008,387.225 419.683,392.752 417.275,395.409C417.024,395.686 416.769,395.965 416.512,396.244L423.513,619.298C423.772,627.549 420.218,635.459 413.879,640.741C413.879,640.741 384.547,664.877 373.907,678.574C361.677,694.317 341.485,734.179 341.485,734.179C335.776,745.337 323.102,751.045 310.971,747.923C298.84,744.801 290.49,733.682 290.869,721.152L300.685,396.033C298.762,393.79 297.008,391.297 295.931,388.756C294.98,386.512 294.501,383.654 294.293,380.774C288.647,379.467 283,377.755 281.118,375.847L276,368.644L273.234,358.704C272.663,352.199 274.176,343.92 279.999,335.835C285.401,328.335 296.35,319.602 308.802,315.245C315.403,312.935 324.01,312.79 330.449,313.131ZM300.924,382.152C304.78,383.232 308.118,383.366 308.118,383.366C308.118,383.366 305.033,382.923 300.924,382.152ZM417.603,385.648C417.361,385.949 417.159,386.19 417.014,386.348C417.218,386.126 417.414,385.893 417.603,385.648ZM347.254,628.79C354.899,621.312 363.261,613.769 369.568,608.216L362.609,386.531C362.372,378.992 365.32,371.703 370.729,366.451C370.729,366.451 371.229,365.966 372.01,365.19C372.025,365.073 372.039,364.957 372.055,364.84C369.866,363.978 367.857,362.908 366.038,361.677C363.694,360.089 363.245,359.052 357.426,358.673C355.453,358.545 354.875,360.799 354.281,361.238C353.057,362.143 351.957,362.863 351.023,363.414L346.501,365.391C346.567,365.833 346.627,366.278 346.679,366.723C348.839,369.022 350.889,371.621 352.078,374.172C353.846,377.967 354.701,382.124 354.575,386.309L347.254,628.79Z" style="fill:white;"/>
                            <path d="M317.642,721.962C317.642,721.962 339.577,679.092 352.76,662.121C364.514,646.99 396.741,620.14 396.741,620.14L389.382,385.689C389.382,385.689 393.903,381.299 397.431,377.404C399.073,375.592 394.79,370.927 397.312,368.187C398.846,366.52 402.413,360.157 405.77,358.208C408.94,356.367 416.981,357.473 417.2,355.149C417.42,352.825 410.539,344.909 404.818,342.911C402.376,342.059 398.827,339.965 395.061,339.735C390.431,339.453 384.105,341.545 381.048,339.475C375.098,335.446 373.935,332.886 359.165,331.924C345.843,331.056 338.67,340.484 336.653,340.628C334.77,340.763 326.009,337.621 317.642,340.549C307.934,343.946 299.504,351.652 299.917,356.357C300.178,359.322 306.812,353.881 311.651,358.985C314.973,362.49 317.741,365.075 320.577,370.321C322.063,373.069 319.42,375.527 320.59,378.288C322.263,382.233 326.132,381.918 327.801,385.5L317.642,721.962Z" style="fill:white;"/>
                            <clipPath id="_clip12">
                                <rect x="359.165" y="329.867" width="58.04" height="392.094"/>
                            </clipPath>
                            <g clip-path="url(#_clip12)">
                                <path d="M330.414,313.13C337.736,309.146 349.185,304.355 360.905,305.118C379.108,306.304 384.45,309.02 390.271,313.144C392.574,312.991 395.085,312.881 396.691,312.979C403.139,313.373 409.459,316.141 413.64,317.601C423.801,321.148 435.86,332.814 439.927,340.097C441.876,343.586 442.896,346.794 443.409,349.308L443.868,357.669L440.671,368.227L437.236,373.215L431.872,378.021C430.283,379.115 425.88,380.482 421.733,381.606C421.008,387.225 419.683,392.752 417.275,395.409C417.024,395.686 416.769,395.965 416.512,396.244L423.513,619.298C423.772,627.549 420.218,635.459 413.879,640.741C413.879,640.741 384.547,664.877 373.907,678.574C361.677,694.317 341.485,734.179 341.485,734.179C335.776,745.337 323.102,751.045 310.971,747.923C298.84,744.801 290.49,733.682 290.869,721.152L300.685,396.033C298.762,393.79 297.008,391.297 295.931,388.756C294.98,386.512 294.501,383.654 294.293,380.774C288.647,379.467 283,377.755 281.118,375.847L276,368.644L273.234,358.704C272.663,352.199 274.176,343.92 279.999,335.835C285.401,328.335 296.35,319.602 308.802,315.245C315.391,312.939 323.979,312.79 330.414,313.13ZM300.924,382.152C304.78,383.232 308.118,383.366 308.118,383.366C308.118,383.366 305.033,382.923 300.924,382.152ZM417.603,385.648C417.361,385.949 417.159,386.19 417.014,386.348C417.218,386.126 417.414,385.893 417.603,385.648ZM347.254,628.79C354.899,621.312 363.261,613.769 369.568,608.216L362.609,386.531C362.372,378.992 365.32,371.703 370.729,366.451C370.729,366.451 371.229,365.966 372.01,365.19C372.025,365.073 372.039,364.957 372.055,364.84C369.866,363.978 367.857,362.908 366.038,361.677C363.691,360.087 363.252,358.996 357.426,358.617C355.475,358.49 354.929,360.751 354.342,361.188C353.115,362.099 352.014,362.824 351.08,363.379L346.501,365.39C346.567,365.833 346.627,366.278 346.679,366.723C348.839,369.022 350.889,371.621 352.078,374.172C353.846,377.967 354.701,382.124 354.575,386.309L347.254,628.79Z" style="fill:white;"/>
                                <path d="M317.642,721.962C317.642,721.962 339.577,679.092 352.76,662.121C364.514,646.99 396.741,620.14 396.741,620.14L389.382,385.689C389.382,385.689 393.903,381.299 397.431,377.404C399.073,375.592 394.79,370.927 397.312,368.187C398.846,366.52 402.413,360.157 405.77,358.208C408.94,356.367 416.981,357.473 417.2,355.149C417.42,352.825 410.539,344.909 404.818,342.911C402.376,342.059 398.827,339.965 395.061,339.735C390.431,339.453 384.105,341.545 381.048,339.475C375.098,335.446 373.935,332.829 359.165,331.867C345.843,331 338.67,340.484 336.653,340.628C334.77,340.763 326.009,337.621 317.642,340.549C307.934,343.946 299.504,351.652 299.917,356.357C300.178,359.322 306.812,353.881 311.651,358.985C314.973,362.49 317.741,365.075 320.577,370.321C322.063,373.069 319.42,375.527 320.59,378.288C322.263,382.233 326.132,381.918 327.801,385.5L317.642,721.962Z" style="fill:white;"/>
                            </g>
                        </g>
                        <g>
                            <g transform="matrix(1,0,0,1,1.73894,0)">
                                <path d="M428.871,355.109C426.807,357.292 424.557,359.399 422.65,360.541L415.359,363.696L408.59,364.77C404.903,364.914 396.31,361.607 391.127,359.448L387.623,359.655C377.385,360.952 367.314,356.248 361.731,347.563C356.149,338.878 356.048,327.755 361.473,318.97C361.473,318.97 375.043,293.945 410.141,294.97C428.182,295.498 436.52,302.723 441.108,307.76C446.852,314.067 448.586,320.371 449.259,323.732L449.404,333.657L446.146,342.709L438.263,351.388C436.972,352.311 432.692,353.845 428.871,355.109ZM433.373,349.963C433.579,349.765 433.757,349.577 433.902,349.401C434.236,348.993 435.184,347.684 435.184,347.684C435.184,347.684 434.486,348.602 433.373,349.963ZM396.211,330.297C396.288,331.596 396.461,332.916 396.729,334.257C397.132,336.27 398.073,340.096 401.514,343.874C402.454,344.906 403.51,347.251 406.301,348.177L407.045,347.153L396.211,330.297Z" style="fill:white;"/>
                                <path d="M384.259,333.062C384.259,333.062 393.311,331.915 397.26,333.028C400.872,334.046 404.89,338.088 407.545,337.985C410.093,337.885 412.504,333.239 413.188,332.405C414.802,330.435 423.331,330.68 422.994,328.994C422.657,327.309 420.685,322.096 409.359,321.765C391.556,321.245 384.259,333.062 384.259,333.062Z" style="fill:white;"/>
                            </g>
                            <g transform="matrix(-1,0,0,1,714.810925,0)">
                                <path d="M391.127,359.448C396.31,361.607 404.903,364.914 408.59,364.77L415.359,363.696L422.65,360.541C424.557,359.399 426.807,357.292 428.871,355.109C432.692,353.845 436.972,352.311 438.263,351.388L446.146,342.709L449.404,333.657L449.259,323.732C448.586,320.371 446.852,314.067 441.108,307.76C436.52,302.723 428.182,295.498 410.141,294.97C375.043,293.945 361.473,318.97 361.473,318.97C356.048,327.755 356.149,338.878 361.731,347.563C367.314,356.248 377.385,360.952 387.623,359.655L391.127,359.448ZM433.373,349.963C434.486,348.602 435.184,347.684 435.184,347.684C435.184,347.684 434.236,348.993 433.902,349.401C433.757,349.577 433.579,349.765 433.373,349.963ZM396.211,330.297L407.045,347.153L406.301,348.177C403.51,347.251 402.454,344.906 401.514,343.874C398.073,340.096 397.132,336.27 396.729,334.257C396.461,332.916 396.288,331.596 396.211,330.297Z" style="fill:white;"/>
                                <path d="M384.259,333.062C384.259,333.062 393.311,331.915 397.26,333.028C400.872,334.046 404.89,338.088 407.545,337.985C410.093,337.885 412.504,333.239 413.188,332.405C414.802,330.435 423.331,330.68 422.994,328.994C422.657,327.309 420.685,322.096 409.359,321.765C391.556,321.245 384.259,333.062 384.259,333.062Z" style="fill:white;"/>
                            </g>
                            <path d="M342.491,286.781C348.285,284.055 354.094,282.849 358.4,282.824C362.807,282.799 368.648,283.971 374.451,286.678C379.008,285.06 383.585,283.743 386.622,283.643C396.127,283.33 409.007,288.401 414.683,292.734C417.422,294.825 419.402,296.999 420.779,298.843L424.243,304.914L426.326,316.471L424.24,326.008L420.505,332.449L416.084,337.06C414.725,338.211 411.072,340.476 408.764,341.872C403.572,348.6 395.078,357.817 386.873,358.855C382.499,359.409 378.032,359.114 373.313,357.858C370.078,356.996 366.306,353.638 359.541,353.157C358.557,353.399 353.574,354.634 351.16,355.415C345.668,357.191 340.997,358.537 338.77,358.872L329.854,358.855L320.635,355.598C317.475,353.786 310.571,345.685 307.091,341.464C303.188,338.586 298.504,335.194 296.659,332.763L293.274,327.059L291.398,321.239L290.829,315.139L291.732,308.574L295.782,299.735C297.065,297.861 298.825,295.773 301.186,293.749C306.917,288.835 320.497,283.212 330.368,283.603C333.312,283.72 337.9,285.099 342.491,286.781ZM409.767,340.549C411.27,339.019 413.769,334.755 413.769,334.755C413.769,334.755 412.26,337.207 409.767,340.549Z" style="fill:white;"/>
                            <path d="M333.949,332.337C335.412,333.176 351.027,325.97 359.953,326.335C372.381,326.843 378.163,332.938 383.514,332.261C388.076,331.684 387.884,324.592 390.659,321.765C392.868,319.514 400.218,316.908 399.512,315.21C398.806,313.512 392.142,310.281 387.504,310.434C382.794,310.59 371.905,316.549 371.905,316.549C371.905,316.549 363.057,309.604 358.554,309.63C354.051,309.656 344.889,316.704 344.889,316.704C344.889,316.704 333.849,310.568 329.308,310.388C324.786,310.209 318.139,313.473 317.642,315.37C317.146,317.266 322.613,319.572 325.502,321.765C326.937,322.855 331.178,330.749 333.949,332.337Z" style="fill:white;"/>
                            <g transform="matrix(1.056455,0,0,1.013451,-20.11131,-1.964994)">
                                <path d="M358.554,127.942C367.845,127.928 376.615,133.265 381.063,142.158C381.063,142.158 416.742,214.141 421.151,229.181C422.617,234.183 423.155,242.065 420.101,251.181C417.757,258.179 412.32,267.84 408.339,274.458L408.438,289.002C408.486,296.061 405.827,302.847 401.053,307.85C397.296,311.787 392.476,314.362 387.295,315.272C384.642,321.441 379.763,326.454 373.492,329.045C368.635,331.051 363.433,331.402 358.555,330.249C352.8,331.608 346.663,330.855 341.251,327.918C336.092,325.119 332.113,320.62 329.814,315.272C324.633,314.362 319.812,311.787 316.056,307.85C311.281,302.847 308.622,296.061 308.67,289.002L308.77,274.459C304.788,267.839 299.351,258.178 297.007,251.181C293.953,242.065 294.491,234.183 295.957,229.181C300.366,214.141 336.045,142.158 336.045,142.158C340.493,133.265 349.263,127.928 358.554,127.942Z" style="fill:white;"/>
                                <path d="M358.554,302.671C356.481,302.341 354.676,303.217 352.95,304.452L352.798,289.138L334.024,289.189L334.177,266.727C334.177,266.727 318.342,243.265 320.203,236.917C324.391,222.633 358.523,154.395 358.523,154.395L358.554,302.671ZM358.554,302.671C358.554,302.671 358.563,262.261 358.567,241.127C358.572,216.105 358.585,154.395 358.585,154.395C358.585,154.395 392.717,222.633 396.905,236.917C398.766,243.265 382.931,266.727 382.931,266.727L383.084,289.189L364.31,289.138L364.158,304.452C362.742,302.912 360.924,302.214 358.554,302.671Z" style="fill:white;"/>
                            </g>
                        </g>
                        <g transform="matrix(1,0,0,1,0.279096,1.291778)">
                            <path d="M322.199,536.884C317.935,528.785 318.094,518.985 322.701,511.003C318.031,502.684 318.167,492.514 322.938,484.356C318.631,475.809 319.177,465.493 324.593,457.389L325.014,456.642C319.587,447.954 319.55,436.808 325.152,428.022L335.694,411.487C340.614,403.771 349.128,399.1 358.275,399.1C367.422,399.1 375.936,403.771 380.856,411.487L391.398,428.022C397,436.808 396.963,447.954 391.536,456.642L391.957,457.389C397.373,465.493 397.919,475.809 393.612,484.356C398.383,492.514 398.519,502.684 393.849,511.003C398.456,518.985 398.615,528.785 394.351,536.884C399.129,545.199 399.087,555.463 394.267,563.731C400.124,574.351 398.141,587.783 389.102,596.244L386.751,598.658L384.237,607.007C381.222,618.894 370.53,627.218 358.275,627.218C346.02,627.218 335.327,618.894 332.312,607.007L329.799,598.658L327.448,596.244C318.409,587.783 316.426,574.351 322.283,563.731C317.463,555.463 317.421,545.199 322.199,536.884Z" style="fill:white;"/>
                            <path d="M358.275,425.906L368.817,442.441C368.817,442.441 361.914,451.139 362.06,456.114C362.206,461.089 369.691,472.291 369.691,472.291C369.691,472.291 363.358,481.618 363.491,485.884C363.623,490.15 370.486,497.888 370.486,497.888C370.486,497.888 363.782,506.943 363.809,511.362C363.835,515.78 370.645,524.399 370.645,524.399C370.645,524.399 364.047,532.494 364.127,536.8C364.206,541.106 371.122,550.234 371.122,550.234C371.122,550.234 364.418,558.707 364.365,563.112C364.312,567.518 370.804,576.666 370.804,576.666C370.804,576.666 364.647,582.429 363.247,585.082C361.159,589.04 358.275,600.412 358.275,600.412C358.275,600.412 355.391,589.04 353.302,585.082C351.903,582.429 345.745,576.666 345.745,576.666C345.745,576.666 352.237,567.518 352.184,563.112C352.131,558.707 345.427,550.234 345.427,550.234C345.427,550.234 352.343,541.106 352.423,536.8C352.502,532.494 345.904,524.399 345.904,524.399C345.904,524.399 352.714,515.78 352.741,511.362C352.767,506.943 346.063,497.888 346.063,497.888C346.063,497.888 352.926,490.15 353.059,485.884C353.191,481.618 346.858,472.291 346.858,472.291C346.858,472.291 354.344,461.089 354.49,456.114C354.636,451.139 347.733,442.441 347.733,442.441L358.275,425.906Z" style="fill:white;"/>
                        </g>
                        <path d="M371.556,435.332C367.613,437.025 363.077,437.97 357.899,437.843C353.375,437.733 349.437,436.897 346.019,435.538C340.701,438.126 335.299,439.19 331.752,439.149C326.651,439.09 317.298,436.015 317.298,436.015L324.67,437.762L315.943,435.441L309.665,431.429L304.816,425.972L302.027,420.581L300.215,411.36C300.151,409.472 300.437,400.884 300.652,394.921C297.88,391.651 295.44,388.083 294.665,384.984C293.106,378.752 293.979,366.841 297.846,359.134C301.595,351.664 307.406,346.999 312.777,344.647C320.978,341.057 343.271,335.111 358.384,335.015C373.284,334.92 394.561,340.555 402.846,343.765C408.749,346.052 419.447,356.035 422.792,365.6C424.45,370.342 424.825,374.847 424.54,378.446L421.838,388.523C421.02,390.23 418.913,392.91 416.544,395.648L416.855,409.999C417.145,423.392 407.51,434.943 394.291,437.052C394.291,437.052 386.386,438.13 381.512,437.749C377.526,437.437 374.141,436.441 371.556,435.332Z" style="fill:white;"/>
                        <path d="M327.093,411.066C327.093,411.066 330.293,412.324 332.063,412.345C333.93,412.366 337.928,409.238 338.39,407.183C339.471,402.38 338.803,387.321 338.14,382.44C337.826,380.132 333.181,378.574 335.104,377.244C337.392,375.661 352.483,373.907 352.483,373.907L352.483,404.197C352.483,404.197 352.881,410.907 358.554,411.045C364.025,411.179 365.281,404.197 365.281,404.197L365.152,373.783C365.152,373.783 380.01,375.261 382.287,376.752C384.132,377.959 378.815,382.166 378.815,382.166L378.815,404.197C378.815,404.197 380.207,409.714 382.12,410.7C383.82,411.577 390.076,410.58 390.076,410.58L389.533,385.522C389.533,385.522 396.486,379.434 397.687,376.929C398.621,374.981 395.216,369.553 393.176,368.763C386.72,366.262 370.164,361.747 358.554,361.82C346.944,361.894 329.814,366.447 323.513,369.206C321.265,370.19 320.016,375.945 320.649,378.474C321.407,381.503 326.578,382.041 327.264,384.714C328.557,389.753 326.485,411.011 327.093,411.066Z" style="fill:white;"/>
                        <g>
                            <g transform="matrix(0.800295,0,0,0.800295,74.01094,91.428231)">
                                <path d="M425.017,362.145C419.428,366.488 413.355,370.176 408.684,370.359C404.091,370.538 392.707,366.824 388.083,365.24C384.176,364.139 377.337,362.249 377.337,362.249C361.409,357.848 351.074,342.472 353.005,326.048C353.005,326.048 355.577,303.1 375.049,289.896C382.6,284.775 392.77,280.624 406.903,281.037C425.353,281.576 441.58,293.582 449.468,302.935C456.474,311.241 458.631,319.155 459.118,321.593L459.727,330.09L457.963,339.182L453.19,348.313L445.042,356.198L435.525,360.785C433.938,361.273 429.091,361.783 425.017,362.145ZM388.063,365.233C386.83,364.81 386.083,364.541 386.083,364.541C386.083,364.541 387.341,365.016 388.063,365.233ZM427.715,359.972C433.01,357.08 440.549,347.808 440.549,347.808C440.549,347.808 434.823,354.053 427.715,359.972ZM401.018,306.4C393.724,314.47 391.322,323.952 393.481,334.743C393.7,335.837 393.567,342.021 398.284,346.121C399.894,347.521 402.442,347.926 404.949,347.999C408.409,348.1 410.751,346.607 412.599,345.353C418.754,341.18 419.486,333.877 419.486,333.877L401.018,306.4Z" style="fill:white;"/>
                                <path d="M386.246,329.962C386.246,329.962 393.311,331.915 397.26,333.028C400.872,334.046 404.723,336.993 407.378,336.889C409.926,336.789 410.264,331.166 413.082,329.867C416.236,328.414 426.637,329.853 426.3,328.168C425.962,326.483 417.253,314.849 405.926,314.518C388.123,313.998 386.246,329.962 386.246,329.962Z" style="fill:white;"/>
                            </g>
                            <g transform="matrix(-0.800295,0,0,0.800295,644.87618,91.428231)">
                                <path d="M388.083,365.24C392.707,366.824 404.091,370.538 408.684,370.359C413.461,370.172 419.703,366.319 425.395,361.85C430.668,361.168 437.494,360.173 439.285,359.392L446.042,355.485L451.788,350.092L458.637,336.959L459.77,328.959L459.118,321.593C458.631,319.155 456.474,311.241 449.468,302.935C441.58,293.582 425.353,281.576 406.903,281.037C392.77,280.624 382.6,284.775 375.049,289.896C355.577,303.1 353.005,326.048 353.005,326.048C351.074,342.472 361.409,357.848 377.337,362.249C377.337,362.249 384.176,364.139 388.083,365.24ZM427.715,359.972C434.823,354.053 440.549,347.808 440.549,347.808C440.549,347.808 433.01,357.08 427.715,359.972ZM388.063,365.233C387.341,365.016 386.083,364.541 386.083,364.541C386.083,364.541 386.83,364.81 388.063,365.233ZM401.018,306.4L419.486,333.877C419.486,333.877 418.754,341.18 412.599,345.353C410.751,346.607 408.409,348.1 404.949,347.999C402.442,347.926 399.894,347.521 398.284,346.121C393.567,342.021 393.7,335.837 393.481,334.743C391.322,323.952 393.724,314.47 401.018,306.4Z" style="fill:white;"/>
                                <path d="M386.246,329.962C386.246,329.962 393.311,331.915 397.26,333.028C400.872,334.046 404.723,336.993 407.378,336.889C409.926,336.789 410.264,331.166 413.082,329.867C416.236,328.414 426.637,329.853 426.3,328.168C425.962,326.483 417.253,314.849 405.926,314.518C388.123,313.998 386.246,329.962 386.246,329.962Z" style="fill:white;"/>
                            </g>
                            <g transform="matrix(0.800295,0,0,0.800295,72.964479,89.56302)">
                                <path d="M359.928,359.905C357.277,360.695 342.536,365.07 339.762,365.487L328.79,365.459L317.313,361.402L311.343,357.072L305.486,350.214L301.366,341.544C300.594,339.151 299.944,336.289 299.641,333.007C299.051,326.639 300.287,315.782 303.431,306.784C306.553,297.845 311.614,290.718 315.842,286.816C320.191,282.802 326.564,279.011 334.403,276.804C342.15,274.623 352.293,273.98 357.427,273.95C362.355,273.922 373.563,274.536 382.087,276.828C390.36,279.052 397.061,282.952 401.48,286.958C405.973,291.033 412.018,299.739 415.392,309.669C418.859,319.87 419.276,330.794 417.964,337.099L413.996,347.75L407.188,356.401L398.122,362.494L387.712,365.492C382.512,366.149 377.203,365.815 371.594,364.322C368.783,363.573 365.591,360.545 359.928,359.905ZM358.981,310.104C358.867,310.241 358.753,310.378 358.64,310.517C355.725,314.105 352.928,318.984 352.083,325.491C351.918,326.761 351.083,329.119 351.868,330.847C353.104,333.569 355.189,335.383 356.535,336.603C356.985,337.011 357.67,337.496 358.456,338.001C359.597,337.308 360.618,336.62 361.222,336.063C362.571,334.818 365.269,330.897 366.25,329.447C365.999,327.425 365.169,321.064 364.444,319.216C363.012,315.571 361.123,312.576 358.981,310.104Z" style="fill:white;"/>
                                <path d="M333.949,332.337C335.412,333.176 351.027,325.97 359.953,326.335C372.381,326.843 378.163,332.938 383.514,332.261C388.076,331.684 383.167,315.553 379.007,311.781C374.847,308.009 362.122,307.419 357.619,307.445C353.116,307.47 342.302,307.961 338.532,311.439C334.431,315.224 331.178,330.749 333.949,332.337Z" style="fill:white;"/>
                            </g>
                        </g>
                    </g>
                </g>
                <g transform="matrix(0.960469,0,0,0.960469,6.870464,40.85898)">
                    <g>
                        <path d="M317.642,865.183L317.642,770.417C320.665,724.046 361.751,670.759 374.081,657.413C383.716,646.983 394.912,634.082 406.756,627.461C416.434,622.05 432.497,612.69 454.271,615.294C457.84,615.721 479.279,621.706 495.451,630.996C511.467,640.196 533.623,659.958 545.225,677.3C549.886,684.267 588.323,740.231 599.161,757.513C602.752,763.24 629.913,795.544 659.458,805.438C663.677,806.851 682.808,811.442 700.067,809.867C722.913,807.781 741.338,800.239 756.242,802.28C782.385,805.859 797.146,822.07 798.674,823.979C817.966,848.076 818.272,866.222 816.108,869.152C815.234,870.335 797.157,863.395 791.653,859.856C785.82,856.107 749.558,851.378 738.419,855.287C706.05,866.648 663.448,871.034 644.301,864.921C597.19,849.879 586.745,835.084 567.941,813.462C562.102,806.749 528.318,741.127 524.827,733.271C506.652,692.369 490.674,673.497 485.646,668.347C471.063,653.409 455.118,643.118 437.979,642.998C426.152,642.916 414.566,653.6 411.11,657.215C404.496,664.132 398.453,679.684 397.405,689.713C394.956,713.147 396.416,797.819 396.416,797.819C399.179,855.133 454.91,865.183 454.91,865.183L317.642,865.183Z" style="fill:rgb(33,150,243);"/>
                        <clipPath id="_clip13">
                            <path d="M317.642,865.183L317.642,770.417C320.665,724.046 361.751,670.759 374.081,657.413C383.716,646.983 394.912,634.082 406.756,627.461C416.434,622.05 432.497,612.69 454.271,615.294C457.84,615.721 479.279,621.706 495.451,630.996C511.467,640.196 533.623,659.958 545.225,677.3C549.886,684.267 588.323,740.231 599.161,757.513C602.752,763.24 629.913,795.544 659.458,805.438C663.677,806.851 682.808,811.442 700.067,809.867C722.913,807.781 741.338,800.239 756.242,802.28C782.385,805.859 797.146,822.07 798.674,823.979C817.966,848.076 818.272,866.222 816.108,869.152C815.234,870.335 797.157,863.395 791.653,859.856C785.82,856.107 749.558,851.378 738.419,855.287C706.05,866.648 663.448,871.034 644.301,864.921C597.19,849.879 586.745,835.084 567.941,813.462C562.102,806.749 528.318,741.127 524.827,733.271C506.652,692.369 490.674,673.497 485.646,668.347C471.063,653.409 455.118,643.118 437.979,642.998C426.152,642.916 414.566,653.6 411.11,657.215C404.496,664.132 398.453,679.684 397.405,689.713C394.956,713.147 396.416,797.819 396.416,797.819C399.179,855.133 454.91,865.183 454.91,865.183L317.642,865.183Z"/>
                        </clipPath>
                        <g clip-path="url(#_clip13)">
                            <path d="M364.019,864.312C364.019,864.312 360.556,725.341 371.993,685.787C380.641,655.879 409.005,629.201 432.643,626.987C456.282,624.773 502.014,655.881 511.187,674.227C514.747,681.346 571.323,799.842 593.28,820.528C605.495,832.035 641.714,853.892 667.397,858.172C693.948,862.597 696.216,854.059 721.721,845.558C794.35,821.349 800.808,844.98 817.011,869.286C820.739,874.877 827.594,890.63 814.398,893.269C798.909,896.367 713.446,900.089 685.2,896.83C673.232,895.449 596.986,883.025 577.365,867.328C530.118,829.53 503.214,710.473 479.704,679.126C476.81,675.267 447.913,636.738 426.295,651.15C425.311,651.806 483.081,796.908 465.059,859.491C457.16,886.923 364.019,864.312 364.019,864.312Z" style="fill-opacity:0.1;"/>
                        </g>
                        <path d="M435.732,606.198C436,607.52 452.38,605.946 462.07,607.366C477.019,609.556 487.083,613.714 489.76,614.846C495.585,617.308 523.899,633.927 530.593,640.631C564.674,674.764 585.032,706.852 601.142,733.331C606.353,741.896 623.244,760.9 639.01,773.659C656.634,787.922 670.458,791.683 683.866,793.021C698.785,794.509 734.15,785.042 731.629,779.87C730.469,777.489 705.393,779.219 692.476,767.901C669.595,747.852 660.021,732.494 647.222,712.462C621.754,672.603 592.236,639.876 565.588,622.474C544.946,608.994 520.101,601.149 498.168,598.126C481.249,595.794 435.115,603.153 435.732,606.198Z" style="fill:rgb(33,150,243);"/>
                        <clipPath id="_clip14">
                            <path d="M435.732,606.198C436,607.52 452.38,605.946 462.07,607.366C477.019,609.556 487.083,613.714 489.76,614.846C495.585,617.308 523.899,633.927 530.593,640.631C564.674,674.764 585.032,706.852 601.142,733.331C606.353,741.896 623.244,760.9 639.01,773.659C656.634,787.922 670.458,791.683 683.866,793.021C698.785,794.509 734.15,785.042 731.629,779.87C730.469,777.489 705.393,779.219 692.476,767.901C669.595,747.852 660.021,732.494 647.222,712.462C621.754,672.603 592.236,639.876 565.588,622.474C544.946,608.994 520.101,601.149 498.168,598.126C481.249,595.794 435.115,603.153 435.732,606.198Z"/>
                        </clipPath>
                        <g clip-path="url(#_clip14)">
                            <g transform="matrix(1,0,0,1,0.000803,-0.402378)">
                                <path d="M435.726,602.365C436.133,611.046 477.437,601.398 497.844,607.828C515.053,613.25 562.573,634.201 589.187,670.89C593.117,676.308 635.859,735.336 653.589,752.1C667.744,765.484 690.216,776.604 704.234,781.098C714.874,784.51 740.071,782.117 736.527,775.066C732.982,768.015 681.888,751.761 666.174,737.776C651.562,724.773 638.512,692.804 628.655,678.772C615.783,660.447 564.749,611.881 554.409,603.241C548.695,598.465 435.378,594.926 435.726,602.365Z" style="fill:rgb(1,4,6);fill-opacity:0.1;"/>
                            </g>
                        </g>
                        <path d="M747.595,787.368C747.595,787.368 751.998,784.957 756.637,783.913C760.215,783.107 768.84,784.024 775.204,783.092C779.557,782.454 783.899,778.288 785.15,777.26C787.914,774.99 787.876,767.692 785.516,764.629C783.156,761.565 776.409,759.77 771.372,761.039C766.975,762.147 759.21,769.041 756.371,772.628C753.224,776.602 747.456,787.235 747.595,787.368Z" style="fill:rgb(33,150,243);"/>
                        <clipPath id="_clip15">
                            <path d="M747.595,787.368C747.595,787.368 751.998,784.957 756.637,783.913C760.215,783.107 768.84,784.024 775.204,783.092C779.557,782.454 783.899,778.288 785.15,777.26C787.914,774.99 787.876,767.692 785.516,764.629C783.156,761.565 776.409,759.77 771.372,761.039C766.975,762.147 759.21,769.041 756.371,772.628C753.224,776.602 747.456,787.235 747.595,787.368Z"/>
                        </clipPath>
                        <g clip-path="url(#_clip15)">
                            <g transform="matrix(0.570816,-0.821078,-0.821078,-0.570816,969.319491,1846.062186)">
                                <path d="M742.705,786.375C745.123,787.193 750.229,786.285 755.371,780.556C764.477,770.412 776.644,767.69 783.124,770.541C787.462,772.45 789.035,752.784 783.512,752.784C776.614,752.784 757.477,762.228 751.308,768.202C746.321,773.031 740.287,785.557 742.705,786.375Z" style="fill:rgb(1,4,6);fill-opacity:0.1;"/>
                            </g>
                        </g>
                        <path d="M783.783,794.462C783.038,795.58 785.848,795.82 790.694,798.806C794.951,801.429 797.338,805.406 799.282,806.011C800.913,806.517 804.817,807.127 806.657,805.761C808.074,804.709 808.977,802.842 809.285,801.725C809.829,799.753 808.827,797.03 806.772,794.856C803.953,791.873 797.822,789.955 794.048,790.937C791.676,791.553 785.08,792.516 783.783,794.462Z" style="fill:rgb(33,150,243);"/>
                    </g>
                    <g>
                        <path d="M439.763,505.741C428.578,523.465 413.254,549.621 408.567,565.087C405.077,576.603 404.967,605.035 407.602,601.174C417.194,587.123 425.928,578.03 444.593,562.717C451.985,556.652 485.55,532.383 506.436,520.061C531.948,505.009 598.34,472.336 616.845,458.295C634.27,445.072 659.005,421.802 675.248,400.033C689.603,380.794 698.188,362.076 697.081,362.305C695.786,362.573 674.513,382.782 653.559,393.462C623.187,408.942 599.028,414.828 573.859,425.036C556.68,432.004 536.576,443.705 523.365,451.142C499.085,464.81 458.167,503.452 458.167,503.452C458.167,503.452 506.11,444.154 529.43,413.994C559.409,375.222 590.082,345.891 622.998,321.283C651.014,300.338 725.57,267.134 726.339,264.991C727.107,262.848 657.755,288.838 627.607,308.426C609.477,320.205 579.207,345.553 561.534,361.145C548.76,372.414 521.564,401.978 521.564,401.978C521.564,401.978 552.172,363.23 559.885,336.393C562.367,327.755 574.701,291.508 578.135,264.53C582.362,231.317 577.398,207.266 576.055,206.872C573.391,206.093 556.06,252.552 547.369,274.569C540.753,291.327 528.974,315.527 519.943,337.616C505.158,373.775 511.763,392.188 498.393,422.75C493.269,434.462 454.734,482.018 439.763,505.741Z" style="fill:rgb(39,174,96);"/>
                        <clipPath id="_clip16">
                            <path d="M439.763,505.741C428.578,523.465 413.254,549.621 408.567,565.087C405.077,576.603 404.967,605.035 407.602,601.174C417.194,587.123 425.928,578.03 444.593,562.717C451.985,556.652 485.55,532.383 506.436,520.061C531.948,505.009 598.34,472.336 616.845,458.295C634.27,445.072 659.005,421.802 675.248,400.033C689.603,380.794 698.188,362.076 697.081,362.305C695.786,362.573 674.513,382.782 653.559,393.462C623.187,408.942 599.028,414.828 573.859,425.036C556.68,432.004 536.576,443.705 523.365,451.142C499.085,464.81 458.167,503.452 458.167,503.452C458.167,503.452 506.11,444.154 529.43,413.994C559.409,375.222 590.082,345.891 622.998,321.283C651.014,300.338 725.57,267.134 726.339,264.991C727.107,262.848 657.755,288.838 627.607,308.426C609.477,320.205 579.207,345.553 561.534,361.145C548.76,372.414 521.564,401.978 521.564,401.978C521.564,401.978 552.172,363.23 559.885,336.393C562.367,327.755 574.701,291.508 578.135,264.53C582.362,231.317 577.398,207.266 576.055,206.872C573.391,206.093 556.06,252.552 547.369,274.569C540.753,291.327 528.974,315.527 519.943,337.616C505.158,373.775 511.763,392.188 498.393,422.75C493.269,434.462 454.734,482.018 439.763,505.741Z"/>
                        </clipPath>
                        <g clip-path="url(#_clip16)">
                            <path d="M405.77,610.291C405.77,610.291 409.951,574.787 426.276,561.496C451.171,541.228 503.944,509.803 530.304,493.337C547.858,482.372 569.916,472.163 584.43,462.705C605.052,449.268 693.573,362.689 708.573,356.535C723.335,350.478 665.728,422.363 653.228,432.838C602.76,475.131 405.77,610.291 405.77,610.291" style="fill-opacity:0.1;"/>
                            <path d="M576.067,206.863C576.067,206.863 571.641,240.541 570.246,247.202C561.421,289.331 539.617,326.299 535.872,356.173C534.374,368.119 522.496,394.924 519.533,403.446C518.651,405.981 525.545,396.92 525.545,396.92L554.7,358.84L582.87,257.009C582.87,257.009 588.098,211.092 576.067,206.863Z" style="fill-opacity:0.1;"/>
                            <path d="M492.204,447.248L521.7,402.057C521.7,402.057 528.139,395.783 533.361,388.764C550.246,368.73 545.57,364.33 593.509,327.044C595.79,325.27 621.348,305.392 621.768,304.553C622.232,303.625 635.677,294.588 641.952,293.019C659.679,288.587 685.681,269.048 707.12,264.761C723.13,261.558 729.404,257.604 731.389,273.94C705.319,300.01 658.462,294.386 625.228,327.621C621.303,331.546 569.573,376.213 564.674,383.561C563.37,385.518 562.007,384.3 545.067,405.476C537.938,414.386 538.812,414.819 531.226,423.353C514.32,442.372 490.844,472.834 487.248,474.633C485.085,475.714 475.349,487.885 473.612,488.454C471.48,489.153 458.702,503.44 458.472,503.901C457.374,506.096 492.204,447.248 492.204,447.248Z" style="fill-opacity:0.1;"/>
                        </g>
                        <g>
                            <path d="M554.763,401.19C556.228,406.042 587.509,406.023 602.125,402.259C616.741,398.495 643.532,382.522 641.96,377.736C640.389,372.95 607.311,369.781 592.695,373.545C578.079,377.309 553.297,396.338 554.763,401.19Z" style="fill:rgb(255,193,7);"/>
                            <clipPath id="_clip17">
                                <path d="M554.763,401.19C556.228,406.042 587.509,406.023 602.125,402.259C616.741,398.495 643.532,382.522 641.96,377.736C640.389,372.95 607.311,369.781 592.695,373.545C578.079,377.309 553.297,396.338 554.763,401.19Z"/>
                            </clipPath>
                            <g clip-path="url(#_clip17)">
                                <g transform="matrix(1,0,0,1,6.034056,-2.931595)">
                                    <path d="M616.802,387.279C608.058,390.479 596.559,396.21 581.275,401.037C568.177,405.173 546.944,396.759 547.635,407.128C547.781,409.319 558.411,410.035 563.435,411.166C566.586,411.874 568.639,409.706 599.566,407.128C611.058,406.171 607.219,405.099 624.663,398.557C641.238,392.342 643.459,384.264 639.539,379.69C638.897,378.941 637.365,379.593 635.073,379.944C632.782,380.294 622.369,385.242 616.802,387.279Z" style="fill-opacity:0.1;"/>
                                </g>
                            </g>
                            <g transform="matrix(0.979612,0.200897,-0.200897,0.979612,140.571778,-153.228593)">
                                <path d="M554.763,401.19C556.228,406.042 587.509,406.023 602.125,402.259C616.741,398.495 643.532,382.522 641.96,377.736C640.389,372.95 607.311,369.781 592.695,373.545C578.079,377.309 553.297,396.338 554.763,401.19Z" style="fill:rgb(255,193,7);"/>
                                <clipPath id="_clip18">
                                    <path d="M554.763,401.19C556.228,406.042 587.509,406.023 602.125,402.259C616.741,398.495 643.532,382.522 641.96,377.736C640.389,372.95 607.311,369.781 592.695,373.545C578.079,377.309 553.297,396.338 554.763,401.19Z"/>
                                </clipPath>
                                <g clip-path="url(#_clip18)">
                                    <g transform="matrix(0.979612,-0.200897,0.200897,0.979612,-108.917889,179.198723)">
                                        <path d="M614.725,354.835C617.528,354.772 640.873,359.752 663.072,355.313C664.229,355.081 690.45,347.089 681.316,337.955C680.397,337.036 696.243,336.82 698.268,344.919C698.286,344.99 699.587,346.011 696.851,350.116C673.741,363.321 671.96,357.645 645.828,362.871C636.379,364.761 617.95,365.464 616.726,364.852C614.721,363.85 595.316,350.926 614.725,354.835Z" style="fill-opacity:0.1;"/>
                                    </g>
                                </g>
                            </g>
                            <g transform="matrix(0.96866,0.248391,-0.248391,0.96866,218.916789,-214.043668)">
                                <path d="M554.763,401.19C556.228,406.042 587.509,406.023 602.125,402.259C616.741,398.495 643.532,382.522 641.96,377.736C640.389,372.95 607.311,369.781 592.695,373.545C578.079,377.309 553.297,396.338 554.763,401.19Z" style="fill:rgb(255,193,7);"/>
                                <clipPath id="_clip19">
                                    <path d="M554.763,401.19C556.228,406.042 587.509,406.023 602.125,402.259C616.741,398.495 643.532,382.522 641.96,377.736C640.389,372.95 607.311,369.781 592.695,373.545C578.079,377.309 553.297,396.338 554.763,401.19Z"/>
                                </clipPath>
                                <g clip-path="url(#_clip19)">
                                    <g transform="matrix(0.96866,-0.248391,0.248391,0.96866,-158.889329,261.712501)">
                                        <path d="M719.078,295.163C722.26,295.959 732.035,312.254 713.786,315.572C678.718,321.948 660.111,308.935 654.242,314.804C650.25,318.795 686.612,330.144 692.81,330.501C727.369,332.495 734.286,329.613 737.597,328.234C752.923,321.848 755.672,317.249 754.227,308.58C752.379,297.498 722.843,291.398 718.889,295.352" style="fill-opacity:0.1;"/>
                                    </g>
                                </g>
                            </g>
                            <g transform="matrix(0.86006,0.185367,-0.185367,0.86006,316.995161,-166.247235)">
                                <path d="M554.763,401.19C556.228,406.042 587.509,406.023 602.125,402.259C616.741,398.495 643.532,382.522 641.96,377.736C640.389,372.95 607.311,369.781 592.695,373.545C578.079,377.309 553.297,396.338 554.763,401.19Z" style="fill:rgb(255,193,7);"/>
                                <clipPath id="_clip20">
                                    <path d="M554.763,401.19C556.228,406.042 587.509,406.023 602.125,402.259C616.741,398.495 643.532,382.522 641.96,377.736C640.389,372.95 607.311,369.781 592.695,373.545C578.079,377.309 553.297,396.338 554.763,401.19Z"/>
                                </clipPath>
                                <g clip-path="url(#_clip20)">
                                    <g transform="matrix(1.111097,-0.239473,0.239473,1.111097,-312.400738,260.628517)">
                                        <path d="M715.429,281.734C730.598,279.666 730.571,282.679 749.822,282.679C761.271,282.679 761.228,282.777 772.499,281.167C781.749,279.846 792.492,272.285 792.492,272.285C792.492,272.285 794.679,267.864 802.583,266.427C807.941,265.453 802.973,289.302 781.947,290.616C773.234,291.16 773.41,292.695 758.703,292.695C753.721,292.695 735.571,293.979 723.176,287.781C719.168,285.777 719.511,283.775 715.429,281.734Z" style="fill-opacity:0.1;"/>
                                    </g>
                                </g>
                            </g>
                            <g transform="matrix(1.113802,-0.275971,0.275971,1.113802,-26.557336,-34.859231)">
                                <path d="M554.763,401.19C556.228,406.042 587.509,406.023 602.125,402.259C616.741,398.495 643.532,382.522 641.96,377.736C640.389,372.95 607.311,369.781 592.695,373.545C578.079,377.309 553.297,396.338 554.763,401.19Z" style="fill:rgb(255,193,7);"/>
                                <clipPath id="_clip21">
                                    <path d="M554.763,401.19C556.228,406.042 587.509,406.023 602.125,402.259C616.741,398.495 643.532,382.522 641.96,377.736C640.389,372.95 607.311,369.781 592.695,373.545C578.079,377.309 553.297,396.338 554.763,401.19Z"/>
                                </clipPath>
                                <g clip-path="url(#_clip21)">
                                    <g transform="matrix(0.845894,0.20959,-0.20959,0.845894,15.15854,35.053385)">
                                        <path d="M793.789,202.81C787.058,211.464 763.303,232.436 741.633,239.659C740.31,240.1 731.372,243.824 730.483,244.195C727.458,245.455 712.93,250.298 711.397,250.809C706.988,252.278 696.505,257.233 700.814,260.824C701.895,261.725 703.85,263.354 718.389,260.446C740.436,256.037 742.545,254.982 744.467,254.021C744.804,253.853 766.694,246.724 777.915,235.502C784.409,229.009 789.493,217.688 792.655,214.526C795.376,211.805 795.957,208.323 796.057,207.723C796.449,205.367 797.76,205.08 796.057,203.377C795.723,203.043 795.663,203.172 793.411,202.999" style="fill-opacity:0.1;"/>
                                    </g>
                                </g>
                            </g>
                            <g transform="matrix(0.845477,-0.67717,0.67717,0.845477,-95.927298,325.387301)">
                                <path d="M554.763,401.19C556.228,406.042 587.509,406.023 602.125,402.259C616.741,398.495 643.532,382.522 641.96,377.736C640.389,372.95 607.311,369.781 592.695,373.545C578.079,377.309 553.297,396.338 554.763,401.19Z" style="fill:rgb(255,193,7);"/>
                                <clipPath id="_clip22">
                                    <path d="M554.763,401.19C556.228,406.042 587.509,406.023 602.125,402.259C616.741,398.495 643.532,382.522 641.96,377.736C640.389,372.95 607.311,369.781 592.695,373.545C578.079,377.309 553.297,396.338 554.763,401.19Z"/>
                                </clipPath>
                                <g clip-path="url(#_clip22)">
                                    <g transform="matrix(0.720542,0.577106,-0.577106,0.720542,256.902489,-179.094872)">
                                        <path d="M700.599,211.342C696.091,220.334 689.362,237.495 673.566,256.45C668.378,262.676 637.418,279.057 643.359,290.937C645.15,294.521 653.577,288.622 654.319,288.103C659.851,284.23 659.767,284.095 666.413,282.433C666.793,282.338 673.773,278.287 677.752,274.308C677.991,274.068 696.494,253.02 699.295,246.717C700.103,244.899 707.409,216.359 707.798,214.025C707.977,212.953 709.474,203.974 700.617,202.498C698.09,202.077 702.256,208.037 700.599,211.342Z" style="fill-opacity:0.1;"/>
                                    </g>
                                </g>
                            </g>
                            <g transform="matrix(0.742488,-0.875371,0.875371,0.742488,-174.55413,514.006284)">
                                <path d="M554.763,401.19C556.228,406.042 587.509,406.023 602.125,402.259C616.741,398.495 643.532,382.522 641.96,377.736C640.389,372.95 607.311,369.781 592.695,373.545C578.079,377.309 553.297,396.338 554.763,401.19Z" style="fill:rgb(255,193,7);"/>
                                <clipPath id="_clip23">
                                    <path d="M554.763,401.19C556.228,406.042 587.509,406.023 602.125,402.259C616.741,398.495 643.532,382.522 641.96,377.736C640.389,372.95 607.311,369.781 592.695,373.545C578.079,377.309 553.297,396.338 554.763,401.19Z"/>
                                </clipPath>
                                <g clip-path="url(#_clip23)">
                                    <g transform="matrix(0.563532,0.664386,-0.664386,0.563532,439.865597,-173.687444)">
                                        <path d="M628.73,235.255C628.73,235.255 628.738,250.483 625.697,260.814C624.09,266.273 617.041,285.564 614.476,289.137C608.767,297.09 593.311,314.555 585.882,320.745C580.494,325.235 582.107,333.499 586.355,331.375C589.868,329.618 596.38,331.809 603.126,321.69C606.769,316.226 627.06,301.223 630.527,294.289C632.5,290.344 639.864,286.629 641.157,263.344C641.226,262.111 644.453,221.715 639.031,221.298C621.767,219.97 628.73,235.255 628.73,235.255Z" style="fill-opacity:0.1;"/>
                                    </g>
                                </g>
                            </g>
                        </g>
                    </g>
                    <g>
                        <g>
                            <path d="M317.642,721.962C317.642,721.962 339.577,679.092 352.76,662.121C364.514,646.99 396.741,620.14 396.741,620.14L389.382,385.689C389.382,385.689 393.903,381.299 397.431,377.404C399.073,375.592 394.79,370.927 397.312,368.187C398.846,366.52 402.413,360.157 405.77,358.208C408.94,356.367 416.981,357.473 417.2,355.149C417.42,352.825 410.539,344.909 404.818,342.911C402.376,342.059 398.827,339.965 395.061,339.735C390.431,339.453 384.105,341.545 381.048,339.475C375.098,335.446 373.935,332.886 359.165,331.924C345.843,331.056 338.67,340.484 336.653,340.628C334.77,340.763 326.009,337.621 317.642,340.549C307.934,343.946 299.504,351.652 299.917,356.357C300.178,359.322 306.812,353.881 311.651,358.985C314.973,362.49 317.741,365.075 320.577,370.321C322.063,373.069 319.42,375.527 320.59,378.288C322.263,382.233 326.132,381.918 327.801,385.5L317.642,721.962Z" style="fill:rgb(216,216,214);"/>
                            <clipPath id="_clip24">
                                <rect x="359.165" y="329.867" width="58.04" height="392.094"/>
                            </clipPath>
                            <g clip-path="url(#_clip24)">
                                <path d="M317.642,721.962C317.642,721.962 339.577,679.092 352.76,662.121C364.514,646.99 396.741,620.14 396.741,620.14L389.382,385.689C389.382,385.689 393.903,381.299 397.431,377.404C399.073,375.592 394.79,370.927 397.312,368.187C398.846,366.52 402.413,360.157 405.77,358.208C408.94,356.367 416.981,357.473 417.2,355.149C417.42,352.825 410.539,344.909 404.818,342.911C402.376,342.059 398.827,339.965 395.061,339.735C390.431,339.453 384.105,341.545 381.048,339.475C375.098,335.446 373.935,332.829 359.165,331.867C345.843,331 338.67,340.484 336.653,340.628C334.77,340.763 326.009,337.621 317.642,340.549C307.934,343.946 299.504,351.652 299.917,356.357C300.178,359.322 306.812,353.881 311.651,358.985C314.973,362.49 317.741,365.075 320.577,370.321C322.063,373.069 319.42,375.527 320.59,378.288C322.263,382.233 326.132,381.918 327.801,385.5L317.642,721.962Z" style="fill:rgb(163,163,157);"/>
                            </g>
                        </g>
                        <g>
                            <g transform="matrix(1,0,0,1,1.73894,0)">
                                <path d="M384.259,333.062C384.259,333.062 393.311,331.915 397.26,333.028C400.872,334.046 404.89,338.088 407.545,337.985C410.093,337.885 412.504,333.239 413.188,332.405C414.802,330.435 423.331,330.68 422.994,328.994C422.657,327.309 420.685,322.096 409.359,321.765C391.556,321.245 384.259,333.062 384.259,333.062Z" style="fill:rgb(216,216,214);"/>
                            </g>
                            <g transform="matrix(-1,0,0,1,714.810925,0)">
                                <path d="M384.259,333.062C384.259,333.062 393.311,331.915 397.26,333.028C400.872,334.046 404.89,338.088 407.545,337.985C410.093,337.885 412.504,333.239 413.188,332.405C414.802,330.435 423.331,330.68 422.994,328.994C422.657,327.309 420.685,322.096 409.359,321.765C391.556,321.245 384.259,333.062 384.259,333.062Z" style="fill:rgb(216,216,214);"/>
                            </g>
                            <path d="M333.949,332.337C335.412,333.176 351.027,325.97 359.953,326.335C372.381,326.843 378.163,332.938 383.514,332.261C388.076,331.684 387.884,324.592 390.659,321.765C392.868,319.514 400.218,316.908 399.512,315.21C398.806,313.512 392.142,310.281 387.504,310.434C382.794,310.59 371.905,316.549 371.905,316.549C371.905,316.549 363.057,309.604 358.554,309.63C354.051,309.656 344.889,316.704 344.889,316.704C344.889,316.704 333.849,310.568 329.308,310.388C324.786,310.209 318.139,313.473 317.642,315.37C317.146,317.266 322.613,319.572 325.502,321.765C326.937,322.855 331.178,330.749 333.949,332.337Z" style="fill:rgb(216,216,214);"/>
                            <g transform="matrix(1.056455,0,0,1.013451,-20.11131,-1.964994)">
                                <path d="M358.554,302.671C356.481,302.341 354.676,303.217 352.95,304.452L352.798,289.138L334.024,289.189L334.177,266.727C334.177,266.727 318.342,243.265 320.203,236.917C324.391,222.633 358.523,154.395 358.523,154.395L358.554,302.671ZM358.554,302.671C358.554,302.671 358.563,262.261 358.567,241.127C358.572,216.105 358.585,154.395 358.585,154.395C358.585,154.395 392.717,222.633 396.905,236.917C398.766,243.265 382.931,266.727 382.931,266.727L383.084,289.189L364.31,289.138L364.158,304.452C362.742,302.912 360.924,302.214 358.554,302.671Z" style="fill:rgb(229,173,6);"/>
                            </g>
                        </g>
                        <g transform="matrix(1,0,0,1,0.279096,1.291778)">
                            <path d="M358.275,425.906L368.817,442.441C368.817,442.441 361.914,451.139 362.06,456.114C362.206,461.089 369.691,472.291 369.691,472.291C369.691,472.291 363.358,481.618 363.491,485.884C363.623,490.15 370.486,497.888 370.486,497.888C370.486,497.888 363.782,506.943 363.809,511.362C363.835,515.78 370.645,524.399 370.645,524.399C370.645,524.399 364.047,532.494 364.127,536.8C364.206,541.106 371.122,550.234 371.122,550.234C371.122,550.234 364.418,558.707 364.365,563.112C364.312,567.518 370.804,576.666 370.804,576.666C370.804,576.666 364.647,582.429 363.247,585.082C361.159,589.04 358.275,600.412 358.275,600.412C358.275,600.412 355.391,589.04 353.302,585.082C351.903,582.429 345.745,576.666 345.745,576.666C345.745,576.666 352.237,567.518 352.184,563.112C352.131,558.707 345.427,550.234 345.427,550.234C345.427,550.234 352.343,541.106 352.423,536.8C352.502,532.494 345.904,524.399 345.904,524.399C345.904,524.399 352.714,515.78 352.741,511.362C352.767,506.943 346.063,497.888 346.063,497.888C346.063,497.888 352.926,490.15 353.059,485.884C353.191,481.618 346.858,472.291 346.858,472.291C346.858,472.291 354.344,461.089 354.49,456.114C354.636,451.139 347.733,442.441 347.733,442.441L358.275,425.906Z" style="fill:rgb(229,173,6);"/>
                        </g>
                        <path d="M327.093,411.066C327.093,411.066 330.293,412.324 332.063,412.345C333.93,412.366 337.928,409.238 338.39,407.183C339.471,402.38 338.803,387.321 338.14,382.44C337.826,380.132 333.181,378.574 335.104,377.244C337.392,375.661 352.483,373.907 352.483,373.907L352.483,404.197C352.483,404.197 352.881,410.907 358.554,411.045C364.025,411.179 365.281,404.197 365.281,404.197L365.152,373.783C365.152,373.783 380.01,375.261 382.287,376.752C384.132,377.959 378.815,382.166 378.815,382.166L378.815,404.197C378.815,404.197 380.207,409.714 382.12,410.7C383.82,411.577 390.076,410.58 390.076,410.58L389.533,385.522C389.533,385.522 396.486,379.434 397.687,376.929C398.621,374.981 395.216,369.553 393.176,368.763C386.72,366.262 370.164,361.747 358.554,361.82C346.944,361.894 329.814,366.447 323.513,369.206C321.265,370.19 320.016,375.945 320.649,378.474C321.407,381.503 326.578,382.041 327.264,384.714C328.557,389.753 326.485,411.011 327.093,411.066Z" style="fill:rgb(229,173,6);"/>
                        <g>
                            <g transform="matrix(0.800295,0,0,0.800295,74.01094,91.428231)">
                                <path d="M386.246,329.962C386.246,329.962 393.311,331.915 397.26,333.028C400.872,334.046 404.723,336.993 407.378,336.889C409.926,336.789 410.264,331.166 413.082,329.867C416.236,328.414 426.637,329.853 426.3,328.168C425.962,326.483 417.253,314.849 405.926,314.518C388.123,313.998 386.246,329.962 386.246,329.962Z" style="fill:rgb(95,93,93);"/>
                            </g>
                            <g transform="matrix(-0.800295,0,0,0.800295,644.87618,91.428231)">
                                <path d="M386.246,329.962C386.246,329.962 393.311,331.915 397.26,333.028C400.872,334.046 404.723,336.993 407.378,336.889C409.926,336.789 410.264,331.166 413.082,329.867C416.236,328.414 426.637,329.853 426.3,328.168C425.962,326.483 417.253,314.849 405.926,314.518C388.123,313.998 386.246,329.962 386.246,329.962Z" style="fill:rgb(95,93,93);"/>
                            </g>
                            <g transform="matrix(0.800295,0,0,0.800295,72.964479,89.56302)">
                                <path d="M333.949,332.337C335.412,333.176 351.027,325.97 359.953,326.335C372.381,326.843 378.163,332.938 383.514,332.261C388.076,331.684 383.167,315.553 379.007,311.781C374.847,308.009 362.122,307.419 357.619,307.445C353.116,307.47 342.302,307.961 338.532,311.439C334.431,315.224 331.178,330.749 333.949,332.337Z" style="fill:rgb(95,93,93);"/>
                            </g>
                        </g>
                    </g>
                </g>
            </g>
        </g>
    </g>
</svg>
